<?xml version="1.0" encoding="UTF-8"?>
<svg id="Capa_1" data-name="Capa 1" xmlns="http://www.w3.org/2000/svg" xmlns:xlink="http://www.w3.org/1999/xlink" viewBox="0 0 587 327">
  <defs>
    <style>
      .cls-1 {
        fill: #44a5d3;
      }

      .cls-1, .cls-2, .cls-3, .cls-4, .cls-5, .cls-6, .cls-7, .cls-8, .cls-9, .cls-10 {
        stroke-width: 0px;
      }

      .cls-2 {
        fill: #24678e;
      }

      .cls-3 {
        filter: url(#drop-shadow-2);
      }

      .cls-3, .cls-6 {
        fill: #f9f8fc;
      }

      .cls-4 {
        fill: none;
      }

      .cls-11 {
        filter: url(#drop-shadow-1);
      }

      .cls-5 {
        fill: #026591;
      }

      .cls-12 {
        opacity: .3;
      }

      .cls-13 {
        clip-path: url(#clippath);
      }

      .cls-7, .cls-8 {
        fill: #1d1d1b;
      }

      .cls-8 {
        filter: url(#drop-shadow-3);
      }

      .cls-9 {
        fill: #006491;
      }

      .cls-10 {
        fill: #f6f5f9;
      }
    </style>
    <filter id="drop-shadow-1" filterUnits="userSpaceOnUse">
      <feOffset dx="15" dy="0"/>
      <feGaussianBlur result="blur" stdDeviation="20"/>
      <feFlood flood-color="#000" flood-opacity=".5"/>
      <feComposite in2="blur" operator="in"/>
      <feComposite in="SourceGraphic"/>
    </filter>
    <clipPath id="clippath">
      <rect class="cls-4" x="2439.5" y="709" width="982" height="796"/>
    </clipPath>
    <filter id="drop-shadow-2" filterUnits="userSpaceOnUse">
      <feOffset dx="9.53" dy="6.67"/>
      <feGaussianBlur result="blur-2" stdDeviation="14.3"/>
      <feFlood flood-color="#000" flood-opacity=".3"/>
      <feComposite in2="blur-2" operator="in"/>
      <feComposite in="SourceGraphic"/>
    </filter>
    <filter id="drop-shadow-3" filterUnits="userSpaceOnUse">
      <feOffset dx="4.77" dy="4.77"/>
      <feGaussianBlur result="blur-3" stdDeviation="9.53"/>
      <feFlood flood-color="#1d1d1b" flood-opacity=".75"/>
      <feComposite in2="blur-3" operator="in"/>
      <feComposite in="SourceGraphic"/>
    </filter>
  </defs>
  <g class="cls-11">
    <g class="cls-13">
      <g>
        <path class="cls-1" d="M-43.95-1591.1c-1923.33,0-3482.49,1571.3-3482.49,3509.6S-1967.28,5428.1-43.95,5428.1s3482.49-1571.3,3482.49-3509.6S1879.37-1591.1-43.95-1591.1h0Z"/>
        <path class="cls-5" d="M-105.78-1579.1c-1931.67,0-3497.6,1565.93-3497.6,3497.6S-2037.45,5416.1-105.78,5416.1s3497.6-1565.93,3497.6-3497.6S1825.89-1579.1-105.78-1579.1h0Z"/>
        <circle class="cls-10" cx="-174.84" cy="1918.5" r="3509.6"/>
      </g>
    </g>
  </g>
  <rect class="cls-2" x="6.5" y="11" width="223.06" height="306.09" rx="47.64" ry="47.64"/>
  <rect class="cls-3" x="43.68" y="10.56" width="533.82" height="306.78" rx="48" ry="48"/>
  <g>
    <circle class="cls-8" cx="482.48" cy="255.87" r="44.92"/>
    <g>
      <path class="cls-6" d="M473.95,250.48c0-3.41-.02-6.82,0-10.23.01-1.94.79-3.51,2.58-4.39,1.63-.8,3.24-.58,4.68.52,1.18.9,1.72,2.16,1.72,3.63.01,2.83.03,5.65,0,8.48-.01.96.25,1.39,1.29,1.35,1.72-.07,3.02.73,3.87,2.22.31.55.65.71,1.3.62,1.75-.23,3.23.41,4.18,1.88.55.86,1.14,1.01,2.07.97,2.34-.08,4.43,1.63,4.46,3.96.08,4.92.57,9.89-.24,14.77-.97,5.84-4.44,9.93-9.97,12.07-5.37,2.07-10.44,1.38-14.85-2.44-2.37-2.06-4.12-4.73-6.15-7.12-2.61-3.08-5.16-6.21-7.73-9.32-1.24-1.5-1.86-3.15-1.28-5.11.98-3.37,4.14-4.79,7.63-3.45,1.64.63,2.84,1.86,4.17,2.91.48.38.95.92,1.66.57.7-.35.59-1.05.6-1.66,0-3.41,0-6.82,0-10.23h0ZM479.81,251.51c0-3.5,0-7,0-10.5,0-.44,0-.91-.12-1.33-.19-.67-.66-1.07-1.41-.97-.7.1-.96.59-.99,1.23-.02.45-.02.9-.02,1.35,0,6.5,0,13.01,0,19.51,0,2.4-.93,3.94-2.75,4.65-1.57.62-2.97.28-4.28-.72-1.24-.95-2.29-2.17-3.75-2.82-1.08-.48-2.19-.63-3.06.45-.7.87-.56,2.11.34,3.19,3.92,4.73,7.84,9.46,11.77,14.18.95,1.14,1.96,2.22,3.27,2.96,7.06,4,16.59-.62,17.92-8.8.74-4.53.26-9.13.29-13.7,0-.77-.4-1.45-1.29-1.43-.88.02-1.2.66-1.22,1.48-.02.94,0,1.89-.12,2.82-.12.85-.72,1.36-1.6,1.34-.81-.02-1.33-.53-1.49-1.31-.09-.43-.1-.89-.1-1.34-.02-1.52,0-3.05-.03-4.57,0-.65-.29-1.14-.99-1.24-.75-.1-1.21.29-1.41.96-.11.38-.12.79-.12,1.19-.01,1.48-.02,2.96,0,4.44,0,.67-.15,1.25-.76,1.62-1.12.69-2.34-.14-2.37-1.69-.04-2.56-.02-5.11-.01-7.67,0-.88-.18-1.73-1.2-1.77-1.13-.04-1.33.84-1.33,1.77,0,2.42,0,4.84,0,7.27,0,1.54-.58,2.35-1.62,2.33-1-.03-1.51-.77-1.52-2.26,0-3.54,0-7.09,0-10.63Z"/>
      <path class="cls-6" d="M478.51,229.66c5.42.02,10.11,4.51,10.11,9.68,0,1.03-.18,1.96-1.42,2.03-1.28.07-1.63-.8-1.74-1.92-.3-3.2-2.45-5.75-5.31-6.37-3.21-.7-6.2.61-7.81,3.38-.56.96-.76,2.01-.89,3.08-.13,1.11-.5,1.99-1.8,1.83-1.28-.16-1.44-1.16-1.39-2.23.25-5.18,4.91-9.49,10.24-9.47Z"/>
    </g>
  </g>
  <g class="cls-12">
    <path class="cls-9" d="M302.76,69.84c27.79,0,55.58,0,83.37,0,4.87,0,9.43.83,13.13,4.37,3,2.87,4.71,6.31,4.71,10.5,0,39.91.05,79.82-.03,119.72-.02,8.63-6.63,14.63-16.18,14.88-7.24.19-14.49.05-21.73.05-10.54,0-21.07-.01-31.61,0-4.87,0-5.49.87-4.25,5.66,1.68,6.49,6.64,10.6,13.41,10.72,8.69.15,17.39-.05,26.08.12,9.03.17,15.02,5.01,16.47,12.96.72,3.92-.64,5.73-4.62,6.05-1.18.1-2.37.05-3.55.05-50.31,0-100.63.01-150.94-.03-2.78,0-6.21.97-7.78-2.33-1.5-3.15.04-6.21,1.61-8.96,3.3-5.78,8.74-7.7,15.02-7.76,8.56-.08,17.12.06,25.68-.1,6.86-.13,11.91-4.48,13.46-11.17,1-4.32.36-5.2-4.06-5.2-17.39-.02-34.77-.01-52.16-.01-4.73,0-9.17-.85-12.8-4.21-3.16-2.92-4.92-6.46-4.92-10.8,0-39.78-.03-79.55.03-119.33.01-8.21,5.68-14.02,14.35-15.02,2.21-.25,4.47-.16,6.71-.16,26.87,0,53.74,0,80.61,0ZM302.51,188.4c29.75,0,59.51,0,89.26,0,5.4,0,5.42-.02,5.42-5.53,0-31.6,0-63.2,0-94.79,0-8.49-2.52-10.98-11.12-10.98-55.69,0-111.38,0-167.07,0-8.63,0-11.14,2.47-11.14,10.95,0,31.6,0,63.2,0,94.79,0,5.55.02,5.56,5.79,5.56,29.62,0,59.25,0,88.87,0ZM302.18,212.11c27.64,0,55.28,0,82.91,0,1.58,0,3.17.05,4.73-.12,5.57-.61,7.95-4.86,7.36-13.04-.4-5.52-4.7-3.18-7.24-3.19-58.43-.14-116.87-.11-175.3-.1-1.45,0-2.9.02-4.34.07-1.36.05-2.07.73-2.39,2.12-2.06,9.17,1.95,14.26,11.36,14.26,27.64.01,55.28,0,82.91,0ZM302.3,247.68c23.31,0,46.62,0,69.93,0,1.05,0,2.11.02,3.16-.03.76-.04,1.75.16,2.07-.74.39-1.08-.6-1.62-1.27-2.2-2.08-1.81-4.64-1.62-7.14-1.62-19.36-.01-38.72,0-58.08-.03-2.56,0-5.57-.13-5.68-3.45-.12-3.67,3.05-3.72,5.74-3.76,4.61-.07,9.22-.03,13.83-.04,2.05,0,2.69-.72,1.45-2.61-2.21-3.38-3.45-7.09-3.49-11.15-.02-2.12-1.27-2.66-3.09-2.66-11.46,0-22.92.02-34.37,0-2.1,0-3.18.8-3.16,3.02.02,3.23-.96,6.23-2.42,9.07-2.25,4.36-2.28,4.34,2.73,4.37,4.48.02,8.96-.04,13.43.13,2.14.08,3.95,1.13,3.89,3.6-.05,2.23-1.76,3.13-3.73,3.38-1.43.18-2.89.14-4.34.14-18.7,0-37.4,0-56.1,0-2.66,0-5.31,0-7.35,2.11-.46.47-.99.97-.75,1.69.25.77,1.03.73,1.67.76,1.18.06,2.37.05,3.55.05,23.18,0,46.36,0,69.54,0Z"/>
  </g>
  <g>
    <path class="cls-7" d="M89.81,181.47c-11.15,0-19.1-7.26-19.1-18.19,0-13.5,9.55-23.85,22.48-23.85,11.61,0,19.04,7.66,19.04,18.3,0,13.84-9.55,23.74-22.42,23.74ZM93.02,145.49c-9.04,0-14.41,8.24-14.41,17.62,0,7.55,4.58,12.3,11.55,12.3,8.69,0,14.18-7.78,14.18-17.5,0-6.86-3.83-12.35-11.32-12.41Z"/>
    <path class="cls-7" d="M122.64,140h25.34l-.97,6.06h-17.73l-1.89,12.18h13.9l-.92,5.89h-13.95l-2.63,16.76h-7.61l6.46-40.89Z"/>
    <path class="cls-7" d="M155.25,140h7.66l-6.46,40.89h-7.66l6.46-40.89Z"/>
    <path class="cls-7" d="M167.26,163.57c0-13.67,8.81-24.19,22.13-24.19,9.21,0,15.79,4.8,16.3,14.3h-7.44c-.8-5.38-3.49-8.29-9.09-8.29-8.92,0-13.96,8.06-13.96,17.96-.06,7.44,3.49,12.07,10.98,12.07,5.61,0,9.38-3.37,10.98-8.75h7.44c-1.94,9.38-9.32,14.81-18.47,14.81-11.61,0-18.87-6.69-18.87-17.9Z"/>
    <path class="cls-7" d="M215.24,140h7.66l-6.46,40.89h-7.66l6.46-40.89Z"/>
    <path class="cls-7" d="M232.63,140h9.09l12.47,29.57,4.69-29.57h6.98l-6.46,40.89h-7.89l-13.44-31.34-4.92,31.34h-6.98l6.46-40.89Z"/>
    <path class="cls-7" d="M292.86,170.77h-15.61l-4.8,10.12h-7.32l20.13-40.89h9.95l7.03,40.89h-7.72l-1.66-10.12ZM279.87,165.22h12.13l-3.03-18.99-9.09,18.99Z"/>
    <path class="cls-7" d="M324.26,140h7.72l5.43,33.17,15.9-33.17h7.38l-20.3,40.89h-8.87l-7.26-40.89Z"/>
    <path class="cls-7" d="M366.52,140h7.66l-6.46,40.89h-7.66l6.46-40.89Z"/>
    <path class="cls-7" d="M383.91,140h13.44c8.24,0,13.56,3.83,13.44,10.87,0,7.21-4.69,11.27-10.81,12.35l9.15,17.67h-7.95l-8.52-16.53h-5.03l-2.57,16.53h-7.61l6.46-40.89ZM394.78,158.93c5.61,0,8.52-2.4,8.52-7.49.06-3.83-2.34-5.55-6.75-5.55h-5.95l-2.12,13.04h6.29Z"/>
    <path class="cls-7" d="M427.09,146.01h-11.38l.97-6.01h30.43l-1.03,6.01h-11.32l-5.49,34.89h-7.66l5.49-34.89Z"/>
    <path class="cls-7" d="M449.11,164.14l3.83-24.14h7.66l-3.89,24.31c-1.26,7.84,1.32,11.04,7.61,11.04,5.55,0,8.41-2.92,9.55-10.01l4.06-25.34h7.66l-4.18,26.14c-1.54,9.78-6.92,15.33-17.33,15.33-11.09,0-16.87-5.83-14.98-17.33Z"/>
    <path class="cls-7" d="M510.83,170.77h-15.61l-4.8,10.12h-7.32l20.13-40.89h9.95l7.03,40.89h-7.72l-1.66-10.12ZM497.84,165.22h12.13l-3.03-18.99-9.09,18.99Z"/>
    <path class="cls-7" d="M532.39,140h7.61l-5.49,34.83h17.44l-.97,6.06h-25.05l6.46-40.89Z"/>
  </g>
  <g>
    <path class="cls-7" d="M79.18,92.53h1.51l-4.74,29.99h-1.51l4.74-29.99Z"/>
    <path class="cls-7" d="M86.01,106.42c.46-2.89.55-4.45.63-5.83h1.38c-.04,1.13-.17,2.94-.46,4.82,1.47-2.81,4.45-5.16,8.47-5.16,4.78,0,7.68,3.02,6.71,9.23l-2.06,13.05h-1.47l2.1-13.26c.84-5.24-1.47-7.76-5.5-7.76s-8.01,2.77-8.81,7.84l-2.1,13.17h-1.43l2.52-16.11Z"/>
    <path class="cls-7" d="M106.27,116.07h1.38c.25,3.48,2.27,5.62,6.71,5.62,3.52,0,6.21-1.64,6.21-5.03,0-2.6-1.51-3.69-5.45-4.78-4.45-1.26-6.5-2.6-6.5-5.79,0-3.86,3.36-5.79,7.22-5.79s6.92,1.55,7.26,5.71h-1.38c-.25-2.89-2.27-4.49-5.92-4.49-3.31,0-5.79,1.47-5.79,4.53,0,2.39,1.51,3.4,5.58,4.57,4.19,1.17,6.42,2.43,6.42,6,0,4.11-3.44,6.29-7.68,6.29-4.91,0-7.84-2.43-8.05-6.84Z"/>
    <path class="cls-7" d="M127.96,117.03l2.43-15.23h-3.31l.21-1.22h3.27l.8-4.99h1.43l-.8,4.99h6.12l-.21,1.22h-6.08l-2.43,15.27c-.5,3.23.71,4.49,3.06,4.49,1.05,0,1.97-.17,2.73-.46l-.21,1.22c-.67.29-1.59.5-2.68.5-3.31,0-4.87-2.1-4.32-5.79Z"/>
    <path class="cls-7" d="M142.43,106.42c.46-2.89.55-4.45.63-5.83h1.38c-.04,1.13-.17,2.98-.5,5.03,1.47-2.94,3.94-5.16,8.43-5.24l-.21,1.3c-4.32.17-7.93,2.64-8.89,8.77l-1.93,12.08h-1.43l2.52-16.11Z"/>
    <path class="cls-7" d="M171.5,116.65c-.42,2.6-.5,4.61-.55,5.87h-1.38c0-1.3.17-3.1.42-4.82-1.51,2.85-4.45,5.16-8.43,5.16-4.78,0-7.63-3.1-6.63-9.23l2.06-13.05h1.43l-2.1,13.21c-.84,5.2,1.38,7.8,5.41,7.8s7.97-2.81,8.77-7.84l2.1-13.17h1.43l-2.52,16.07Z"/>
    <path class="cls-7" d="M177.49,112.84c0-7.17,4.78-12.54,11.33-12.54,4.61,0,8.01,2.73,8.31,7.17h-1.43c-.21-3.65-2.94-5.96-6.96-5.96-5.92,0-9.77,4.95-9.77,11.33,0,5.41,3.23,8.77,8.22,8.77,4.03,0,7.17-2.22,8.22-6.38h1.38c-1.13,4.99-4.95,7.59-9.61,7.59-6.04,0-9.69-4.11-9.69-9.98Z"/>
    <path class="cls-7" d="M201.86,117.03l2.43-15.23h-3.31l.21-1.22h3.27l.8-4.99h1.43l-.8,4.99h6.12l-.21,1.22h-6.08l-2.43,15.27c-.5,3.23.71,4.49,3.06,4.49,1.05,0,1.97-.17,2.73-.46l-.21,1.22c-.67.29-1.59.5-2.68.5-3.31,0-4.87-2.1-4.32-5.79Z"/>
    <path class="cls-7" d="M217.34,100.59h1.47l-3.48,21.94h-1.43l3.44-21.94ZM217.84,94.67c0-.59.5-1.09,1.13-1.09s1.09.5,1.09,1.09-.5,1.13-1.13,1.13-1.09-.5-1.09-1.13Z"/>
    <path class="cls-7" d="M223.08,100.59h1.47l4.87,20.51,10.99-20.51h1.51l-11.75,21.94h-1.93l-5.16-21.94Z"/>
    <path class="cls-7" d="M242.8,112.92c0-6.75,4.45-12.63,11.45-12.63,5.91,0,9.44,4.53,9.44,9.9,0,7.09-4.36,12.63-11.33,12.63-5.75,0-9.56-4.4-9.56-9.9ZM262.22,110.19c0-4.7-2.85-8.68-8.01-8.68-6.29,0-9.94,5.24-9.94,11.41,0,4.74,3.06,8.68,8.14,8.68,6.08,0,9.82-4.99,9.82-11.41Z"/>
  </g>
</svg>