<?xml version="1.0" encoding="UTF-8"?>
<svg id="Capa_1" data-name="Capa 1" xmlns="http://www.w3.org/2000/svg" xmlns:xlink="http://www.w3.org/1999/xlink" viewBox="0 0 325 551">
  <defs>
    <style>
      .cls-1 {
        fill: #4e9ac8;
      }

      .cls-1, .cls-2, .cls-3, .cls-4, .cls-5, .cls-6, .cls-7, .cls-8, .cls-9, .cls-10, .cls-11, .cls-12, .cls-13, .cls-14, .cls-15, .cls-16, .cls-17, .cls-18, .cls-19, .cls-20, .cls-21, .cls-22, .cls-23, .cls-24, .cls-25, .cls-26, .cls-27, .cls-28, .cls-29, .cls-30, .cls-31, .cls-32, .cls-33, .cls-34, .cls-35, .cls-36, .cls-37, .cls-38, .cls-39, .cls-40, .cls-41, .cls-42, .cls-43, .cls-44, .cls-45, .cls-46 {
        stroke-width: 0px;
      }

      .cls-2 {
        fill: #444e52;
      }

      .cls-3 {
        fill: #564635;
      }

      .cls-4 {
        fill: #70848f;
      }

      .cls-5 {
        fill: #a68264;
      }

      .cls-6 {
        fill: #2a3035;
      }

      .cls-7 {
        fill: #806446;
      }

      .cls-8 {
        fill: #44a5d3;
      }

      .cls-9 {
        fill: #593f2b;
      }

      .cls-10 {
        fill: #946d55;
      }

      .cls-11 {
        fill: #54402f;
      }

      .cls-12 {
        fill: #2a333c;
      }

      .cls-13 {
        fill: #35312a;
      }

      .cls-14 {
        fill: #6d838f;
      }

      .cls-15 {
        fill: #af8c70;
      }

      .cls-16 {
        fill: none;
      }

      .cls-47 {
        filter: url(#drop-shadow-1);
      }

      .cls-17 {
        fill: #026591;
      }

      .cls-18 {
        fill: #89694b;
      }

      .cls-19 {
        fill: #80694f;
      }

      .cls-20 {
        fill: #86664e;
      }

      .cls-21 {
        fill: #ac856b;
      }

      .cls-22 {
        fill: #795840;
      }

      .cls-23 {
        fill: #72573e;
      }

      .cls-24 {
        fill: #c59e87;
      }

      .cls-25 {
        fill: #4e3a24;
      }

      .cls-26 {
        fill: #2d2214;
      }

      .cls-27 {
        fill: #413d35;
      }

      .cls-28 {
        fill: #453329;
      }

      .cls-29 {
        fill: #8c6a51;
      }

      .cls-30 {
        fill: #835d43;
      }

      .cls-48 {
        clip-path: url(#clippath);
      }

      .cls-31 {
        fill: #bd957c;
      }

      .cls-32 {
        fill: #9d7b5a;
      }

      .cls-33 {
        fill: #a87866;
      }

      .cls-34 {
        fill: #88604c;
      }

      .cls-35 {
        fill: #2a261f;
      }

      .cls-36 {
        fill: #a7816c;
      }

      .cls-37 {
        fill: #6c4e34;
      }

      .cls-38 {
        fill: #927357;
      }

      .cls-39 {
        fill: #22201a;
      }

      .cls-40 {
        fill: #b28c6e;
      }

      .cls-41 {
        fill: #705437;
      }

      .cls-42 {
        fill: #483724;
      }

      .cls-43 {
        fill: #917056;
      }

      .cls-44 {
        fill: #ac8471;
      }

      .cls-45 {
        fill: #f6f5f9;
      }

      .cls-46 {
        fill: #181a19;
      }
    </style>
    <filter id="drop-shadow-1" filterUnits="userSpaceOnUse">
      <feOffset dx="15" dy="0"/>
      <feGaussianBlur result="blur" stdDeviation="20"/>
      <feFlood flood-color="#000" flood-opacity=".5"/>
      <feComposite in2="blur" operator="in"/>
      <feComposite in="SourceGraphic"/>
    </filter>
    <clipPath id="clippath">
      <rect class="cls-16" x="2439" y="41" width="982" height="796"/>
    </clipPath>
  </defs>
  <g class="cls-47">
    <g class="cls-48">
      <g>
        <path class="cls-8" d="M-44.45-2259.1c-1923.33,0-3482.49,1571.3-3482.49,3509.6S-1967.78,4760.1-44.45,4760.1s3482.49-1571.3,3482.49-3509.6S1878.87-2259.1-44.45-2259.1h0Z"/>
        <path class="cls-17" d="M-106.28-2247.1c-1931.67,0-3497.6,1565.93-3497.6,3497.6S-2037.95,4748.1-106.28,4748.1s3497.6-1565.93,3497.6-3497.6S1825.39-2247.1-106.28-2247.1h0Z"/>
        <circle class="cls-45" cx="-175.34" cy="1250.5" r="3509.6"/>
      </g>
    </g>
  </g>
  <path class="cls-46" d="M301.47,469.71c4.42,7.93,6.2,16.85,9.5,25.19.55,1.38,1.1,2.76,1.65,4.14,2.58,4.66,2.25,9.26.54,14.24-2.17,6.32-4.36,12.66-6.1,19.13-.39,1.46-.93,2.86-2.19,3.84H3.4c-.29-.37-.56-.77-.39-1.26,3.93-11.86,4.63-24.41,7.86-36.42,1.35-5.01,2.64-10.01,5.21-14.56,1.56-2.76,1.98-5.89,2.99-8.82,3.61-10.53,8.71-20.24,16-28.72.6-.7,1.12-1.58,1.97-1.92,3.45-1.36,5.94-3.94,8.41-6.51,4.85-5.06,11.44-7.26,17.31-10.65,1.61-.93,3.21-1.83,4.52-3.16,1.48-1.51,3.02-2.87,5.33-2.81.46.01.96-.14,1.28-.46,5.48-5.37,13.3-6.24,19.54-10.12,5.97-3.71,12.68-5.86,18.84-9.16,2.14-1.14,4.22-1.03,6.02.81,3.04,4.47,5.27,9.45,8.63,13.74.99,1.27,1.83,2.67,3.04,3.75,8.93,7.94,18.69,14.49,30.85,15.94,11.36,1.35,21.36-2.38,30.02-9.76,5.73-4.88,9.03-11.27,11.36-18.27.47-1.42.74-2.91,1.41-4.27,1.89-5.43,2.66-5.6,7.9-2.96,6.47,3.25,13.31,5.67,19.95,8.53,6.39,2.76,13.24,4.75,18.82,9.28,3.32,2.69,7.3,4.47,10.72,6.99,4.18,3.07,8.85,5.34,13.07,8.14,6.03,4,12.67,7.61,16.36,14.78,2.13,4.14,4.89,7.94,6.38,12.48,1.04,3.16,2.49,6.22,4.66,8.84Z"/>
  <path class="cls-6" d="M117.81,403.15c-1.73-1.63-3.4-1.62-5.57-.48-3.64,1.91-7.13,4.18-11.33,4.94-2.5.45-4.07,2.78-6.39,3.91-5.18,2.52-10.59,4.46-15.81,6.85-1.22.56-2.18,1.32-2.95,2.29-1.07,1.35-2.11,2.48-4.01,1.77-.97-.36-1.56.19-2.08.81-3.37,4.03-8.08,6.04-12.63,8.19-5.39,2.54-10.11,5.83-13.85,10.5-.34.43-.87.8-1.39.99-6.07,2.25-8.66,7.89-12.16,12.58-2.28,3.06-4.49,6.09-5.37,10.15-.74,3.45-4.09,6.1-4.64,9.87-.38,2.63-.76,5.24-2.1,7.59-7.58,13.29-8.53,28.33-11.41,42.86-.69,3.47-1.8,6.86-2.72,10.28h-1.39c4.29-12.07,4.88-24.94,8.18-37.23,2.03-7.57,4.37-15.01,7.34-22.25,1.53-3.73,3.23-7.38,3.96-11.39,1.67-8.3,6.22-15.2,10.41-22.38,5.7-9.77,15.42-13.33,24.72-17.91,14.18-6.97,28.53-13.6,42.63-20.72,4.79-2.42,10.08-4.05,14.17-7.8.59-.54,1.4-.8,2.23-.87.76.01,1.39.25,1.69,1.01-.38,2.18,1.77,4.17.47,6.42Z"/>
  <path class="cls-1" d="M115.65,396.2c-10.47,7.1-22.08,12-33.48,17.31-9.47,4.41-18.75,9.24-28.12,13.85-1.96.96-3.98,1.8-5.99,2.67-12.2,5.24-17.56,16.28-23.01,27.22-1.32,2.65-2.38,5.43-3.56,8.14-.04-6-.11-12-.11-17.99,0-84.41.02-168.83-.02-253.24-.01-27.37,6.98-52.74,21.78-75.76,19.98-31.07,47.89-51.44,83.79-60.43,36.91-9.24,72.05-4.11,104.81,14.99,28.07,16.36,47.84,40.1,59.56,70.52,6.35,16.48,9.26,33.53,9.27,51.11.03,88.8,0,177.6,0,266.4,0,1.5,0,2.99,0,4.49-2.98-1.87-3.39-5.29-4.65-8.1-3.32-7.42-7.49-14.29-12.35-20.78-.85-1.14-1.87-2.04-3.2-2.56-10.48-4.1-19.91-10.18-29.65-15.66-8.43-4.75-17.34-8.46-26.29-12.11-7.03-2.87-13.91-6.13-20.28-10.34-1.12-.87-2.52-1.09-3.76-1.66-3.12-1.41-5.29-3.54-5.3-7.32,0-3.68.08-7.37.02-11.05-.03-1.91.65-3.65,1.61-5.22,3.76-6.11,5.53-12.81,6-19.9.15-2.16,1.13-3.64,3.07-4.62,2.27-1.14,3.47-2.96,4.12-5.54,1.88-7.41,2.51-14.86,2.05-22.47-.16-2.63.98-5.18,1.26-7.81,1.34-6.75,3.18-13.44,2.67-20.43-.16-2.11.3-4.15.88-6.13,1.56-5.32-.13-9.71-3.66-13.62-1.16-1.28-2.51-2.38-3.56-3.76-3.62-4.59-5.25-10.29-8.49-15.14-3.88-5.81-9.62-8.94-15.73-11.31-12-4.65-24.3-7.05-37.08-2.99-1.55.49-3.02,1.1-4.45,1.83-1.36.62-2.71,1.29-4.06,1.95-3.87,1.9-6.53,4.74-7.1,9.16-.45,3.51-2.39,5.51-5.76,6.53-8.8,2.68-13.3,9.94-17.66,17.18-2.79,4.64-5.33,9.43-6.14,14.94-.26,1.75-.22,3,1.19,4.31,2.65,2.45,4.51,5.52,5.82,8.9.49,2.34,0,4.43-.96,6.67-2.02,4.71-3.09,9.74-1.65,14.81,1.26,4.41.44,8.95,1.36,13.38.85,4.1,1.54,7.87,6.45,9.15,2.12.55,3.14,2.49,3.39,4.79.46,4.24,1.14,8.44,3.04,12.34.39,2.58,2.45,4.47,2.99,6.93,1.34,6.08,1.91,12.26,1.48,18.49-.21,3.04-4.2,6.57-7.89,7.35-.89.19-1.86-.03-2.68.52Z"/>
  <path class="cls-12" d="M204.99,395.72c6.6,3.4,13.04,7.16,19.98,9.83,14.21,5.48,27.56,12.58,40.62,20.35,4.53,2.7,9.46,4.75,14.29,6.91,1.84.83,3.29,1.82,4.58,3.44,7.07,8.82,11.44,19.1,16.11,29.23.3,1.41.6,2.81.9,4.22-4.49-2.84-5.08-7.92-6.96-12.24-.31-.71-.09-1.76-.55-2.28-3.93-4.51-6.14-10.3-10.68-14.36-.97-.87-1.85-1.7-3.28-1.61-1.17.07-2.02-.63-2.52-1.56-1.49-2.78-4-4.17-6.88-4.79-5.27-1.13-7.92-6.07-12.5-8.24-6.42-3.04-11.46-8.35-18.32-10.85-7.3-2.67-14.36-6-21.65-8.76-2.68-1.02-5.45-2.28-7.89-3.96-3.24-2.23-4.33-1.84-5.23,2.01-.07.3-.4.54-.6.81-1.59-2.32-1.13-4.97-1.22-7.53.41-.77.83-1.5,1.8-.61Z"/>
  <path class="cls-15" d="M203.57,396.33c1.24,2.4.72,5,.83,7.52-2.45,8.22-5.43,16.09-11.95,22.2-13.19,12.37-32.96,14.23-48.67,5.24-11.77-6.74-20.14-16.16-25.97-28.15.23-2.18-2.67-3.86-1.02-6.27,2.77-1.86,5.53-3.76,8.79-4.74.86,1.15.64,2.42.35,3.66-.76,3.32.31,6.4,1.16,9.51.46,1.7,1.36,2.04,3.1,1.4,2.96-1.08,3.86-.45,4.35,2.79.27,1.79.62,3.37,2.85,2.94,6.58-1.26,9.84,3.31,13.26,7.49,1.58,1.94,2.53,4.28,4.61,5.97,2.76,2.24,5.93,2.92,9.21,3.58,2.64.53,4.52-.47,5.67-2.84,1.36-2.8,2.65-5.64,3.6-8.61,1.01-3.15,2.49-5.89,5.53-7.64,1.79-1.04,2.99-2.86,4.49-4.28,2.91-2.76,5.08-7.43,10.53-4.17,1.15.69,1.26-.93,1.42-1.75.51-2.62-.38-5.27.11-7.91,2.92.7,5.64,1.78,7.74,4.05Z"/>
  <path class="cls-4" d="M125.39,392.13c-2.59,2.08-5.45,3.68-8.6,4.75-.15-.61-.72-.52-1.14-.68.31-.33.56-.85.94-.96,10.89-3.45,8.68-6.9,8.57-16.06-.07-5.75-2.25-10.84-4.05-16.08.17-.08.33-.16.5-.24,3.26,3.26,4.73,7.34,5.4,11.79.28,4.07,1.15,8.09.81,12.2-.17,2.07-.29,4.12-2.42,5.28Z"/>
  <path class="cls-27" d="M143.36,238.2c7.99-4.51,16.67-4.99,25.41-3.74,9.5,1.36,18.51,4.45,26.75,9.5,2.52,1.54,4.12,3.99,5.94,6.19,3.67,4.43,4.61,10.44,8.43,14.81.17.2.03.67.03,1.01-.15.07-.3.14-.45.21-.32-.07-.61-.22-.86-.45-1.11-1.31-2.29-2.56-3.61-3.66-.9-.75-1.89-1.67-1.71-2.84.57-3.66-1.99-5.54-4.27-7.28-3.08-2.34-6.04-4.92-9.54-6.68-.87-.47-1.71-.98-2.37-1.72-2.13-2.88-5.16-4.26-8.52-5.07-3.1-.65-6.22-1.12-9.35-1.6-2.8-.53-5.57-1.33-8.46-1.1-4.1.33-6.75,5.11-4.93,8.75.47.94,1.5.95,2.24,1.44,2.42,1.58,4.64,3.34,4.78,6.59-.05.34-.15.66-.28.97-3.25,3.67-8.29,2.93-10.21-1.55-.55-1.27-1.01-2.55-1.95-3.62-3.42-3.89-3.5-4.85-.95-9.41-2.1-1.39-4.1,1.54-6.14.14-.2-.31-.21-.61.01-.91Z"/>
  <path class="cls-2" d="M143.36,238.2c.03.26.07.53.1.79.15.84-.4,1.35-1,1.65-2.35,1.18-4,2.72-3.48,5.66.1.57-.14,1.28-.63,1.54-2.78,1.45-3.76,4.2-5.12,6.72-.86,1.6-2.46,2.34-4.21,2.79-5.65,1.47-10.45,4.23-13.76,9.22-4.12,6.23-8.46,12.32-10.51,19.68-.75,2.7-.3,4.82,1.45,7.05,3.04,3.88,6.36,7.74,6.25,13.16-.04,1.32.15,2.68-.75,3.82-.35.25-.72.27-1.1.08-1.31-1.12-1.07-2.5-.92-4.01.17-1.64.42-3.35-.22-4.98-2.34-3.2-3.98-6.93-7.35-9.35-.64-.46-.4-1.52-.23-2.32,2.52-12.13,8.8-22.15,17.65-30.6,2.14-2.05,5.13-3.1,8.04-3.89,2.13-.58,3.68-1.83,3.85-3.95.6-7.52,5.57-10.89,11.92-13.09Z"/>
  <path class="cls-14" d="M203.57,396.33c-2.59-1.24-5.3-2.27-7.52-4.19-3.72-2.32-2.86-6.08-2.69-9.43.11-2.05.47-4.08.11-6.14-.15-.96.08-1.85.53-2.69,2.15-3.92,3.45-8.24,5.58-12.18.89-3.63,1.67-7.28,1.76-11.04,0-.94.1-1.87.43-2.76.58-1.25,1.56-2.13,2.65-2.91,4.89-2.17,4.96-6.96,5.53-11.1.74-5.4,1.67-10.88.68-16.39.54-2.13.22-4.47,1.52-6.42.52-.58,1.08-1.06,1.94-.69-2.04,10.19-.05,20.78-3.27,30.9-.91,2.85-2.37,4.6-4.8,5.76-1.55.74-2.26,1.75-2.33,3.44-.33,7.34-2.37,14.12-6.01,20.56-3.25,5.74-1.47,12.18-1.26,18.29.06,1.82,2.27,3.57,4.6,4.19,1.47.39,3.32.25,3.99,2.18-.59-.05-1.09.09-1.42.61Z"/>
  <path class="cls-4" d="M109.48,301.39c1.59,2.76-.12,6.02,1.34,8.79-2.76,3.67-2.98,7.76-2.05,12.05.8,4.88,1.14,9.82,1.5,14.74.29,3.92,1.99,6.22,5.7,7.18,2.96,1.14,4.15,3.42,4.15,6.46,0,3.47.66,6.82,1.66,10.13.14.8.13,1.58-.48,2.22,0,0-.18.14-.18.14-2.58-3.61-2.83-7.91-3.27-12.06-.29-2.74-1.41-4.26-3.95-4.87-2.76-.66-4.37-2.41-4.98-5.12-.43-1.9-1.12-3.81-1.12-5.72,0-7.65-3-15.15-1.07-22.87.44-1.75.45-3.64,1.83-5.1,1.64-1.73.6-3.98.94-5.97Z"/>
  <path class="cls-13" d="M214.07,310.4c-.45.28-.91.57-1.36.85-.7,3.96-3.91,7.01-4.03,11.17-.02.81-.36,1.56-.54,2.34-.25,1.09-.32,2.54-1.86,2.39-1.25-.12-1.37-1.41-1.42-2.43-.07-1.63-.67-3.12-1.12-4.65-.08-2.03-1.4-3.98-.36-6.07,2.67-.3,1.85,2.27,2.96,3.52,1.58-1.41,2.88-2.96,3.04-5.26.05-.8.39-1.61.89-2.24,4.6-5.81,4.95-12.68,4.93-19.64,0-2.54.13-5.06.49-7.59.65-4.61-.51-8.63-3.96-11.99-1.27-1.24-3.45-2.26-2.5-4.77.23-.02.45-.04.67-.06,6.7,5.24,10.48,11.5,7.29,20.33-.41,1.13-.29,2.51-.23,3.76.34,6.97-1.25,13.65-2.91,20.33Z"/>
  <path class="cls-32" d="M194.07,376.19c1.05,2.05.55,4.15.26,6.27-.46,3.4-.19,6.7,1.71,9.69.98,3.5,1.15,7.01.07,10.52-.26.84-.44,2.1-1.76,1.15-1.15-.83-1.64-2.85-3.46-2.4-2.04.5-3.74,2.01-5.03,3.5-2.49,2.89-4.88,5.69-8.25,7.69-1.75,1.04-2.34,3.38-2.92,5.35-.98,3.33-2.45,6.43-3.95,9.53-1.33,2.75-3.4,3.6-6.5,2.93-3.7-.8-7.2-1.73-10.25-4.19-1.91-1.53-2.77-3.64-3.87-5.58-1.86-3.27-4.98-5.01-7.77-7.17-1.17-.9-2.58-.55-3.98-.21-3.74.9-4.46.3-4.68-3.48-.19-3.24-1.01-3.74-3.63-1.89-2.65,1.87-3.28-.18-3.85-1.9-1.5-4.53-1.91-9.17-.83-13.87,2.19-4.04,1.48-8.39,1.11-12.62-.16-1.8-.43-3.58-.37-5.4,1.08-.31,1.59.44,2.13,1.14,2.08,4.18,2.46,8.82,3.49,13.27.42,1.84.91,3.48,2.05,5.01,4.53,6.12,9.33,11.93,15.87,16.1,2.26,1.44,3.53,3.92,5.02,6.1,1.2,1.75,2.47,2.3,4.27.85,1.8-1.45,3.83-1.96,6.15-1.5,2.25.45,4.15-.31,5.34-2.3,1.16-1.95,2.93-3.16,4.61-4.57,4.51-3.8,8.51-8.26,10.93-13.58,2.64-5.81,6.31-11.25,7.4-17.73.17-.31.41-.55.71-.72Z"/>
  <path class="cls-41" d="M127.47,375.47c-.45-.45-.9-.91-1.34-1.36-.88-4.03-2.65-7.68-4.84-11.15-.04-.7-.08-1.4-.12-2.11-.36-.87-.71-1.96.09-2.53,1.06-.75,2.06.22,2.63.97,2.86,3.79,7.13,6.19,9.17,10.94,2.5,5.81,7.48,9.07,14.01,9.85,4.91.58,9.38,3.11,14.35,3.71,1.55.19,2.75-.04,4.22-.67,3.5-1.5,7.4-1.94,11.11-1.99,6.05-.08,10.38-1.6,12.91-7.78,1.71-4.19,5.37-7.42,8.15-11.09.61-.81,1.63-1.83,2.44,0-1.83,3.96-3.66,7.93-5.49,11.89-1.54-.41-2.14.84-2.58,1.78-2.63,5.63-7.24,8.27-13.19,8.54-3.8.17-6.97,2.23-10.51,2.92-6.86,1.35-13.45-.46-19.92-2.64-.75-.25-1.42-.85-2.25-.83-5.71.14-9.76-2.85-13.4-6.82-1.12-1.22-2.26-3.32-4.52-1.51-.33.15-.63.11-.91-.12Z"/>
  <path class="cls-35" d="M111.57,306.2c-.05-5.51-3.65-9.27-6.77-13.16-1.49-1.86-1.84-3.51-1.24-5.68,2.74-9.92,7.99-18.42,14.96-25.84,2.61-2.77,6.3-4.16,10-4.95,2.89-.62,4.41-2.21,5.14-4.87.06-.22.1-.46.09-.68-.09-3.06,5.42-2,4.26-6.34-1.04-3.87,3.64-3.72,5.45-5.68,2.25-.15,4.08-2,6.55-1.45,1.53.34,1.73.73.78,1.95-3.06,3.92-3.03,4.69.35,8.23.81.85,1.44,1.79,1.81,2.88,1.67,4.84,5.15,5.95,9.14,2.89,2.12,1.22,4.05-.02,5.96-.6,2.64-.8,4.77-.74,5.99,2.17.33.78.9,1.39,1.75,1.54,3.58.63,6.47,2.92,9.88,4.03,6.79,2.21,11,7.74,15.62,12.68.94,1,1.81,2.1,2.6,3.22,1.22,1.74,2.56,2.26,4.71,1.45,2.7-1.02,3.52-.23,4.34,2.62.86,2.98.85,5.2-2.12,7.34-4.7,3.38-5.12,9.19-6.77,14.23-.38,1.16.03,2.58-1.19,3.46-2.35-2.57-3.15-9.08-1.06-12.15,1.77-2.6,1.55-5.74,2.98-8.42.79-1.48-.7-2.88-1.91-3.71-3.27-2.24-5.37-5.34-6.97-8.85-.7-1.53-1.95-2.51-3.21-3.54-5.68-4.69-11.9-7.34-19.45-5.6-3.65.84-7.03-.91-10.55-1.38-4.46-.6-8.86-1.14-13.36-.03-2.19.55-4.51.59-6.85.24-3.84-.58-7.17,1.2-10.46,2.89-5.95,3.28-10.19,8.51-12.98,14.27-1.57,3.24-1.45,8.56-.1,11.85,2.32,5.63.84,10.83.86,16.22-.43,1.31-.39,2.71-.72,4.05-.49,1.42-.95,3.26-2.73,3.06-2.35-.26-3.07-2.56-3.78-4.44-.46-1.23-.06-2.75-1.01-3.91Z"/>
  <path class="cls-39" d="M202.98,305.5c-.09-3.25.19-6.42,2.15-9.2.32-.45.61-1.09.56-1.6-.44-4.45,3.37-6.11,5.79-8.56,1.09-1.1,2.19-1.5.87-3.11-.37-.45-.33-1.32-.32-2,.02-2.86-1.14-3.77-3.58-2.04-2.22,1.58-3.37.53-4.81-1.23-4.94-6.02-9.45-12.72-17.03-15.68-3.9-1.52-7.32-4.38-11.76-4.51-.9-.03-1.47-.7-1.57-1.58-.37-3.26-2.26-3.2-4.68-2.25-1.38.55-2.86.85-4.22,1.43-1.83.78-2.3-.04-2.28-1.67,0-.23,0-.45,0-.68,3.32-9.25,10.69-12.35,19.77-8.51,4.62,1.95,8.99,4.18,12.12,8.24.7.91,2.22,1.91,1,3.19-1.01,1.07-2.36.3-3.49-.33-1.77-.98-3.59-1.85-5.77-2.51,4.73,1.87,9.03,3.99,12.25,7.8.58.69,1.25,1.35,2.34,1.17,3.85-.61,6.42,1.61,8.86,4.09,0,0,.05.07.05.08.25,2.07,2,3.06,3.32,4.24,3.83,3.42,4.84,7.81,4.15,12.51-.4,2.76-.74,5.5-.51,8.22.47,5.4-1.43,10.41-2.11,15.61-.12.91-.6,1.27-1.32,1.78-1.72,1.22-2.83,3.03-2.52,5.16.19,1.29-.15,2.12-1.09,2.59-1.69.84-2.24,2.18-2.01,4.33-2.78-1.76-1.67-4.94-3.42-6.68-.61-.11-1.02-.46-1.29-1-.24-.54-.35-1.1-.37-1.68.13-1.89-.57-3.92.9-5.6Z"/>
  <path class="cls-13" d="M209.19,265.96c-2.23-1.18-4.45-2.36-6.68-3.53-.29-.15-.85-.38-.91-.29-2.61,3.51-3.64-.24-4.62-1.3-3-3.23-6.72-5.11-10.66-6.76-1.11-.47-2.43-.7-3.26-2.27,4.54-.34,7.77,2.97,12.58,4.07-5.61-7.23-11.92-11.38-20.2-12.05-5.23-.42-9.2,1.56-11.46,6.53-.41.91-1.23,1.64-1.86,2.46-.7-3.06-2.09-5.55-5.47-6.23-.84-.17-1.87-.34-1.89-1.19-.05-2.43-.42-5.11.46-7.21.95-2.24,3.17-3.74,6.18-3.44,2.61.27,5.17.55,7.64,1.43-.86,1.01-2.07.89-3.2.96-1.4.09-2.76.31-4,.98-1.48.8-4.01,1.48-3.52,3.23.56,2.02,2.76.34,4.2.24,8.33-.56,16.59-.71,24.42,2.9.95.44,1.89.94,2.87.05,4.4,2.49,8.47,5.43,12.11,8.95,1.48,1.43,3.16,2.68,2.08,5.28-.47,1.13.77,1.94,1.64,2.76,1.38,1.3,3.29,2.24,3.56,4.44Z"/>
  <path class="cls-39" d="M189.8,244.53c.04,1.64-.38,2.49-2.21,1.5-8.71-4.7-17.97-4.31-27.35-2.98-1.09.15-2.49,1.42-3.37-.28-.88-1.71.3-2.85,1.48-3.8,3.13-2.51,6.79-3.15,10.69-2.79,3.52-.05,6.91.84,10.33,1.51,2.37,2.46,6.04,2.92,8.37,5.45.69.46,1.38.93,2.06,1.39Z"/>
  <path class="cls-13" d="M187.74,243.14c-2.46-1.14-4.92-2.28-7.39-3.42-.89-.41-.89-1.24-.98-2.03,3.23,1.13,6.48,2.24,8.37,5.45Z"/>
  <path class="cls-30" d="M108,322.21c-1.51-3.42-.56-6.84.14-10.22.27-1.3,1.98-.9,2.68-1.81.19.1.4.16.61.18,2.8,2.5,4.39,5.47,3.88,9.37-.32,2.41.44,4.82.16,7.24-.53,1.21-2.15,1.75-1.98,3.44.08.79-.28,1.63-1.33,1.7-.76.05-1.27-.43-1.74-.96-1.98-2.23-1.86-6.53.25-8.66.32-.33.69-.61.98-.97.66-.84,1.13-1.75.75-2.85-.17-.48-.59-.75-1.08-.63-1.14.26-1,1.4-1.41,2.17-.44.85-.44,2.14-1.92,1.99Z"/>
  <path class="cls-42" d="M115.01,327.65c-.51-2.45-1.31-5-.65-7.41,1.1-4.03-2.13-6.54-2.92-9.87.05-1.39.09-2.78.14-4.17,1.01.7,1.97,1.23,1.71,2.9-.3,1.92,1.17,3.51,2.46,4.49,1.89,1.44,1.67-1.28,2.6-1.9.34.22.59.52.75.9.89,3.16-.63,6.17-.61,9.28-.5,2.1-1,4.2-1.23,6.36-.1.87-.13,2.13-1.23,2.12-1.13-.01-1.11-1.22-1.12-2.14.03-.19.06-.37.09-.56Z"/>
  <path class="cls-7" d="M200.24,362.25c-.64-.68-1.33-.53-1.7.17-2.59,4.97-7.21,8.48-9.36,13.85-1.83,4.57-6.35,6.02-11.28,5.88-4.32-.12-8.9.01-12.79,2.46-1.84,1.16-3.46.17-4.97-.21-6.49-1.62-13.02-3.09-19.36-5.27-4.83-1.66-7.13-5.63-9.3-9.67-1.08-2.02-1.64-3.97-4.18-5.03-1.66-.69-2.63-3-4-4.5-.47-.51-.9-1.64-1.82-1.04-.37.24-.22,1.28-.31,1.95-1.71-3.09-2.1-6.49-2-9.91.08-2.83-.73-4.94-3.49-6.02-.34-1.59.59-2.87,1.02-4.28,1.07-1.14.57-2.94,1.68-4.06,1.89.16,1.54,1.73,1.65,2.85.41,4.17,1.03,8.02,4.89,10.83,2.03,1.48,3.56,3.84,4.2,6.57.5,2.12,2.23,3.53,3.92,4.64,2.47,1.62,4.71,3.52,6.02,6.05,2.42,4.67,7.62,6.09,10.77,9.89,1.07,1.29,3.19,1.14,4.8,1.75,5.15,2.62,10.42,3.47,15.98,1.32,1.29-.5,2.66-1.05,4.02-.94,3.55.3,6.12-1.32,8.58-3.62,1.25-1.17,2.15-2.29,2.3-4.04.22-2.61,1.66-4.47,3.9-5.78,2.61-1.53,4.17-3.52,4.61-6.79.62-4.58,3.89-7.3,8.19-8.77.05,4.02-.61,7.92-1.97,11.71Z"/>
  <path class="cls-25" d="M128.17,375.46c.09-2.84,1.66-2.45,3.13-1.22,1.85,1.55,3.5,3.35,5.18,5.1,1.49,1.55,3.25,2.76,5.33,3.01,7.55.92,14.49,4.66,22.19,4.71,1.92.01,4.4.27,5.67-.76,3.87-3.12,8.51-2.16,12.73-3.19,3.73-.91,6.43-2.96,8.13-6.34.74-1.47,1.59-2.86,2.91-3.81,1.92-1.39.91.72,1.31,1.17-.32.65-.87,1.23-.68,2.05-.05.22-.09.44-.11.67-.77.85-1.08,2.01-1.9,2.83-3.69,4.11-7.7,7.97-11,12.39-2.33,3.12-5.68,3.85-8.91,4.79-5.2,1.51-10.08,4.82-15.96,3.08-5.11-1.52-9.85-3.97-14.28-6.73-2.9-1.8-4.11-5.69-6.47-8.37-1.22-1.39-2.28-2.89-3.97-3.77-2.03-1.32-2.4-3.62-3.3-5.61Z"/>
  <path class="cls-38" d="M202.21,350.55c-1.68,1.38-3.45,2.66-5.02,4.16-1.44,1.37-2.69,3.2-2.41,5.15.57,4.01-2.34,5.58-4.84,7.06-2.37,1.4-3.61,3.06-3.54,5.67.05,1.66-.88,2.43-1.87,3.63-3.49,4.26-8.55,3.51-12.93,5.01-4.69,1.61-9.08,1.72-13.64.36-1.25-.37-2.81-.41-3.5-1.91,1.39-1.38,3.02-.93,4.54-.43,5.41,1.77,10.42-.93,15.63-1.35.84-.07,1.45-.77,1.5-1.69.16-2.88,2.07-4.18,4.44-5.17,2.17-.9,2.64-2.03.52-3.68-1.36-1.05-2.6-2.33-2.5-4.3.84-.81,1.72-.31,2.59-.09.9.23,1.93.58,2.41-.55.49-1.16-.19-2.24-1.19-2.53-2.7-.78-4.76-2.77-7.35-3.68-1.65-.58-3.07-1.58-4.66-2.26-1.1-.47-2.04-1.18-1.51-2.66,1.62-.9,2.95.24,4.39.61,1.35.6,2.94.54,4.19,1.43.96.86,2.16,1.21,3.35,1.57,1.99,1.1,3.52,2.74,5.13,4.3.18.28.31.58.41.89.46,1.53-.05,3.13.13,5.19,1.9-1.89,3.12-3.57,3.8-5.71,1.29-4.08,3.26-7.62,6.29-10.89,3-3.23,4.24-7.81,5.69-12.06.37-1.08.46-2.29,1.29-3.17.55-.59,1-.3,1.37.27.81,1.71.04,3.38-.3,4.98-.64,3.06-1.08,6.19-2.31,9.1-.03.92-.06,1.84-.09,2.76Z"/>
  <path class="cls-36" d="M211.28,317.24c1.81,5.72-.11,11.4-.28,17.1-.06,1.92-.74,3.82-1.18,5.72-.67,2.91-2.13,5.08-5.34,5.56-2.32-2.63-.08-5.26.25-7.77.48-3.67,1.03-7.37,2.94-10.82.86-1.55.58-3.98.54-6.04-.04-2.12.86-3.48,3.07-3.76Z"/>
  <path class="cls-23" d="M211.28,317.24c-2.48,1.31-3.04,3.45-2.77,6.07.23,2.17-.07,4.09-.92,6.35-1.89,5.04-3.16,10.43-3.11,15.96-.52.93-1.21,1.68-2.18,2.16-.62-5.04,2.42-9.57,2.06-14.58-1.83-1.93.33-4.29-.68-6.31-.27-2.05-.45-4.1.08-6.14.16-.36.41-.64.75-.83,1.45,1.95,1.05,4.45,2.22,6.65.32-1.25.83-2.5.91-3.77.16-2.62.01-5.17,2.93-6.68,1.81-.94-.48-4.05,2.13-4.88-1.03,1.86-.22,4.17-1.44,5.99Z"/>
  <path class="cls-44" d="M117,340.85c.28,1.59-.3,2.9-1.32,4.07-4.9-1.23-5.89-2.5-6.27-7.45-.39-5.09-.94-10.18-1.41-15.26.98-.92,1.33-2.2,1.38-3.41.09-2.21,1.66-1.8,2.91-1.85,2.05-.09,1.06,1.57,1.24,2.48.35,1.74-.88,2.72-2.05,3.67-3.01,2.46-2.6,6.05,1.05,8.45.82-1.31-1.65-4.83,2.48-3.91,0,0,0,0,0,0,.1,2.67,1.87,4.85,2.2,7.44.24,1.92.4,3.86-.21,5.76Z"/>
  <path class="cls-23" d="M203.01,313.09c.24.23.49.47.73.7.26,2.05.52,4.1.78,6.14,0,0-.25.19-.25.19-2.04-.8-1.66-2.77-2.13-4.34-.01-.99.02-1.98.88-2.69Z"/>
  <path class="cls-18" d="M191.88,378.93c.54-.84.73-2.04,2.08-2.07-2.38,9.45-6.56,17.84-12.42,25.79-3.26,4.42-8.57,6.5-10.93,11.59-.86,1.86-3.26,2.46-5.17,1.89-2.55-.75-4.48-.29-6.32,1.46-1.97,1.88-3.38,1.6-4.88-.81-2.17-3.47-5.1-6.09-8.5-8.65-5.78-4.36-10.81-10.03-14.18-16.56-1.75-3.4-1.97-7.64-2.6-11.55-.27-1.64-.81-3.09-1.5-4.55.23,0,.47-.01.7-.02,1.15,1.63,2.29,3.25,3.44,4.88,3.07,4.1,4.41,9.09,6.82,13.54,2.08,3.84,4.68,6.72,8.93,8.07,2.64.84,5.34,1.47,8.01,2.17,2.14.57,4.28.52,6.48-.13,3.03-.9,6.37-1.37,9.17-2.32,4.1-1.38,8.85-2.58,11.34-7.55,2.66-5.3,5.66-10.57,9.53-15.19Z"/>
  <path class="cls-11" d="M202.98,305.5c0,2.08,0,4.16,0,6.24-1.9-.34-1.59-2.02-1.87-3.24-1.63-7.11-1.97-14.32-1.97-21.6,0-9.47-8.04-19.47-16.95-21.62-2.62-.63-5.27-.64-7.87-.1-2.69.56-5.34.57-7.81-.47-4.47-1.88-9.01-1.34-13.56-.77-2.07.26-4.15.38-6.2.2-4.41-.38-8.71-.04-12.93,1.3-.84,0-1.63-.14-2.21-.84,2.27-2.12,5.19-3.11,8.05-3.33,4.37-.34,8.68-.38,13.09-1.03,4.34-.64,9.38-.1,13.87,1.61,2.46.93,5.04,1.04,7.49.44,6.81-1.67,12.37,1.13,17.71,4.7,2.78,1.86,5.04,4.18,6.18,7.57,1.22,3.61,5.08,5.04,7.29,7.9.57.74,1.64,1.8,1.05,2.35-2.61,2.44-.96,6.52-3.61,8.85-.72.64-1.09,1.44-1.1,2.44-.05,3.21.14,6.39,1.35,9.42Z"/>
  <path class="cls-3" d="M131.61,264.6c.72.01,1.44.03,2.15.04.15,1.02-.6,1.47-1.29,1.8-2.88,1.38-4.9,3.71-6.94,6.05-3.02,4.73-4.18,9.86-2.99,15.35.63,2.93-.35,5.68-.47,8.52-.14,3.29-1.55,6.43-1.5,9.8,0,.7-.31,1.66-1.49,1.36.1-2.98-.14-5.96.65-8.91.38-1.41.22-2.93-.82-4.25-.69-.88-1.73-2.27-1.46-2.99,2.02-5.26-2.29-11.54,2.73-16.28,2.76-2.6,5.2-5.5,7.5-8.53.89-1.17,2.41-1.72,3.94-1.94Z"/>
  <path class="cls-19" d="M119.08,307.51c.71-3.77,1.64-7.52,2.09-11.32.45-3.82-.03-7.69-.17-11.5-.16-4.43.47-9.62,4.36-13.21.28.3.44.65.49,1.06-1.03,3.95-.6,7.98-.8,11.98-.28,5.83-.89,11.67-2.8,17.25-.58,1.68-.64,3.37-.72,5.1-.1,2.18-.04,4.41-1.63,6.2-.74.4-1.08-.05-1.37-.64-.06-.25-.12-.5-.18-.75.38-1.37-.35-2.93.73-4.18Z"/>
  <path class="cls-43" d="M125.39,272.24c-.01-.25-.03-.5-.04-.75,2.09-3.15,5.24-5.01,8.41-6.85,3.84-1.23,7.68-2,11.79-1.52,3.18.37,6.41-.23,9.62-.46,3.93-.29,7.99-.75,11.82,1.2,1.74.88,3.85,1.16,5.75.64,11.75-3.26,21.92,4.57,26.08,15.44,1.1,2.88,1.57,5.72,1.42,8.75-.39,7.84.61,15.53,2.74,23.08,0,.45.02.9.03,1.35,0,.93-.02,1.86-.03,2.79-2.1-.08-1.83-2.78-3.9-3.26-1.09,1.63-2.54,3.2-3.9,4.85-.7.85-1.26,2.07-2.73,1.19-.05-3.32-1.53-5.63-4.67-6.88-.97-.39-1.93-1.09-1.66-2.31.28-1.25,1.49-1.2,2.5-1.38,2.64-.46,4.48,1.45,7.01,2.41-.14-1.5-1.65-2.47-1.01-3.86.99-1.41,1.25-3.2,2.54-4.48,1.03-1.03.83-2.33.28-3.56-.88-1.95-1.2-4.03-.88-6.09,1.37-8.88-2.66-15.61-8.5-21.6-4.14-4.25-9.33-5.21-14.99-4.48-1.49.19-3.01.65-4.46.19-9.19-2.86-18.55-.62-27.83-.93-4.2-.14-8.01,1.88-11.26,4.65-1.4.58-2.3,2.25-4.13,1.89Z"/>
  <path class="cls-30" d="M117,340.85c-.54-4.42-2.03-8.7-1.99-13.2.34.66.68,1.33,1.26,2.47.11-3.06.4-5.66,1.36-8.11.15.12.3.24.46.36.65,1.06.58,2.21.45,3.38-.76,2.39.31,4.69.4,7.04.05,1.33.65,2.69-.47,3.87-.48,1.4,1.11,3.52-1.46,4.2Z"/>
  <path class="cls-30" d="M118.53,312.44l.64.72c.87.74.85,1.77.91,2.77-.7,2.09.38,4.84-2.27,6.22,0,0-.18-.14-.18-.14.3-3.19.6-6.38.91-9.57Z"/>
  <path class="cls-5" d="M118.46,336.65c-.33-2.48-.54-4.99-1.04-7.43-.27-1.32-.3-2.47.34-3.63,1.71-.34,2.09,1.12,2.75,2.1,1.94,2.87,3.16,6.14,4.85,9.16,2.75,4.92,5.22,10,9.33,14,1.1,1.07,1.19,2.42.99,3.86-.09.67-.29,1.49.49,1.84.76.34,1.36-.23,1.7-.83,2.47-4.33,6.88-5.26,11.16-5.99,2.47-.42,3.45-1.48,3.65-3.73,1.89-.69,3.33-.07,3.71,1.85.47,2.37-1.02,3.8-3.18,4.13-3.96.6-7.5,2.07-10.85,4.22-2.1,1.35-3.01,3.03-2.77,5.47.17,1.71.89,2.55,2.71,2.09,3.09-.78,5.93.04,8.66,1.45,1.6.82,2.95,1.9,3.24,3.79.32,2.02,1.7,2.89,3.42,3.47,3.15,1.06,6.39.65,9.6.53,1.21-.04,1.84-.84,1.79-2.09-.12-2.65-4.2-6.28-6.92-5.94-2.54.32-4.82-.03-6.83-1.65-.65-.52-1.24-1.16-.9-2.06.28-.73,1.07-1.03,1.73-.86,6.65,1.69,13.61-1.11,20.19,1.47.84.33,1.83.34,2.43,1.18,1.31,1.7,2.28,3.61,4.41,4.67,1.71.85,1.14,3.17-1.24,3.95-2.94.96-5.44,1.8-4.66,5.72.16.81-.72,1.35-1.6,1.5-4.27.71-8.52,1.51-12.8,2.1-2.87.4-5.37-2.11-8.35-1.31-2.92-.43-6.11-.33-7.27-4-.09-.28-.46-.6-.75-.66-4.84-1.02-6.77-5.23-9.26-8.68-2.07-2.88-5.58-3.95-7.66-6.76-.46-.62-1.34-1-1.3-1.89.15-3.46-2.33-6.08-4.47-7.38-4.65-2.81-3.83-7.13-4.58-11.11-.17-.88.12-1.87-.71-2.56Z"/>
  <path class="cls-41" d="M191.88,378.93c-2.17,4.8-4.86,9.32-7.78,13.69-1.39,2.08-1.82,5.39-4.21,6.09-3.94,1.15-6.78,5.41-11.64,3.98-1.8-.53-3.04,1.36-4.66,1.94-5.52,1.97-10.48-.4-15.67-1.49-4.35-.91-7.51-3.59-9.44-6.97-2.04-3.59-3.99-7.39-5.34-11.35-.5-1.48-1.89-2.71-1.54-4.48,1.61.04,2.62,1.23,3.25,2.32,1.63,2.84,4.7,4.59,5.75,7.87.29.91,1.11,2.01,1.95,2.32,5.85,2.21,10.95,6.98,17.46,6.65,4.19-.21,8.21-2.66,12.43-3.56,7.64-1.63,10.62-8.47,15.48-13.21,1.31-1.28,2.4-2.8,3.97-3.81Z"/>
  <path class="cls-26" d="M153.19,387.39c7.3,1.76,14.51,1.83,21.69-.55,1.86-.62,2.59.59,2.37,2.26-.17,1.26-.8,2.35-2.02,3.04-6.38,3.63-13.03,5.32-20.22,2.75-1.38-.49-2.68-1.29-3.92-2.09-.95-.61-3.23-.91-2.28-2.25.93-1.32,1.97-3.52,4.39-3.16Z"/>
  <path class="cls-34" d="M178.7,363.06c-7.77-2.46-15.9,0-24.51-2.2,2.33,2.84,4.44,3.8,7.29,3.18,3.26-.7,8.95,3.95,8.88,7.25-.03,1.32-.45,2.75-2.04,2.73-4.32-.06-8.76.85-12.9-1.3-.96-.5-2.29-1.1-2.09-2.02.54-2.5-.74-3.78-2.62-4.61-2.71-1.21-5.6-2.77-8.56-1.23-2.77,1.44-3.33-.1-3.58-2.14-.39-3.23-.01-5.84,3.63-7.62,3.41-1.66,6.53-3.73,10.46-3.87,1.88-.07,3.19-.96,3.11-2.92-.08-2.19-1.88-1.91-3.37-1.92-.73.17-1.15-.27-1.53-.79-1.06-2.5.38-3.99,2.46-3.48,5.92,1.45,11.82.78,17.74.68,1.22-.02,2.17.71,2.52,1.99.04,1.75-1.2,2.58-2.45,3.39-1.6.39-2.13,1.52-2.1,3.04,1.18,2.89,4.25,2.86,6.47,4.12,2.68,1.52,5.58,2.63,8.25,4.16,1.49.86,1.69,2.56.81,3.95-.88,1.4-2.39,1.16-3.7.49-.71-.36-1.3-.96-2.18-.9Z"/>
  <path class="cls-40" d="M170.42,347.76c.91-.7,1.82-1.4,2.74-2.1.81-2.2-.67-2.22-2.17-2.46-.92-.15-2.61,1.05-2.62-1.19.36-.3.79-.46,1.24-.56,3.15-.71,3.16-.73,1.31-3.46-.73-1.08-1.59-2.23-.46-3.4,1.12-1.16,2.54-.83,3.83-.11.71.4,1.24,1.03,1.72,1.68.98,1.29,2.09,2.46,3.26,3.57,1.82,1.72,3.8,4.88,5.85,4.3,3.22-.91,6.66-2.7,8.43-6.11,2.01-3.89,3.75-7.91,4.65-12.23.27-1.28.38-2.59-.8-3.49-1.14-.87-2.17.06-3.24.39-2.89.89-4.74,3.19-6.88,5.08-2.79,2.45-5.78,2.63-8.75.47-.5-.36-.82-.8-.38-1.43,1.99-.93,4.23-1.01,6.24-1.91.73-.33,1.75-.32,2.12-1.03,2.04-3.85,6.2-4.22,9.54-5.94,2.31-1.19,4.59-.86,6.35,1,1.98,2.09,1.96,4.93.71,7.11-2.1,3.66-3.15,7.65-4.61,11.51-.12.32-.13.72-.34.97-3.92,4.94-5.3,11.08-7.88,16.66-1.53,3.31-2.79,3.62-5.94,1.59-2.18-1.4-4.36-2.53-6.98-2.66-1.19-1.07-3.03-.16-4.17-1.37-.88-.71-1.9-1.24-2.8-1.92-1.26-.94-1.46-1.99.04-2.95Z"/>
  <path class="cls-21" d="M177.35,354c2.64-1.8,4.56.19,6.51,1.37,4.05,2.44,4.02,2.52,6.12-1.7,1.01-2.03,1.86-3.94,1.85-6.44,0-1.75,1.69-3.71,3.03-5.21,2.18-2.43,2.88-5.43,3.95-8.32,1.02-2.77,1.71-5.61,3.56-8.14,1.31-1.8,1.41-4.47-.61-6.28-1.79-1.61-3.9-1.89-5.99-.34-.09.07-.17.22-.26.22-5.54-.11-7.26,6.37-12.43,7.16-1.68.25-3.34.63-5.05.66-4.21,1-10.18-2.09-11.73-6.09-.5-1.29-.71-2.65-1.03-3.99-.98-4.04-2.57-4.84-6.42-3.22-.43.18-.85.34-1.31.38-1.05-.26-1.53-1.06-1.42-2.01.4-3.58-1.7-5.08-4.69-5.96-.97-.28-1.81-.92-2.82-1.13-.86-.31-1.65-.72-1.98-1.66-.02-.4.14-.7.47-.92,1.53-.66,3-.07,4.33.5,4.19,1.79,8.69,1.99,13.08,2.61,3.86.54,7.31-1.67,11.03-2.3,1.47-.25,2.86-.92,4.34-.16.33.22.48.53.48.93-1.19,2.22-3.58,2.17-5.54,2.93-1.15.23-2.34.28-3.42.8-4.88,2.55-5.38,6-1.37,9.73.6.56,1.07,1.18,1.42,1.91,2.16,4.51,6.33,4.8,10.53,5,.82.04,1.51-.15,1.6-1.3.41-4.94.44-4.93,5.24-4.8.45.01.9-.18,1.36-.24.9-.12,1.75-.02,2.41.68,2.7-2.21,4.89-4.84,6.46-8.21,1.76,1.74,2.82,3.61,3.93,5.44.43,1.41.85,2.82,1.28,4.23.04,2.28.09,4.55.13,6.83.68.97.13,1.85-.43,2.5-3.62,4.22-4.46,9.72-6.69,14.57-1.82,3.96-3.76,7.85-5.6,11.8-.53,1.14-1.13,2.22-1.2,3.55-.08,1.58-.71,3.02-2.57,3.1-1.96.08-1.66-1.81-2.23-2.93h0c-1.25-1.82-2.74-3.36-4.86-4.15-1.33-.01-2.76.21-3.46-1.39Z"/>
  <path class="cls-5" d="M185.67,359.55c.92.71.86,2.72,2.56,2.28,1.43-.37,1.37-1.83,1.67-3.08,1.39-5.71,4.96-10.5,6.87-16.03.73-2.12,1.99-3.98,2.2-6.39.19-2.2,1.98-3.79,3.26-5.55.86-1.18,1.98-2.26,2.16-3.84,1.68,2.09-.8,4.16-.03,6.25-1.3,4.98-3.82,9.49-5.47,14.34-.23.66-.3,1.32-1,1.7-4.37,2.35-5.44,6.73-6.81,10.96-.38,1.17-1.15,2.23-1.84,3.28-.93,1.41-2.01,3.67-3.59,3.14-1.75-.58.24-2.56.05-3.97-.14-1.02-.03-2.07-.03-3.11Z"/>
  <path class="cls-5" d="M170.42,347.76c-1.34,2.91,2.53,2.85,2.76,4.87-1.38-.47-2.76-.94-4.14-1.4-1.59-1.97-1.02-3.08,1.38-3.46Z"/>
  <path class="cls-5" d="M180.81,355.39c2.61.23,4.39,1.42,4.86,4.15-1.91-1.05-3.45-2.52-4.86-4.15Z"/>
  <path class="cls-5" d="M119.16,315.88c0-.91,0-1.81,0-2.72.96-.86,1.02-2.18,1.06-3.2.29-7.78,3.21-15.11,3.78-22.82.19-2.62.07-5.26-.03-7.89-.09-2.47.3-4.81,1.42-7.02,1.25-.53,1.85-2.12,3.44-2.11.31.55.33,1.17.01,1.65-3.34,5.14-1.66,10.17.43,15.1,1.86,4.39,2.84,8.74.79,13.34-.42.95-.69,1.96-.22,3,.04,1.97-1.56,2.93-2.64,4.19-1.83,2.14-1.95,4.21-.15,6.44,1.11,1.37,2.66,2.61,2.05,4.75-1.78,1.46-3.27.3-4.08-.98-1.56-2.46-3.45-2.72-5.87-1.72Z"/>
  <path class="cls-40" d="M129.5,303.39c-1.74-.79-1.09-1.95-.49-3.11,2.25-4.36,1.61-8.7-.57-12.76-1.52-2.83-1.72-5.86-2.36-8.84-.72-3.37,1.25-5.89,2.75-8.56,3.19-3.74,7.53-5.12,12.16-5.47,5.83-.44,11.81-.76,17.51-.4,7.24.45,14.51.8,21.75,1.35,5.93.46,9.44,5.23,12.78,9.66,3.72,4.93,5.44,10.39,4.49,16.65-.36,2.36-.36,4.85,1.15,7,.93,1.33.83,2.75-.32,3.74-1.25,1.07-2.33,1.77-1.82,3.86.3,1.24-1.23.04-1.85.35-2.36-.79-4.99-1.23-5.6-4.31.3-.49.68-1.01.5-1.6-1.45-4.79-.43-9.28,1.27-13.82,2.04-5.42-1.63-11.5-7.33-13.26-6.72-2.07-13.65-1.49-20.49-1.99-1.84-.14-3.68.46-5.35,1.26-5.41,2.58-10.28,1.55-14.87-1.97-4.99-3.83-6.86-3.88-10.82-.35-4.15,3.7-4.74,7.52-1.89,12.3,1.01,1.69,2.24,3.19,3.68,4.56,2.14,2.04,3.41,4.37,1.81,7.4-1,1.89.09,2.36,1.76,2.63,2.01.32,4.32.47,4.25,3.44-.67.93-1.66.96-2.44.44-3.09-2.06-5.63-.84-8.11,1.14-.45.36-.95.64-1.55.66Z"/>
  <path class="cls-20" d="M189.12,302.74c1.86,1.37,3.71,2.75,5.57,4.12.32.47.77.9.94,1.42.33,1.01,2.08,1.81,1.07,2.88-1.24,1.32-2.65.08-3.58-.79-1.31-1.23-2.72-1.58-4.38-1.41-.73.08-1.84-.32-1.99.77-.13.98.93,1.06,1.65,1.39,4.22,1.91,5.36,4,4.21,7.54-.92,0-1.84,0-2.77,0-1.58.63-2.98-.85-4.55-.38-.33-2.8-.1-2.97,3.1-2.19-3.07-1.9-4.29-2.19-8.16-1.88-.91.07-1.96.46-2.62-.32-.82-.97.32-1.63.71-2.38q1.55-2.94,5.14-4.65c-.62-1.53-2.61-1.4-3.34-2.75,0-.23-.01-.46-.02-.69,3.31-2.8,6.08-3,9.02-.66Z"/>
  <path class="cls-21" d="M119.16,315.88c.53-.42,1.15-.78,1.59-1.28,1.3-1.51,2.17-1.61,3.22.37,1,1.89,2.27,3.78,4.9,3.68.96-.83,2.04-.93,3.2-.57,1.58.67,2.33,2.12,3.24,3.43,3.07,4.41,12.76,4.76,15.6.16,1.69-2.73,3.86-4.65,6.22-6.57,1.99,1.56,2.06,4.19-.2,6.18-6.33,5.59-13.59,8.05-22.02,5.89-2.08-.53-3.77-1.45-4.47-3.82-.74-2.5-3.23-2.33-5.17-2.49-1.24-.1-1.44,1.19-1.27,2.35,1.12,7.41,4.91,13.61,9.21,19.46,2.44,3.32,4.15,3.11,6.86-.07,2.78-3.27,6.44-5.6,9.3-8.79,1.27-1.41,3.03-1.78,4.62-.31,1.62,1.51,1.25,3.11-.16,4.53-.94.95-1.35,2.12-1.76,3.32q-3.22,1.67-.39,4.33c.25.23.49.46.74.69,2.42,2.69,2.4,2.79-1.04,3.66-2.63.66-5.26,1.29-7.88,1.98-2.28.6-3.62,2.28-4.81,4.19-.64,1.02-1.28,2.42-2.92,1.78-1.77-.69-1.48-2.08-.96-3.46.51-1.36.23-2.51-.92-3.38-3.97-3.01-5.51-7.72-8.13-11.67-2.95-4.46-4.25-9.88-8-13.89.02-1.14.03-2.29.05-3.43,1.02-1.97.78-4.21,1.36-6.27Z"/>
  <path class="cls-33" d="M174.22,358.59c-.62.11-1.09.35-1.43.23-4.8-1.7-9.89-.54-14.8-1.56-2.82-.59-5.9-.18-8.7,1.03-.69.3-1.62.96-2.05-.11-.35-.89.63-1.36,1.29-1.8.27-.18.67-.31.98-.26,4.49.72,7.25-1.95,9.97-4.88.78-.84,1.97-2.05,3.17-.47,2.77,3.65,6.03,6.43,10.82,6.89.21.02.39.47.74.93Z"/>
  <path class="cls-5" d="M151.67,345.69c-.22-.04-.45-.04-.66-.11-1.72-.56-3.27-1.45-2.66-3.55.64-2.18,2.31.14,3.38-.52,1.78-1.72,3.92-1.96,6.03-1,2.53,1.15,4.97,1.38,7.64.63,1.06-.3,2.53-.81,2.96,1.06,1.07,1.22,2.59.32,3.78.78,1.14.45,3.43.75,1.03,2.67-.07-1.4-.87-2.09-2.21-2.06-1.7.03-3.43,0-5.1.27-3.18.52-6.26.88-9.35-.59-1.56-.74-3.42-.84-4.97-.03-1.05.55-.11,1.62.13,2.44Z"/>
  <path class="cls-31" d="M168.36,342.21c-.49-.66-1.15-.73-1.84-.44-3.25,1.34-6.35,1.38-9.45-.6-1.73-1.11-3.54.47-5.34.35-.61-1.66-.67-2.97,1.32-3.93,1.34-.64,1.98-1.95.66-3.4-1.24-1.36-2.73-1.15-3.59.03-3.02,4.12-7.95,6.28-10.64,10.74-1.37,2.27-3.37,1.51-5.09.26-2.4-1.74-3.56-4.41-5.14-6.82-3.12-4.75-5.08-9.9-6.46-15.34-.36-1.43.11-2.48,1.27-3.28,1.91-1.33,3.14.94,4.78.92,1.9-.03,3.11.24,2.62,2.72-.35,1.75,1.43,2.35,2.67,2.61,6.63,1.39,13.18,2.05,18.71-3.21.56-.54,1.37-.83,2.08-1.2,2.73-1.43,3.75-3.49,2.36-6.43-.37-.46-.37-.91,0-1.37,4.9-3.79,7.97-2.65,9.02,3.37,1.12,6.36,3.42,8.29,11.75,9.8q5.52,2.78,9.75-1.1c2.11-1.95,4.22-3.85,7.11-4.58,1.03-.26,1.95-1.55,3.09-.32.96,1.04,1.83,2.28,1.42,3.72-1.61,5.72-3.07,11.47-7.06,16.25-1.94,2.32-5.49,1.92-6.95,4.79-.26.51-.93-.31-1.35-.64-3.32-2.66-6.62-5.34-9.06-8.89-.53-.77-1.16-1.48-2.17-1.55-.77-.06-1.68-.31-2.15.6-.38.73.08,1.32.56,1.84.39.43.81.82,1.2,1.24.68.75,1.69,1.39,1.26,2.62-.5,1.4-1.77,1.24-2.92,1.25-.81.01-1.61,0-2.42,0Z"/>
  <path class="cls-31" d="M178.53,351.45c-1.26-.1-2.06-.17-2.85-.23-1.81-.14-3.38-.88-2.92-2.89.42-1.83,2.16-2.25,3.9-1.82.87.22,1.74.64,2.48,1.15,1.04.71,3.01,1.05,2.57,2.64-.43,1.55-2.45.64-3.18,1.16Z"/>
  <path class="cls-24" d="M189.12,302.74c-3.13-1.49-6.06-.17-9.02.66-3.26-.19-6.36.98-9.23,2.05-5.49,2.04-10.64.56-15.83-.49-2.75-.55-5.35-1.87-8.2-2.23-2.27,1.13-4.02.3-5.51-1.48-.59-2.49-2.57-2.6-4.58-2.71-3.32-.17-4.02-1.04-2.19-3.6,2.08-2.92.58-5-1.33-6.51-2.19-1.74-3.58-3.96-4.78-6.23-3.23-6.09,2.12-15.02,9.03-15.27,2.12-.08,3.61,1.49,5.02,2.74,4.6,4.05,9.43,5.26,15.19,2.42,2.89-1.43,6.16-1.82,9.42-.87.55.16,1.2.41,1.68.26,5.28-1.68,10.13.97,15.19,1.45,2.29.22,9.16,6.96,9.17,9.2,0,2.91-1.44,5.53-2.4,8.22-1.24,3.47-1.64,6.88.04,10.3.96,1.96.24,2.49-1.68,2.08Z"/>
  <path class="cls-29" d="M141.34,301.26c1.89.29,3.52,1.53,5.51,1.48,0,.23,0,.45,0,.68-.93,1.01-2.12.85-3.23.6-3.74-.85-7.32.16-10.96.89,3.1-.61,6.03-.23,8.68,1.48.98.63,2.01,1.48,1.57,2.79-.43,1.29-1.73.95-2.71.81-2.76-.41-4.97.65-6.96,2.4-.78.68-1.8,1.36-1.2,2.57.65,1.32,1.73.74,2.69.31.74-.33,1.48-.68,2.32-.4,2.61,2.98,5.48,2.4,8.45.63,2.24.84,4.24,2.16,6.4,3.16.34,3.16-1.34,4.85-4.11,5.92-2.47.95-5,.55-7.51.64-.75.03-1.52-.29-1.73-.93-1.02-3.09-3.98-3.96-6.24-5.63-1.15,0-2.3-.01-3.45-.02-.18-1.42-.94-2.53-1.86-3.58-3.21-3.66-3.13-5.54.29-9.09.79-.82,1.48-1.72,2.22-2.58,3.39-4.09,5.54-4.55,10.19-2.29.47.23,1.1.11,1.65.15Z"/>
  <path class="cls-37" d="M151.71,318.65c-2.83.73-4.38-1.37-6.24-2.8-3.15-2.34-6.02-2.55-8.34-.63-1.29-.07-2.03.99-3.02,1.52-1.51.81-2.24.16-3.09-1.02-.93-1.29-.88-2.16.38-3.2,3.19-2.64,6.46-4.79,11.08-2.91-1.64-3.5-5.12-4.7-9.09-3.7-.91.23-2.41,1.69-2.89.05-.5-1.72,1.45-2.19,2.72-2.41,4.52-.79,9.08-1.04,13.63-.12.71.22,1.43.45,2.14.67.96.62,1.71,1.49,2.8,1.95,3.4,1.43,3.98,4.5,4.17,7.66.17,2.91-2.15,3.88-4.26,4.95Z"/>
  <path class="cls-9" d="M180.12,304.1c.56.09,1.36-.03,1.65.3,1.02,1.18,3.71.59,3.51,2.67-.17,1.79-2.33.86-3.47,1.46-1.05.55-2.6.75-2.01,2.59.56,1.74-1.99.95-1.89,2.31,7.12-.45,9.78.24,12.76,3.36-1.57,2.2-4.57-2.84-5.77,1.13-2.81,2.75-5.59,1.31-8.36-.07-3.81,2.01-5.88.82-6.23-3.59-.03-.34-.07-.68-.12-1.02-.79-4.82-.19-5.8,4.38-7.06,1.85-.7,3.7-1.39,5.55-2.09Z"/>
  <path class="cls-10" d="M176.63,316.56c2.43,2.45,5.29,2.32,8.28,1.37,1.7-.14,3.31.3,4.92.74-.75.99-1.61.49-2.48.2-1.22-.4-2.23-.17-2.97,1.01-.71,1.13-.73,2.07.32,3.05,1.01.95,1.01,1.53-.59,2.05-5.04,1.64-11.11-.64-13.48-5.39-.45-.9-.92-1.41-1.81-1.83-1.14-.54-3.05-6.62-2.31-7.56,1.18-1.5,2.64-2.81,4.62-3.29.4,1.3-.91,1.71-1.36,2.57-1.68,3.21-.14,7.93,3.15,9.26,2.11.86,2.77-.94,3.71-2.17Z"/>
  <path class="cls-5" d="M151.71,318.65c.28-.48.49-1.05.86-1.44,3.48-3.62,3.2-7.47-.86-10.59-.99-.76-2.2-1.26-2.72-2.53,1.47.54,3.04.92,4.4,1.67,2.33,1.29,4.71,2.72,3.46,6.1-.28.74.17,1.32.41,1.95,0,.46,0,.91,0,1.37-.05.45,0,1.25-.18,1.31-3.63,1.14-4.19,5.07-6.64,7.24-3.9,3.47-13.23,2.33-16.04-1.94-.69-1.05-1.39-2.09-2.09-3.13,2.78.99,6.53.69,6.69,5.13.03.83.84.93,1.53,1.08,5.24,1.07,9.44-1.26,11.17-6.22Z"/>
  <path class="cls-22" d="M176.63,316.56c-.26,2.16-1.75,3.32-3.57,2.64-1.95-.73-4.05-1.67-4.75-4.25-.93-3.44.47-5.86,2.81-8.05,1.06-.65,2.22-.85,3.45-.71-1.48.99-3.43,1.52-4.01,3.44-.66,2.16.61,4.23.68,6.44.08,2.44,2.75,2.59,5.39.49Z"/>
  <path class="cls-28" d="M137.13,315.22c.02-.54-1.42-.81-.3-1.55,1.54-1.02,7.18-.64,8.65.61.58.49.15,1.05-.01,1.57-2.85,3.3-6.55,3.01-8.34-.63Z"/>
</svg>