<?xml version="1.0" encoding="UTF-8"?>
<svg id="Capa_1" data-name="Capa 1" xmlns="http://www.w3.org/2000/svg" xmlns:xlink="http://www.w3.org/1999/xlink" viewBox="0 0 506 600">
  <defs>
    <style>
      .cls-1 {
        fill: #44a5d3;
      }

      .cls-1, .cls-2, .cls-3, .cls-4, .cls-5, .cls-6 {
        stroke-width: 0px;
      }

      .cls-2 {
        fill: none;
      }

      .cls-7 {
        filter: url(#drop-shadow-1);
      }

      .cls-3 {
        fill: #026591;
      }

      .cls-8 {
        opacity: .15;
      }

      .cls-4 {
        fill: #43a6d6;
      }

      .cls-9 {
        clip-path: url(#clippath);
      }

      .cls-5 {
        fill: #006491;
      }

      .cls-6 {
        fill: #f6f5f9;
      }
    </style>
    <filter id="drop-shadow-1" filterUnits="userSpaceOnUse">
      <feOffset dx="15" dy="0"/>
      <feGaussianBlur result="blur" stdDeviation="20"/>
      <feFlood flood-color="#000" flood-opacity=".5"/>
      <feComposite in2="blur" operator="in"/>
      <feComposite in="SourceGraphic"/>
    </filter>
    <clipPath id="clippath">
      <rect class="cls-2" x="1907.5" y="-769.5" width="982" height="796"/>
    </clipPath>
  </defs>
  <g class="cls-7">
    <g class="cls-9">
      <g>
        <path class="cls-1" d="M-575.95-3069.6c-1923.33,0-3482.49,1571.3-3482.49,3509.6S-2499.28,3949.6-575.95,3949.6,2906.54,2378.3,2906.54,440,1347.37-3069.6-575.95-3069.6h0Z"/>
        <path class="cls-3" d="M-637.78-3057.6c-1931.67,0-3497.6,1565.93-3497.6,3497.6S-2569.45,3937.6-637.78,3937.6,2859.82,2371.67,2859.82,440,1293.89-3057.6-637.78-3057.6h0Z"/>
        <circle class="cls-6" cx="-706.84" cy="440" r="3509.6"/>
      </g>
    </g>
  </g>
  <g class="cls-8">
    <g>
      <path class="cls-5" d="M348.06,438.04h0c-47.76,47.76-121.43,53.82-175.78,18.19l-64.91,64.91c87.54,72.24,217.3,67.44,299.2-14.46l4.07-4.07c81.89-81.89,86.7-211.66,14.46-299.2l-58.85,58.85c35.63,54.34,29.58,128.01-18.19,175.78Z"/>
      <path class="cls-4" d="M149.93,239.91l98.77-98.77c.16-.16.42-.16.58,0l58.86,58.86,57.51-57.51L249.29,26.12c-.16-.16-.42-.16-.58,0L87.35,187.47C14.48,260.34,2.67,371.11,51.84,456.31l66.57-66.57c-19.48-50.18-8.99-109.32,31.51-149.83Z"/>
    </g>
  </g>
</svg>