<?xml version="1.0" encoding="UTF-8"?>
<svg id="Capa_1" data-name="Capa 1" xmlns="http://www.w3.org/2000/svg" xmlns:xlink="http://www.w3.org/1999/xlink" viewBox="0 0 587 327">
  <defs>
    <style>
      .cls-1 {
        fill: #41a6d7;
      }

      .cls-1, .cls-2, .cls-3, .cls-4, .cls-5, .cls-6, .cls-7, .cls-8, .cls-9, .cls-10 {
        stroke-width: 0px;
      }

      .cls-2 {
        fill: #44a5d3;
      }

      .cls-3 {
        fill: #52a5d6;
      }

      .cls-4 {
        filter: url(#drop-shadow-5);
      }

      .cls-4, .cls-9 {
        fill: #1d1d1b;
      }

      .cls-5 {
        fill: none;
      }

      .cls-11 {
        filter: url(#drop-shadow-1);
      }

      .cls-6 {
        fill: #026591;
      }

      .cls-12 {
        opacity: .3;
      }

      .cls-7, .cls-8 {
        fill: #f9f8fc;
      }

      .cls-8 {
        filter: url(#drop-shadow-4);
      }

      .cls-13 {
        clip-path: url(#clippath);
      }

      .cls-10 {
        fill: #f6f5f9;
      }
    </style>
    <filter id="drop-shadow-1" filterUnits="userSpaceOnUse">
      <feOffset dx="15" dy="0"/>
      <feGaussianBlur result="blur" stdDeviation="20"/>
      <feFlood flood-color="#000" flood-opacity=".5"/>
      <feComposite in2="blur" operator="in"/>
      <feComposite in="SourceGraphic"/>
    </filter>
    <clipPath id="clippath">
      <rect class="cls-5" x="1288.5" y="1009" width="982" height="796"/>
    </clipPath>
    <filter id="drop-shadow-4" filterUnits="userSpaceOnUse">
      <feOffset dx="9.48" dy="6.64"/>
      <feGaussianBlur result="blur-2" stdDeviation="14.22"/>
      <feFlood flood-color="#000" flood-opacity=".3"/>
      <feComposite in2="blur-2" operator="in"/>
      <feComposite in="SourceGraphic"/>
    </filter>
    <filter id="drop-shadow-5" filterUnits="userSpaceOnUse">
      <feOffset dx="4.74" dy="4.74"/>
      <feGaussianBlur result="blur-3" stdDeviation="9.48"/>
      <feFlood flood-color="#1d1d1b" flood-opacity=".75"/>
      <feComposite in2="blur-3" operator="in"/>
      <feComposite in="SourceGraphic"/>
    </filter>
  </defs>
  <g class="cls-11">
    <g class="cls-13">
      <g>
        <path class="cls-2" d="M-1194.95-1291.1c-1923.33,0-3482.49,1571.3-3482.49,3509.6s1559.16,3509.6,3482.49,3509.6,3482.49-1571.3,3482.49-3509.6S728.37-1291.1-1194.95-1291.1h0Z"/>
        <path class="cls-6" d="M-1256.78-1279.1c-1931.67,0-3497.6,1565.93-3497.6,3497.6s1565.93,3497.6,3497.6,3497.6,3497.6-1565.93,3497.6-3497.6S674.89-1279.1-1256.78-1279.1h0Z"/>
        <circle class="cls-10" cx="-1325.84" cy="2218.5" r="3509.6"/>
      </g>
    </g>
  </g>
  <rect class="cls-3" x="13.5" y="11.84" width="221.81" height="304.28" rx="47.64" ry="47.64"/>
  <rect class="cls-8" x="46.68" y="11.06" width="530.82" height="305.05" rx="48" ry="48"/>
  <g>
    <circle class="cls-4" cx="473.53" cy="252.49" r="44.67"/>
    <g>
      <path class="cls-7" d="M465.05,247.13c0-3.39-.02-6.78,0-10.17.01-1.93.79-3.49,2.57-4.36,1.63-.8,3.22-.58,4.65.52,1.18.9,1.71,2.14,1.71,3.61.01,2.81.03,5.62,0,8.43-.01.95.25,1.38,1.28,1.34,1.71-.07,3.01.73,3.85,2.21.31.54.65.7,1.29.62,1.74-.23,3.21.41,4.15,1.87.55.85,1.13,1,2.06.97,2.32-.08,4.4,1.62,4.44,3.94.08,4.9.57,9.84-.24,14.69-.96,5.81-4.42,9.88-9.91,12-5.34,2.06-10.39,1.37-14.76-2.43-2.36-2.05-4.1-4.7-6.11-7.08-2.59-3.06-5.13-6.18-7.69-9.27-1.24-1.49-1.85-3.13-1.28-5.08.98-3.35,4.12-4.77,7.59-3.43,1.63.62,2.82,1.85,4.15,2.9.48.38.95.91,1.65.56.7-.34.59-1.04.59-1.65,0-3.39,0-6.78,0-10.17h0ZM470.88,248.16c0-3.48,0-6.96,0-10.44,0-.44,0-.9-.12-1.32-.19-.67-.66-1.06-1.4-.96-.7.1-.96.58-.99,1.23-.02.45-.02.89-.02,1.34,0,6.47,0,12.93,0,19.4,0,2.38-.93,3.91-2.73,4.62-1.56.61-2.96.28-4.26-.72-1.24-.95-2.28-2.16-3.73-2.8-1.07-.47-2.18-.62-3.04.45-.7.87-.55,2.1.33,3.17,3.9,4.7,7.79,9.41,11.71,14.1.94,1.13,1.95,2.2,3.26,2.95,7.02,3.98,16.5-.61,17.82-8.75.73-4.51.25-9.08.29-13.62,0-.77-.4-1.44-1.28-1.42-.88.02-1.19.65-1.21,1.47-.02.93,0,1.88-.12,2.8-.12.84-.72,1.35-1.59,1.33-.81-.02-1.32-.52-1.48-1.31-.09-.43-.1-.88-.1-1.33-.02-1.52,0-3.03-.03-4.55,0-.64-.29-1.13-.98-1.23-.74-.1-1.2.29-1.4.96-.11.37-.12.79-.12,1.19-.01,1.47-.01,2.94,0,4.42,0,.66-.15,1.24-.75,1.61-1.12.69-2.33-.14-2.35-1.68-.04-2.54-.02-5.08-.01-7.63,0-.88-.18-1.72-1.2-1.76-1.12-.04-1.33.83-1.32,1.76,0,2.41,0,4.82,0,7.23,0,1.53-.58,2.34-1.61,2.31-1-.03-1.5-.76-1.51-2.25,0-3.52,0-7.05,0-10.57Z"/>
      <path class="cls-7" d="M469.59,226.43c5.39.02,10.05,4.49,10.06,9.62,0,1.03-.18,1.95-1.41,2.02-1.27.07-1.62-.8-1.73-1.91-.3-3.18-2.43-5.71-5.28-6.33-3.19-.69-6.16.61-7.77,3.36-.56.95-.75,2-.88,3.06-.13,1.11-.5,1.98-1.79,1.82-1.27-.16-1.43-1.16-1.38-2.21.25-5.15,4.88-9.43,10.18-9.42Z"/>
    </g>
  </g>
  <g class="cls-12">
    <path class="cls-1" d="M278.01,259.5c-17.24,0-34.48.03-51.72,0-16.9-.03-28.27-11.45-28.3-28.36,0-3.97.17-7.95-.05-11.9-.22-4.06,1.68-5.86,5.51-5.91,5.34-.08,10.67-.07,16.01-.09q5.77-.03,5.82-5.64c.26-36.26.52-72.51.78-108.77,0-.82-.01-1.64.03-2.46.23-4.53,1.47-5.8,6.04-5.81,13.27-.04,26.55-.02,39.82-.02,12.32,0,24.63-.14,36.94.08,3.79.07,5.79-1.08,7.51-4.59,13.2-26.87,45.9-35.74,70.85-19.42,17.44,11.41,25.7,33.51,20.04,53.6-5.84,20.72-24.09,35.33-44.96,35.73-3.39.07-4.45,1.1-4.44,4.48.12,23.54.08,47.07.06,70.61-.02,17.09-11.42,28.43-28.6,28.46-17.1.02-34.21,0-51.31,0ZM233.08,201.25c0,2.33.21,4.68-.05,6.97-.46,4.08,1.35,5.12,5.18,5.07,14.09-.18,28.18-.07,42.28-.07,8.21,0,16.42-.09,24.63.08,4.93.1,5.93,1.31,5.98,6.21.04,4.24-.11,8.49.05,12.72.44,11.4,8.98,19.54,20.18,19.39,10.73-.14,18.71-8.41,18.74-19.72.08-24.08-.03-48.16.1-72.24.02-3.37-1.19-4.8-4.35-5.72-8.75-2.53-16.51-7.14-21.96-14.4-3.6-4.79-7.52-6.11-13.16-5.83-8.6.43-17.23.1-25.85.1-2.05,0-3.89-.41-4.52-2.68-.44-1.56-.07-3,1.27-4.05,1.39-1.09,3.05-1.08,4.7-1.08,8.21,0,16.42-.06,24.63.02,2.92.03,4.08-.71,2.91-3.83-2.46-6.52-3.02-13.36-2.2-20.21.38-3.23-.83-3.69-3.53-3.68-23.26.06-46.52.08-69.78-.02-3.35-.01-4.5,1.05-4.51,4.47-.13,32.83.32,65.67-.73,98.49ZM401.06,107.26c-.02-22.92-18.03-40.9-40.94-40.87-22.81.03-40.89,18.17-40.88,41.02,0,22.87,18.05,40.83,41.01,40.81,22.89-.03,40.83-18.03,40.81-40.95ZM311.44,251.66c-6.97-7.64-8.47-15.79-8.21-24.54.16-5.63.01-5.65-5.73-5.65-27.64,0-55.29-.02-82.93,0-9.79.01-8.36-.97-8.89,8.79-.71,13.09,9.61,21.77,21.36,21.55,26.4-.49,52.82-.15,79.23-.15,1.33,0,2.66,0,5.17,0Z"/>
    <path class="cls-1" d="M306.22,163.98c-6.29,0-12.59.03-18.88-.02-1.49-.01-3.01-.16-4.45-.52-1.79-.45-2.71-1.77-2.68-3.65.03-1.89,1.02-3.14,2.84-3.5,1.6-.32,3.25-.5,4.88-.51,12.45-.04,24.91-.02,37.36-.02.27,0,.55-.01.82,0,3,.21,6.8,0,6.71,4.17-.09,4.08-3.87,3.97-6.88,4.01-6.57.08-13.14.02-19.7.03Z"/>
    <path class="cls-1" d="M261.85,141.2c-6.36-.03-11.32-4.92-11.24-11.09.08-6.14,5.17-10.9,11.54-10.78,6.12.11,11.06,4.95,11.09,10.88.03,6.09-5.08,11.02-11.39,10.99Z"/>
    <path class="cls-1" d="M261.6,200.36c-6.39-.12-11.2-5.07-10.99-11.28.2-5.91,5.28-10.62,11.39-10.58,6.26.04,11.36,5.11,11.25,11.16-.12,6.12-5.24,10.83-11.65,10.7Z"/>
    <path class="cls-1" d="M261.96,170.78c-6.38.02-11.37-4.81-11.35-10.96.03-6.11,5.14-10.98,11.45-10.91,6.11.07,11.1,4.88,11.18,10.8.09,6.1-4.96,11.05-11.29,11.07Z"/>
    <path class="cls-1" d="M306.36,185.85c6.98,0,13.95.01,20.93,0,2.8,0,5.64.4,5.57,3.87-.07,3.33-2.85,3.95-5.66,3.95-13.81,0-27.63.01-41.44,0-2.78,0-5.51-.5-5.51-4.01,0-3.63,2.87-3.8,5.59-3.8,6.84,0,13.68,0,20.52,0Z"/>
    <path class="cls-1" d="M345.14,119.29c-.02-2.3.83-4.18,3.21-4.59,2.65-.46,4.12,1.19,4.52,3.65.62,3.77,2.32,6.42,6.42,6.82,3.86.37,7.05-2.06,7.72-5.79.62-3.46-1.93-7-5.66-7.81-1.34-.29-2.7-.44-4.04-.71-6.39-1.31-10.74-5.67-11.98-11.99-1.12-5.73,1.52-11.86,6.86-15.12,2.09-1.28,3.76-2.34,3.8-5.18.02-1.93,1.51-3.27,3.53-3.35,2.24-.09,3.75,1.29,3.91,3.41.18,2.41,1.36,3.53,3.41,4.52,4.04,1.96,6.45,5.36,7.6,9.69.75,2.84,1.05,5.85-2.31,6.89-3.66,1.14-4.47-1.74-5.18-4.64-1-4.07-4.06-6.18-7.84-5.61-3.53.53-5.72,2.7-6.03,6.25-.31,3.52,1.28,6.14,4.82,7.16,1.69.49,3.49.61,5.24.93,5.78,1.08,10.42,6.05,11.64,12.4,1.04,5.47-1.94,11.88-7.29,14.92-2.27,1.29-4,2.46-4.14,5.43-.09,1.91-1.65,3.12-3.74,3.06-2.09-.06-3.56-1.37-3.58-3.27-.03-2.98-1.72-4.23-3.97-5.56-4.12-2.44-6.89-7.34-6.9-11.51Z"/>
  </g>
  <g>
    <path class="cls-9" d="M75.65,136.66h25.19l-.97,6.03h-17.63l-1.88,12.11h13.82l-.91,5.86h-13.88l-2.62,16.66h-7.56l6.43-40.66Z"/>
    <path class="cls-9" d="M122.51,167.26h-15.53l-4.78,10.07h-7.28l20.02-40.66h9.9l7,40.66h-7.68l-1.65-10.07ZM109.6,161.74h12.06l-3.01-18.88-9.04,18.88Z"/>
    <path class="cls-9" d="M136.05,160.1c0-13.59,8.76-24.06,22.01-24.06,9.16,0,15.7,4.78,16.21,14.22h-7.39c-.8-5.35-3.47-8.25-9.04-8.25-8.87,0-13.88,8.02-13.88,17.86-.06,7.39,3.47,12,10.92,12,5.57,0,9.33-3.36,10.92-8.7h7.39c-1.93,9.33-9.27,14.73-18.37,14.73-11.54,0-18.77-6.65-18.77-17.8Z"/>
    <path class="cls-9" d="M189.51,142.64h-11.32l.97-5.97h30.26l-1.02,5.97h-11.26l-5.46,34.69h-7.62l5.46-34.69Z"/>
    <path class="cls-9" d="M211.41,160.66l3.81-24h7.62l-3.87,24.17c-1.25,7.79,1.31,10.98,7.56,10.98,5.52,0,8.36-2.9,9.5-9.95l4.04-25.19h7.62l-4.15,25.99c-1.54,9.73-6.88,15.24-17.23,15.24-11.03,0-16.78-5.8-14.9-17.23Z"/>
    <path class="cls-9" d="M256.68,136.66h13.36c8.19,0,13.48,3.81,13.37,10.81,0,7.17-4.66,11.2-10.75,12.28l9.1,17.57h-7.91l-8.47-16.44h-5l-2.56,16.44h-7.56l6.43-40.66ZM267.49,155.49c5.57,0,8.47-2.39,8.47-7.45.06-3.81-2.33-5.52-6.71-5.52h-5.91l-2.1,12.97h6.26Z"/>
    <path class="cls-9" d="M311.45,167.26h-15.53l-4.78,10.07h-7.28l20.02-40.66h9.9l7,40.66h-7.68l-1.65-10.07ZM298.54,161.74h12.06l-3.01-18.88-9.04,18.88Z"/>
    <path class="cls-9" d="M324.99,160.1c0-13.59,8.76-24.06,22.01-24.06,9.16,0,15.7,4.78,16.21,14.22h-7.39c-.8-5.35-3.47-8.25-9.04-8.25-8.87,0-13.88,8.02-13.88,17.86-.06,7.39,3.47,12,10.92,12,5.57,0,9.33-3.36,10.92-8.7h7.39c-1.93,9.33-9.27,14.73-18.37,14.73-11.54,0-18.77-6.65-18.77-17.8Z"/>
    <path class="cls-9" d="M372.7,136.66h7.62l-6.43,40.66h-7.62l6.43-40.66Z"/>
    <path class="cls-9" d="M403.64,177.9c-11.09,0-19-7.22-19-18.09,0-13.42,9.5-23.72,22.35-23.72,11.54,0,18.94,7.62,18.94,18.2,0,13.76-9.5,23.6-22.29,23.6ZM406.83,142.12c-8.99,0-14.33,8.19-14.33,17.52,0,7.51,4.55,12.23,11.49,12.23,8.64,0,14.1-7.73,14.1-17.4,0-6.82-3.81-12.28-11.26-12.34ZM408.65,126.09h7.85l-6.31,7.68h-5.35l3.81-7.68Z"/>
    <path class="cls-9" d="M436.29,136.66h9.04l12.4,29.4,4.66-29.4h6.94l-6.43,40.66h-7.85l-13.37-31.17-4.89,31.17h-6.94l6.43-40.66Z"/>
  </g>
  <g>
    <path class="cls-9" d="M81.96,89.58h1.5l-4.71,29.83h-1.5l4.71-29.83Z"/>
    <path class="cls-9" d="M88.75,103.39c.46-2.88.54-4.42.63-5.8h1.38c-.04,1.13-.17,2.92-.46,4.8,1.46-2.79,4.42-5.13,8.43-5.13,4.76,0,7.63,3,6.67,9.18l-2.04,12.97h-1.46l2.09-13.18c.83-5.21-1.46-7.72-5.46-7.72s-7.97,2.75-8.76,7.8l-2.09,13.1h-1.42l2.5-16.02Z"/>
    <path class="cls-9" d="M108.9,112.98h1.38c.25,3.46,2.25,5.59,6.67,5.59,3.5,0,6.17-1.63,6.17-5.01,0-2.59-1.5-3.67-5.42-4.76-4.42-1.25-6.47-2.59-6.47-5.76,0-3.84,3.34-5.76,7.17-5.76s6.88,1.54,7.22,5.67h-1.38c-.25-2.88-2.25-4.46-5.88-4.46-3.3,0-5.76,1.46-5.76,4.51,0,2.38,1.5,3.38,5.55,4.55,4.17,1.17,6.38,2.42,6.38,5.96,0,4.09-3.42,6.26-7.63,6.26-4.88,0-7.8-2.42-8.01-6.8Z"/>
    <path class="cls-9" d="M130.46,113.94l2.42-15.14h-3.3l.21-1.21h3.25l.79-4.96h1.42l-.79,4.96h6.09l-.21,1.21h-6.05l-2.42,15.18c-.5,3.21.71,4.46,3.04,4.46,1.04,0,1.96-.17,2.71-.46l-.21,1.21c-.67.29-1.58.5-2.67.5-3.3,0-4.84-2.09-4.3-5.76Z"/>
    <path class="cls-9" d="M144.85,103.39c.46-2.88.54-4.42.63-5.8h1.38c-.04,1.13-.17,2.96-.5,5.01,1.46-2.92,3.92-5.13,8.38-5.21l-.21,1.29c-4.3.17-7.88,2.63-8.84,8.72l-1.92,12.01h-1.42l2.5-16.02Z"/>
    <path class="cls-9" d="M173.76,113.56c-.42,2.59-.5,4.59-.54,5.84h-1.38c0-1.29.17-3.09.42-4.8-1.5,2.84-4.42,5.13-8.38,5.13-4.76,0-7.59-3.09-6.59-9.18l2.04-12.97h1.42l-2.09,13.14c-.83,5.17,1.38,7.76,5.38,7.76s7.93-2.79,8.72-7.8l2.09-13.1h1.42l-2.5,15.98Z"/>
    <path class="cls-9" d="M179.72,109.77c0-7.13,4.76-12.47,11.26-12.47,4.59,0,7.97,2.71,8.26,7.13h-1.42c-.21-3.63-2.92-5.92-6.92-5.92-5.88,0-9.72,4.92-9.72,11.26,0,5.38,3.21,8.72,8.18,8.72,4,0,7.13-2.21,8.18-6.34h1.38c-1.13,4.96-4.92,7.55-9.55,7.55-6.01,0-9.64-4.09-9.64-9.93Z"/>
    <path class="cls-9" d="M203.95,113.94l2.42-15.14h-3.3l.21-1.21h3.25l.79-4.96h1.42l-.79,4.96h6.09l-.21,1.21h-6.05l-2.42,15.18c-.5,3.21.71,4.46,3.05,4.46,1.04,0,1.96-.17,2.71-.46l-.21,1.21c-.67.29-1.59.5-2.67.5-3.3,0-4.84-2.09-4.3-5.76Z"/>
    <path class="cls-9" d="M219.34,97.59h1.46l-3.46,21.82h-1.42l3.42-21.82ZM219.84,91.71c0-.58.5-1.08,1.13-1.08s1.08.5,1.08,1.08-.5,1.13-1.13,1.13-1.08-.5-1.08-1.13Z"/>
    <path class="cls-9" d="M225.05,97.59h1.46l4.84,20.4,10.93-20.4h1.5l-11.68,21.82h-1.92l-5.13-21.82Z"/>
    <path class="cls-9" d="M244.65,109.85c0-6.72,4.42-12.56,11.39-12.56,5.88,0,9.39,4.5,9.39,9.84,0,7.05-4.34,12.56-11.26,12.56-5.71,0-9.51-4.38-9.51-9.84ZM263.97,107.14c0-4.67-2.84-8.63-7.97-8.63-6.26,0-9.89,5.21-9.89,11.35,0,4.71,3.05,8.63,8.09,8.63,6.05,0,9.76-4.96,9.76-11.35Z"/>
  </g>
</svg>