<?xml version="1.0" encoding="UTF-8"?>
<svg id="Capa_1" data-name="Capa 1" xmlns="http://www.w3.org/2000/svg" xmlns:xlink="http://www.w3.org/1999/xlink" viewBox="0 0 587 327">
  <defs>
    <style>
      .cls-1 {
        fill: #44a5d3;
      }

      .cls-1, .cls-2, .cls-3, .cls-4, .cls-5, .cls-6, .cls-7, .cls-8, .cls-9, .cls-10 {
        stroke-width: 0px;
      }

      .cls-2 {
        fill: #479aba;
      }

      .cls-3 {
        fill: none;
      }

      .cls-11 {
        filter: url(#drop-shadow-1);
      }

      .cls-4 {
        fill: #026591;
      }

      .cls-5 {
        filter: url(#drop-shadow-4);
      }

      .cls-5, .cls-8 {
        fill: #1d1d1b;
      }

      .cls-12 {
        opacity: .3;
      }

      .cls-6, .cls-7 {
        fill: #f9f8fc;
      }

      .cls-7 {
        filter: url(#drop-shadow-3);
      }

      .cls-13 {
        clip-path: url(#clippath);
      }

      .cls-9 {
        fill: #65c8d0;
      }

      .cls-10 {
        fill: #f6f5f9;
      }
    </style>
    <filter id="drop-shadow-1" filterUnits="userSpaceOnUse">
      <feOffset dx="15" dy="0"/>
      <feGaussianBlur result="blur" stdDeviation="20"/>
      <feFlood flood-color="#000" flood-opacity=".5"/>
      <feComposite in2="blur" operator="in"/>
      <feComposite in="SourceGraphic"/>
    </filter>
    <clipPath id="clippath">
      <rect class="cls-3" x="1771.5" y="532" width="982" height="796"/>
    </clipPath>
    <filter id="drop-shadow-3" filterUnits="userSpaceOnUse">
      <feOffset dx="9.65" dy="6.75"/>
      <feGaussianBlur result="blur-2" stdDeviation="14.47"/>
      <feFlood flood-color="#000" flood-opacity=".3"/>
      <feComposite in2="blur-2" operator="in"/>
      <feComposite in="SourceGraphic"/>
    </filter>
    <filter id="drop-shadow-4" filterUnits="userSpaceOnUse">
      <feOffset dx="4.82" dy="4.82"/>
      <feGaussianBlur result="blur-3" stdDeviation="9.65"/>
      <feFlood flood-color="#1d1d1b" flood-opacity=".75"/>
      <feComposite in2="blur-3" operator="in"/>
      <feComposite in="SourceGraphic"/>
    </filter>
  </defs>
  <g class="cls-11">
    <g class="cls-13">
      <g>
        <path class="cls-1" d="M-711.95-1768.1c-1923.33,0-3482.49,1571.3-3482.49,3509.6s1559.16,3509.6,3482.49,3509.6,3482.49-1571.3,3482.49-3509.6S1211.37-1768.1-711.95-1768.1h0Z"/>
        <path class="cls-4" d="M-773.78-1756.1c-1931.67,0-3497.6,1565.93-3497.6,3497.6s1565.93,3497.6,3497.6,3497.6,3497.6-1565.93,3497.6-3497.6S1157.89-1756.1-773.78-1756.1h0Z"/>
        <circle class="cls-10" cx="-842.84" cy="1741.5" r="3509.6"/>
      </g>
    </g>
  </g>
  <rect class="cls-2" x="7.78" y="8.36" width="225.79" height="309.74" rx="47.64" ry="47.64"/>
  <rect class="cls-7" x="37.7" y="8.01" width="540.35" height="310.53" rx="48" ry="48"/>
  <g class="cls-12">
    <path class="cls-9" d="M303.67,65.35c57.25-.85,105.39,47.61,105.23,105.37-.16,57.25-47.99,105.06-105.45,104.92-57.74-.14-105.31-48.41-105.03-105.76.28-57.05,47.95-105.36,105.25-104.54ZM303.59,73.79c-53.02-.74-96.82,44.05-96.73,96.8.09,52.3,43.5,96.81,96.68,96.52,53.8-.29,96.43-42.88,96.83-96.67.39-53.36-44.44-97.59-96.78-96.64Z"/>
    <path class="cls-9" d="M369.6,143.61c-.18,1.18-1.09,1.86-1.85,2.62-24.97,24.98-49.96,49.94-74.88,74.97-2.02,2.03-3.32,1.99-5.32-.02-15.94-16.07-31.95-32.07-48.01-48.03-1.96-1.95-2.19-3.34-.1-5.37,7.22-7.05,14.36-14.19,21.41-21.41,1.92-1.96,3.22-1.75,5.03.09,7.16,7.3,14.53,14.4,21.61,21.78,2.17,2.26,3.35,2.11,5.48-.04,15.82-16,31.83-31.81,47.63-47.83,2.62-2.65,4.18-2.81,6.81-.03,6.56,6.93,13.44,13.56,20.18,20.32.85.85,1.9,1.6,2.01,2.97ZM290.58,210.49c.74-.66,1.68-1.41,2.53-2.26,12.72-12.7,25.44-25.42,38.15-38.14,7.99-7.99,15.94-16.04,24.02-23.95,2.04-2,2.11-3.38-.02-5.3-2.83-2.55-5.63-5.19-8.06-8.11-2.4-2.88-3.95-2.46-6.42.05-15.69,15.9-31.58,31.61-47.29,47.48-2.36,2.38-3.87,2.5-6.25.03-6.99-7.26-14.26-14.25-21.3-21.47-1.89-1.94-3.16-1.93-4.97.03-2.86,3.1-5.87,6.08-8.95,8.96-1.84,1.72-2.21,3-.2,4.99,12.11,11.97,24.11,24.05,36.16,36.08.66.66,1.23,1.48,2.61,1.6Z"/>
  </g>
  <g>
    <circle class="cls-5" cx="488.62" cy="253.33" r="45.47"/>
    <g>
      <path class="cls-6" d="M479.99,247.87c0-3.45-.02-6.9,0-10.35.01-1.97.8-3.55,2.61-4.44,1.65-.81,3.28-.59,4.74.53,1.2.92,1.74,2.18,1.74,3.68.01,2.86.03,5.72,0,8.58-.01.97.25,1.41,1.3,1.36,1.74-.07,3.06.74,3.91,2.24.31.55.66.72,1.31.63,1.77-.24,3.27.42,4.23,1.9.56.87,1.15,1.02,2.1.99,2.37-.08,4.48,1.65,4.52,4.01.08,4.99.58,10.02-.24,14.95-.98,5.91-4.5,10.05-10.09,12.22-5.43,2.1-10.57,1.4-15.03-2.47-2.4-2.09-4.17-4.78-6.22-7.21-2.64-3.12-5.22-6.29-7.83-9.43-1.26-1.52-1.88-3.19-1.3-5.17,1-3.41,4.19-4.85,7.72-3.5,1.66.64,2.87,1.88,4.22,2.95.49.39.96.93,1.68.57.71-.35.6-1.06.6-1.68,0-3.45,0-6.9,0-10.35h0ZM485.92,248.91c0-3.54,0-7.08,0-10.62,0-.45,0-.92-.13-1.34-.19-.68-.67-1.08-1.42-.98-.71.1-.98.59-1.01,1.25-.02.45-.02.91-.02,1.36,0,6.58,0,13.17,0,19.75,0,2.43-.94,3.98-2.78,4.71-1.59.62-3.01.29-4.34-.73-1.26-.96-2.32-2.2-3.8-2.85-1.09-.48-2.22-.63-3.1.46-.71.88-.56,2.14.34,3.23,3.97,4.79,7.93,9.58,11.92,14.36.96,1.15,1.98,2.24,3.31,3,7.14,4.05,16.8-.62,18.14-8.91.75-4.59.26-9.24.29-13.87,0-.78-.4-1.47-1.31-1.45-.89.02-1.21.66-1.23,1.49-.02.95,0,1.91-.12,2.85-.12.86-.73,1.38-1.62,1.35-.82-.02-1.34-.53-1.51-1.33-.09-.44-.1-.9-.1-1.35-.02-1.54,0-3.09-.03-4.63,0-.66-.29-1.15-1-1.25-.75-.1-1.22.3-1.43.98-.11.38-.12.8-.12,1.21-.01,1.5-.02,3,0,4.49,0,.68-.15,1.26-.77,1.64-1.14.7-2.37-.14-2.4-1.71-.04-2.59-.02-5.18-.01-7.76,0-.89-.18-1.75-1.22-1.79-1.14-.04-1.35.85-1.35,1.8,0,2.45,0,4.9,0,7.36,0,1.56-.59,2.38-1.64,2.36-1.02-.03-1.53-.77-1.53-2.29,0-3.59,0-7.17,0-10.76Z"/>
      <path class="cls-6" d="M484.6,226.8c5.49.02,10.23,4.57,10.24,9.8,0,1.05-.18,1.99-1.44,2.05-1.29.07-1.65-.81-1.76-1.94-.3-3.23-2.48-5.82-5.37-6.45-3.25-.71-6.27.62-7.91,3.42-.57.97-.77,2.04-.9,3.11-.14,1.13-.5,2.01-1.82,1.85-1.29-.16-1.46-1.18-1.41-2.25.26-5.24,4.97-9.6,10.36-9.59Z"/>
    </g>
  </g>
  <g>
    <path class="cls-8" d="M72.59,134.96h12.85c8.45,0,13.72,3.94,13.72,11.17,0,10.19-7.41,14.47-16.38,14.47h-6.54l-2.49,15.75h-7.7l6.54-41.39ZM82.77,155.04c5.9,0,8.92-3.01,8.92-8.34,0-3.99-2.32-5.85-7.12-5.85h-5.21l-2.26,14.18h5.67Z"/>
    <path class="cls-8" d="M122.78,166.1h-15.8l-4.86,10.25h-7.41l20.38-41.39h10.07l7.12,41.39h-7.82l-1.68-10.25ZM109.64,160.49h12.27l-3.07-19.22-9.2,19.22Z"/>
    <path class="cls-8" d="M135,175.31l26.4-34.39h-18.81l.93-5.96h29.93l-.12.98-26.05,34.33h19.92l-.93,6.08h-31.38l.12-1.04Z"/>
    <path class="cls-8" d="M199.9,158.4l-9.96-23.45h8.1l6.83,17.08,11.69-17.08h7.82l-16.79,23.97-2.78,17.43h-7.76l2.84-17.95Z"/>
    <path class="cls-8" d="M236.49,163.5h7.41c.17,3.94,2.6,7.64,9.09,7.64,5.15.06,7.99-2.49,7.99-6.6,0-3.07-1.74-4.57-7.7-6.19-8.68-2.2-12.68-4.98-12.68-11.58s5.67-12.33,14.94-12.33c8.74,0,14.24,4.05,14.3,11.98h-7.06c-.41-4.57-3.3-6.19-7.64-6.19-4.86,0-7.12,2.49-7.12,5.85,0,2.72,1.62,4.05,7.76,5.73,8.63,2.32,12.79,5.15,12.79,11.75,0,7.76-5.85,13.37-15.86,13.37-10.77,0-16.21-5.85-16.21-13.43Z"/>
    <path class="cls-8" d="M297.85,166.1h-15.8l-4.86,10.25h-7.41l20.38-41.39h10.07l7.12,41.39h-7.82l-1.68-10.25ZM284.71,160.49h12.27l-3.07-19.22-9.2,19.22Z"/>
    <path class="cls-8" d="M319.68,134.96h7.7l-5.56,35.26h17.66l-.98,6.14h-25.36l6.54-41.39Z"/>
    <path class="cls-8" d="M343.13,134.96h7.82l5.5,33.58,16.09-33.58h7.47l-20.55,41.39h-8.97l-7.35-41.39Z"/>
    <path class="cls-8" d="M398.42,176.93c-11.29,0-19.34-7.35-19.34-18.41,0-13.66,9.67-24.14,22.75-24.14,11.75,0,19.28,7.76,19.28,18.53,0,14.01-9.67,24.03-22.69,24.03ZM401.66,140.51c-9.15,0-14.59,8.34-14.59,17.83,0,7.64,4.63,12.45,11.69,12.45,8.8,0,14.36-7.87,14.36-17.71,0-6.95-3.88-12.5-11.46-12.56Z"/>
  </g>
  <g>
    <path class="cls-8" d="M77.95,87.41h1.53l-4.8,30.35h-1.53l4.8-30.35Z"/>
    <path class="cls-8" d="M84.87,101.46c.47-2.93.55-4.5.64-5.9h1.4c-.04,1.15-.17,2.97-.47,4.88,1.49-2.84,4.5-5.22,8.58-5.22,4.84,0,7.77,3.06,6.79,9.34l-2.08,13.2h-1.49l2.12-13.41c.85-5.31-1.49-7.85-5.56-7.85s-8.11,2.8-8.91,7.94l-2.12,13.33h-1.44l2.55-16.3Z"/>
    <path class="cls-8" d="M105.38,111.23h1.4c.25,3.52,2.29,5.69,6.79,5.69,3.57,0,6.28-1.66,6.28-5.09,0-2.63-1.53-3.74-5.52-4.84-4.5-1.27-6.58-2.63-6.58-5.86,0-3.91,3.4-5.86,7.3-5.86s7,1.57,7.34,5.77h-1.4c-.25-2.93-2.29-4.54-5.99-4.54-3.35,0-5.86,1.49-5.86,4.58,0,2.42,1.53,3.44,5.65,4.63,4.25,1.19,6.5,2.46,6.5,6.07,0,4.16-3.48,6.37-7.77,6.37-4.97,0-7.94-2.46-8.15-6.92Z"/>
    <path class="cls-8" d="M127.33,112.2l2.46-15.41h-3.35l.21-1.23h3.31l.81-5.05h1.44l-.81,5.05h6.2l-.21,1.23h-6.16l-2.46,15.45c-.51,3.27.72,4.54,3.1,4.54,1.06,0,2-.17,2.76-.47l-.21,1.23c-.68.3-1.61.51-2.72.51-3.35,0-4.92-2.12-4.37-5.86Z"/>
    <path class="cls-8" d="M141.97,101.46c.47-2.93.55-4.5.64-5.9h1.4c-.04,1.15-.17,3.01-.51,5.09,1.49-2.97,3.99-5.22,8.53-5.31l-.21,1.32c-4.37.17-8.02,2.67-9,8.87l-1.95,12.23h-1.44l2.55-16.3Z"/>
    <path class="cls-8" d="M171.39,111.82c-.42,2.63-.51,4.67-.55,5.94h-1.4c0-1.32.17-3.14.42-4.88-1.53,2.89-4.5,5.22-8.53,5.22-4.84,0-7.73-3.14-6.71-9.34l2.08-13.2h1.44l-2.12,13.37c-.85,5.26,1.4,7.9,5.48,7.9s8.07-2.84,8.87-7.94l2.12-13.33h1.44l-2.55,16.26Z"/>
    <path class="cls-8" d="M177.47,107.96c0-7.26,4.84-12.69,11.46-12.69,4.67,0,8.11,2.76,8.4,7.26h-1.44c-.21-3.69-2.97-6.03-7.05-6.03-5.99,0-9.89,5.01-9.89,11.46,0,5.48,3.27,8.87,8.32,8.87,4.08,0,7.26-2.25,8.32-6.45h1.4c-1.15,5.05-5.01,7.68-9.72,7.68-6.11,0-9.81-4.16-9.81-10.1Z"/>
    <path class="cls-8" d="M202.13,112.2l2.46-15.41h-3.35l.21-1.23h3.31l.81-5.05h1.44l-.81,5.05h6.2l-.21,1.23h-6.16l-2.46,15.45c-.51,3.27.72,4.54,3.1,4.54,1.06,0,2-.17,2.76-.47l-.21,1.23c-.68.3-1.61.51-2.72.51-3.35,0-4.92-2.12-4.37-5.86Z"/>
    <path class="cls-8" d="M217.8,95.56h1.49l-3.52,22.2h-1.44l3.48-22.2ZM218.31,89.58c0-.59.51-1.1,1.15-1.1s1.1.51,1.1,1.1-.51,1.15-1.15,1.15-1.1-.51-1.1-1.15Z"/>
    <path class="cls-8" d="M223.62,95.56h1.49l4.92,20.76,11.12-20.76h1.53l-11.89,22.2h-1.95l-5.22-22.2Z"/>
    <path class="cls-8" d="M243.57,108.04c0-6.83,4.5-12.78,11.59-12.78,5.99,0,9.55,4.58,9.55,10.02,0,7.17-4.42,12.78-11.46,12.78-5.82,0-9.68-4.46-9.68-10.02ZM263.23,105.28c0-4.75-2.89-8.79-8.11-8.79-6.37,0-10.06,5.31-10.06,11.55,0,4.8,3.1,8.79,8.24,8.79,6.16,0,9.93-5.05,9.93-11.55Z"/>
  </g>
</svg>