<?xml version="1.0" encoding="UTF-8"?>
<svg id="Capa_1" data-name="Capa 1" xmlns="http://www.w3.org/2000/svg" xmlns:xlink="http://www.w3.org/1999/xlink" viewBox="0 0 325 551">
  <defs>
    <style>
      .cls-1 {
        fill: #9f745e;
      }

      .cls-1, .cls-2, .cls-3, .cls-4, .cls-5, .cls-6, .cls-7, .cls-8, .cls-9, .cls-10, .cls-11, .cls-12, .cls-13, .cls-14, .cls-15, .cls-16, .cls-17, .cls-18, .cls-19, .cls-20, .cls-21, .cls-22, .cls-23, .cls-24, .cls-25, .cls-26, .cls-27, .cls-28, .cls-29, .cls-30, .cls-31, .cls-32, .cls-33, .cls-34, .cls-35, .cls-36, .cls-37, .cls-38, .cls-39, .cls-40, .cls-41, .cls-42, .cls-43, .cls-44, .cls-45, .cls-46, .cls-47, .cls-48, .cls-49, .cls-50, .cls-51, .cls-52, .cls-53, .cls-54, .cls-55, .cls-56, .cls-57, .cls-58, .cls-59, .cls-60, .cls-61, .cls-62, .cls-63, .cls-64, .cls-65, .cls-66, .cls-67, .cls-68, .cls-69, .cls-70, .cls-71, .cls-72, .cls-73, .cls-74, .cls-75, .cls-76, .cls-77, .cls-78, .cls-79, .cls-80, .cls-81, .cls-82, .cls-83, .cls-84, .cls-85, .cls-86, .cls-87, .cls-88, .cls-89, .cls-90, .cls-91, .cls-92, .cls-93, .cls-94, .cls-95, .cls-96, .cls-97, .cls-98, .cls-99, .cls-100, .cls-101, .cls-102, .cls-103, .cls-104, .cls-105, .cls-106, .cls-107, .cls-108 {
        stroke-width: 0px;
      }

      .cls-2 {
        fill: #2e261e;
      }

      .cls-3 {
        fill: #0d5b8a;
      }

      .cls-4 {
        fill: #245a7b;
      }

      .cls-5 {
        fill: #a97a67;
      }

      .cls-6 {
        fill: #3e3224;
      }

      .cls-7 {
        fill: #7d645c;
      }

      .cls-8 {
        fill: #9d8a88;
      }

      .cls-9 {
        fill: #c8b6b9;
      }

      .cls-10 {
        fill: #e7d8d7;
      }

      .cls-11 {
        fill: #948585;
      }

      .cls-12 {
        fill: #c48b55;
      }

      .cls-13 {
        fill: #694f41;
      }

      .cls-14 {
        fill: #b19f9f;
      }

      .cls-15 {
        fill: #d2bfc1;
      }

      .cls-16 {
        fill: #44a5d3;
      }

      .cls-17 {
        fill: #573c32;
      }

      .cls-18 {
        fill: #5d341e;
      }

      .cls-19 {
        fill: #4e3930;
      }

      .cls-20 {
        fill: #936b55;
      }

      .cls-21 {
        fill: #1e1913;
      }

      .cls-22 {
        fill: #543629;
      }

      .cls-23 {
        fill: #77594d;
      }

      .cls-24 {
        fill: #383b3d;
      }

      .cls-25 {
        fill: #563b30;
      }

      .cls-26 {
        fill: #2b2017;
      }

      .cls-27 {
        fill: #482b1b;
      }

      .cls-28 {
        fill: #cca392;
      }

      .cls-29 {
        fill: #403227;
      }

      .cls-30 {
        fill: #bb8250;
      }

      .cls-31 {
        fill: #614738;
      }

      .cls-32 {
        fill: #804b26;
      }

      .cls-33 {
        fill: #6d4723;
      }

      .cls-34 {
        fill: #74564a;
      }

      .cls-35 {
        fill: #98643c;
      }

      .cls-36 {
        fill: #b3846f;
      }

      .cls-37 {
        fill: #a16436;
      }

      .cls-38 {
        fill: #583e27;
      }

      .cls-39 {
        fill: #78635f;
      }

      .cls-40 {
        fill: #b58772;
      }

      .cls-41 {
        fill: #ac8374;
      }

      .cls-42 {
        fill: #373633;
      }

      .cls-43 {
        fill: #5c483a;
      }

      .cls-44 {
        fill: #a47a6a;
      }

      .cls-45 {
        fill: #b06e3d;
      }

      .cls-46 {
        fill: #755d52;
      }

      .cls-47 {
        fill: #39261c;
      }

      .cls-48 {
        fill: #211810;
      }

      .cls-49 {
        fill: none;
      }

      .cls-109 {
        filter: url(#drop-shadow-1);
      }

      .cls-50 {
        fill: #026591;
      }

      .cls-51 {
        fill: #8d5f38;
      }

      .cls-52 {
        fill: #824d2c;
      }

      .cls-53 {
        fill: #995b2f;
      }

      .cls-54 {
        fill: #b57b4a;
      }

      .cls-55 {
        fill: #cc9a66;
      }

      .cls-56 {
        fill: #9f7049;
      }

      .cls-57 {
        fill: #895937;
      }

      .cls-58 {
        fill: #c0927d;
      }

      .cls-59 {
        fill: #643b21;
      }

      .cls-60 {
        fill: #9c927d;
      }

      .cls-61 {
        fill: #37332b;
      }

      .cls-62 {
        fill: #325669;
      }

      .cls-63 {
        fill: #312319;
      }

      .cls-64 {
        fill: #7a5235;
      }

      .cls-65 {
        fill: #9b837d;
      }

      .cls-66 {
        fill: #594636;
      }

      .cls-67 {
        fill: #79533f;
      }

      .cls-68 {
        fill: #be8856;
      }

      .cls-69 {
        fill: #452d1f;
      }

      .cls-110 {
        clip-path: url(#clippath);
      }

      .cls-70 {
        fill: #503f32;
      }

      .cls-71 {
        fill: #403122;
      }

      .cls-72 {
        fill: #e1ae7b;
      }

      .cls-73 {
        fill: #b1856d;
      }

      .cls-74 {
        fill: #4a3f33;
      }

      .cls-75 {
        fill: #664231;
      }

      .cls-76 {
        fill: #5f453c;
      }

      .cls-77 {
        fill: #c08c5c;
      }

      .cls-78 {
        fill: #774826;
      }

      .cls-79 {
        fill: #2d4c5e;
      }

      .cls-80 {
        fill: #8b5f49;
      }

      .cls-81 {
        fill: #543d35;
      }

      .cls-82 {
        fill: #324f5e;
      }

      .cls-83 {
        fill: #674430;
      }

      .cls-84 {
        fill: #453526;
      }

      .cls-85 {
        fill: #462b20;
      }

      .cls-86 {
        fill: #5c381f;
      }

      .cls-87 {
        fill: #766057;
      }

      .cls-88 {
        fill: #613322;
      }

      .cls-89 {
        fill: #854e2a;
      }

      .cls-90 {
        fill: #4a3326;
      }

      .cls-91 {
        fill: #754738;
      }

      .cls-92 {
        fill: #5f3c2a;
      }

      .cls-93 {
        fill: #7d5640;
      }

      .cls-94 {
        fill: #8b5f4c;
      }

      .cls-95 {
        fill: #3f2e1f;
      }

      .cls-96 {
        fill: #37484e;
      }

      .cls-97 {
        fill: #795144;
      }

      .cls-98 {
        fill: #865734;
      }

      .cls-99 {
        fill: #733f32;
      }

      .cls-100 {
        fill: #f6f5f9;
      }

      .cls-101 {
        fill: #9b7666;
      }

      .cls-102 {
        fill: #936b57;
      }

      .cls-103 {
        fill: #d89f6a;
      }

      .cls-104 {
        fill: #ad8373;
      }

      .cls-105 {
        fill: #b48473;
      }

      .cls-106 {
        fill: #564236;
      }

      .cls-107 {
        fill: #523324;
      }

      .cls-108 {
        fill: #bd907c;
      }
    </style>
    <filter id="drop-shadow-1" filterUnits="userSpaceOnUse">
      <feOffset dx="15" dy="0"/>
      <feGaussianBlur result="blur" stdDeviation="20"/>
      <feFlood flood-color="#000" flood-opacity=".5"/>
      <feComposite in2="blur" operator="in"/>
      <feComposite in="SourceGraphic"/>
    </filter>
    <clipPath id="clippath">
      <rect class="cls-49" x="1895" y="22" width="982" height="796"/>
    </clipPath>
  </defs>
  <g class="cls-109">
    <g class="cls-110">
      <g>
        <path class="cls-16" d="M-588.45-2278.1c-1923.33,0-3482.49,1571.3-3482.49,3509.6s1559.16,3509.6,3482.49,3509.6,3482.49-1571.3,3482.49-3509.6S1334.87-2278.1-588.45-2278.1h0Z"/>
        <path class="cls-50" d="M-650.28-2266.1c-1931.67,0-3497.6,1565.93-3497.6,3497.6s1565.93,3497.6,3497.6,3497.6,3497.6-1565.93,3497.6-3497.6S1281.39-2266.1-650.28-2266.1h0Z"/>
        <circle class="cls-100" cx="-719.34" cy="1231.5" r="3509.6"/>
      </g>
    </g>
  </g>
  <path class="cls-47" d="M103.08,542.26h-13.08c-1.24-1.36-2.48-2.73-3.7-4.1-1.27-1.42-.79-2.63,1.07-3.1,1.8-.45,3.65-.02,5.54,0-1.68-4.3-3.16-5.41-7.04-5.12-1.27.1-2.08-.4-2.76-1.32-.51-.7-1.01-1.39-1.76-1.89-3.77-2.53-4.52-2.19-4.92,2.31-.16,1.79-.49,3.55-2.3,4.37-1.77.81-3.13-.05-4.22-1.48-.55-.88-.88-1.83-1-2.85.66-4.23-.56-8.67,1.46-12.78.67-1.35.12-2.75-.57-4.04-.91-1.72-1.96-3.39-2.22-5.38-.11-3.23-.25-6.46,2.12-9.11,2.35-1,3.61-2.82,3.99-5.31.32-.8.86-1.41,1.61-1.84.77-.38,1.54-.64,2.35-.1-.34,3.18-2.36,6.07-1.54,9.48.28,1.16.21,2.37,1.61,2.77.69-.65.43-1.34.37-1.95-.58-5.69,3.18-10.84,11.07-10.2.2.02.41.22.61.18,2.45-.49,6.34-7.67,5.29-10.04-1.8-4.07-.23-8.15-.16-12.21.02-1.05.82-2.29,2.36-2.25.66.58.64,1.37.58,2.12-.5,5.97,2.79,9.98,6.9,13.56-1.51-2.11-3.08-4.21-4.84-6.14-2.12-2.33-2.3-5.12-1.91-7.98.18-1.33.93-2.46,2.65-2.12.93,1.26.23,2.47-.1,3.71-.23.86-.39,1.9.66,2.21,1,.29,1.08-.84,1.38-1.47.75-1.57,1.2-3.24,1.77-4.88.33-.97.9-1.82,2.05-1.79,1.13.03,1.62.92,2,1.87.79,2.02.14,3.75-.88,5.53-2.64,4.64-1.12,9.33,3.71,11.78,3.06,1.56,4.1,3.84,3.24,7.14-2.39.58-2.51-1.86-3.8-2.8.46,1.32,1.34,2.36,2.18,3.43,1.21,1.53,1.83,3.32,1.46,5.19-.74,3.72-.81,7.53-1.66,11.22-.51,2.2-1.16,4.4-3.15,5.92-1.38,1.05-1.68,2.74-1.96,4.36-.67,3.78-2.68,5.85-6.26,5.53-1.97-.18-2.64.48-2.95,2.01-.32,1.56-3,2.83-1.7,4.08,1.3,1.25,2.1-1.49,3.44-2.06,1.96-.82,3.12-.44,3.69,1.61.23.83.03,1.71.28,2.61.29-1.45-.22-2.79-.25-4.15-.02-.91.26-1.76,1.19-2.14,1-.41,1.64.29,2.22.94,2.74,3.07,2.78,7.36.41,10.95-1.36,2.05-2.05,4.57-4.52,5.73Z"/>
  <path class="cls-9" d="M200.54,542.26h-49.71c-4.62-5.24-10.53-8.99-15.68-13.63-1.65-1.49-2.6-3.2-1.45-5.16,2.14-3.64,2.96-7.59,3.81-11.64.59-2.81,2.44-5.31,3.39-8.11.67-1.97,1.18-3.92,1.26-6.02.16-3.98,2.63-7.01,6.56-8.35.34,0,.67.07.99.17,1.31.99,3.71.73,3.72,3.22-1.12,1.02-2.58,1.02-3.94,1.4-2.21.61-2.75,2.03-.99,3.47,2.96,2.4,4.48,5.86,6.95,8.6,3.57,3.96,3.64,6.72.41,10.98-1.29,1.7-1.06,3.29-.15,4.85,1.08,1.83,2.07,3.98,4.77,3.83,1.41-.08,2.82-.19,4.24-.25,1.14-.04,2.17.16,2.7,1.37,1.02,2.31,4.49,3.48,6.43,1.89,1.76-1.44,3.09-1.75,4.72.04.93,1.02,2.04.27,3.02-.15,2.8-1.2,5.53-2.57,8.54-3.2,1.6-.34,2.36-1.5,2.62-2.99.83-4.78.4-9.14-2.93-13.17-4.1-4.95-6.11-10.25-3.13-17.02,1.43-3.25,2.64-7.71-.54-11.32-.61-1.62.78-2.32,1.52-3.32,1.68-1.28,2.66-3.5,5.04-3.86,2.69,1.98,3.34,3.85,1.97,6.62-2.34,4.72-2,9.36-.24,14.17,3.1,8.45,6.06,16.95,5.75,26.17-.03.98.09,1.96.3,2.91.9,4.04,1.66,8.1.27,12.17-.72,2.11.94,4.27-.23,6.34Z"/>
  <path class="cls-72" d="M14.13,542.26c2.69-8.67,5.22-17.39,8.13-25.99,1.13-3.34-.64-6.1-.82-9.14,1.32.67.81,2.43,2.37,3.55,3.62-10.87,7.85-21.36,8.1-32.88.13-.54.81.13.9-.37.77-4.44,3.41-7.86,6.09-11.26.95-1.2,1.51-2.62,2.2-3.96,3.82-7.01,8.24-13.5,14.18-18.97,2.85-2.63,5.87-4.39,9.65-4.98,1.9.23,2.39,1.23,1.63,2.93-2.57,5.47-5.15,10.91-4.6,17.25.21,2.43,1.07,5.25-2.84,6.18-1.49.35-1.26,2.61-1.46,4.07-.74,5.28-1.05,10.6-1.45,15.92-.16,2.08.09,5.14-2.61,5.19-2.38.05-2.39-2.98-2.82-4.93-.44-2.01-.32-4.12-1.11-6.08-.57-1.41-.8-2.08-2.65-.79-3.9,2.73-3.85,6.87-4.38,10.67-.63,4.46-2.62,8.76-1.62,13.45.22,1.04-.45,2.21-1.74,2.42-1.35.22-1.93-.91-2.36-1.88-1.27-2.88-2.28-5.85-2.55-7.81,1.65,5.44,2.75,12.31,6.84,18.1.82,1.16,1.22,2.54,1.77,3.85.78,1.86.58,3.41-1.26,4.5-2.42,1.43-3.2,3.57-3.18,6.32.03,4.03-3.69,7.68-7.59,7.81-1.41.05-2.15-.84-2.88-1.82-1.49-2.02-1.65-4.44-2.02-7.61-1.82,4.65-4.1,8.38-1.81,12.88.54,1.06.67,2.32-.29,3.37h-9.81Z"/>
  <path class="cls-12" d="M301.31,490.56c3.42,6.99,4.36,14.7,6.4,22.1,2.45,8.88,4.7,17.8,7,26.72.24.92.2,1.92.29,2.88h-13.08c-.67-.74-.44-1.63-.39-2.49.27-4.77.42-9.53-1.23-14.13-.7.78-.82,1.91-1.38,2.82-.66,1.07-1.44,2.01-2.83,1.83-1.47-.18-2.25-1.21-2.65-2.56-.19-.63-.27-1.29-.25-1.94.09-2.97-1.09-4.79-4.29-4.94-1.44-.07-2.53-.72-2.62-2.34-.07-1.26-.77-1.9-1.85-2.41-2.16-1-2.23-2.73-1.4-4.67.94-2.22,2.16-4.27,3.62-6.18.88-1.16.95-1.95-.16-3.33-1.59-1.98-2.66-4.42-2.91-7.1-.27-2.94-.18-5.87-.23-9.29-.95,2.69-.73,5.24-2.02,7.34-.4.65-.85,1.32-1.76,1.2-.77-.1-1.12-.73-1.19-1.38-.72-6.48-4.9-11.91-5.63-18.34-.83-7.29-5.07-13.27-7.37-20-1.57-4.58-2.28-9.28-3.3-13.94-.17-.76-.04-1.52.45-2.18.88-.6,1.66-.26,2.42.26,2.34,2.53,4.18,5.03,3.15,9-.68,2.62.26,5.44,2.57,7.37,1.72,1.44,2.8,3.33,3.86,5.22,1.1,1.95,2.36,2.77,4.44,1.33.71-.49,1.59-.72,2.45-.88,3.17-.6,5.1.69,5.56,3.89.31,2.16.34,4.37-.05,6.52-.95,5.27-.46,10.21,3.19,14.62.97-3.53,1.47-7.1,1.73-10.72.06-.87.02-1.75.23-2.6.23-.9.65-1.64,1.74-1.62.91.02,1.39.64,1.56,1.42.46,2.02,1.45,3.88,1.78,5.94.7,4.42,2.14,8.6,4.16,12.59Z"/>
  <path class="cls-103" d="M23.94,542.26c-.02-.54.17-1.21-.08-1.62-3.51-5.9-.14-11.01,1.68-16.35,1.43.18,1.46,1.26,1.61,2.16.13.74-.05,1.54.08,2.28.43,2.44.74,5.42,3.51,5.98,2.9.58,7.11-3.76,6.88-6.7-.28-3.53.63-6.21,4.03-7.7,1.33-.59,1.21-1.44.77-2.66-.98-2.68-2.53-5.03-3.86-7.52-3.1-5.8-4.36-12.16-5.42-18.56-.06-.38.16-.81.74-1.32.79,2.68,1.58,5.36,2.36,8.05.06.21.06.44.12.64.6,1.9,1.13,5.1,2.88,4.77,2-.38.72-3.24.64-5.12-.08-1.81.29-3.63.93-5.51,1.19-3.51,1.55-7.33,2.05-11.04.21-1.59.09-3.08,2.24-3.29,1.18-.11,1.32-1.31,1.85-2.1.41-.62.78-1.47,1.67-1.3.79.15,1.1.94,1.46,1.63,1.48,2.9,1.01,6.18,1.91,9.19.19.62.26,1.28.49,1.88.22.6.44,1.39,1.18,1.41.8.02.83-.81,1.1-1.39,1.08-2.37.78-4.97.89-7.38.22-5.19.92-10.28,1.66-15.39.21-1.47.45-2.9,2.6-2.01,1.44.59,1.44-.65,1.28-1.41-1.19-5.91.64-11.29,2.5-16.75.53-1.57.93-3.05,2.12-4.22,1.65,2.12.34,4.2-.25,6.18-1.78,5.95-3.42,11.83-2.24,18.21.63,3.39.12,6.94.08,10.42-.01.99-.1,2.18-1.02,2.62-2.42,1.15-2.27,3.23-2.19,5.3.14,3.32-.09,6.53-2.26,9.29-.34.44-.49.97-.49,1.53,0,6.93-1.56,13.55-3.9,20.02-.22.75-.59,1.49-1.28,1.83-2.28,1.14-2.55,3.19-2.23,5.27.4,2.59-.22,4.72-1.92,6.63-.73.83-1.19,1.82-1.46,2.89-1.15,4.46-4.34,7.65-7.02,11.15h-15.7Z"/>
  <path class="cls-30" d="M262.66,438.29c1.08,5.61,1.73,11.26,3.99,16.65,3.13,7.46,6.76,14.77,7.91,22.95.3,2.1,1.31,4.13,2.17,6.11,1.32,3.04,2.75,6.02,2.63,9.55,3.12-2.9,1.61-7.36,4.08-10.34,1.33.98.81,2.41.77,3.61-.17,4.68.1,9.26,2.02,13.63.23.52.36,1.09.97,1.15,3.75.33,1.54,2.09.73,3.3-1.51,2.25-3.07,4.46-4.2,6.95-.91,2.02-.84,3.39,1.78,3.61,1.47.12,2.29.87,1.74,2.38-.76,2.08.47,2.11,1.94,2.19,4.03.23,4.82,1.12,4.87,5.19,0,.54.01,1.09,0,1.63-.02,1.35.6,2.41,1.85,2.77,1.59.46,1.98-.95,2.48-2.01.6-1.28,1.1-2.59,1.69-3.87.12-.25.44-.41.75-.69,1.5,6.43,2.68,12.73,1.07,19.19h-8.5c-.88-1.15-.25-2.3.06-3.42,1.03-3.75-.21-7.77-3.46-9.65-2.72-1.58-4.23-4.58-6.35-6.88-1.12-1.22-1.78-1.34-2.75,0-1.15,1.58-2.22,3.26-4.02,4.21-2.34,1.24-4.08.41-4.54-2.19-.27-1.51-.23-3.06.1-4.55,2.08-9.18,1.14-18.16-1.81-26.99-.84-2.53-1.08-5.07-1.1-7.7-.02-2.97-.29-5.87-3.28-7.68-1.25-.75-1.27-2.23-1.21-3.55.26-5.23-.83-10.38-.77-15.61.04-4.05-2.27-7.4-4.34-10.72-1.2-1.3-1.97-2.82-2.17-4.58-.32-2.87-1.58-5.53-1.89-8.4,2.76-.38,5.39,1.07,6.76,3.74Z"/>
  <path class="cls-45" d="M260.72,446.79c3.47,5.22,4.91,10.85,4.73,17.2-.11,3.62.53,7.33.5,11.03,0,.76-.05,1.9.76,1.96,3.93.3,3.65,3.88,3.6,5.83-.16,6.14,1.93,11.7,3.32,17.46,1.51,6.23,1.05,12.51-.1,18.73-.28,1.52-.36,3.01-.39,4.52-.02,1.08-.18,2.31,1.11,2.8,1.17.44,2.15-.29,2.95-.99,2.04-1.79,3.31-4.22,5.01-6.56,3.28,4.2,6.42,8.2,10.46,11.51,2.5,2.04,2.49,5.41,1.76,8.53-.27,1.16-.68,2.29-1.02,3.43h-1.31c-1.09-1.17-.54-2.44-.18-3.68.33-1.15.64-2.29.41-3.52-.6-3.3-1.77-3.77-4.71-2.33-2.48,1.22-4.67,2.8-6.63,4.65-2.16,2.04-4.41,3.82-7.19,4.88h-18.31c-1.01-1.02-2.18-2.13-1.11-3.62,1.07-1.49,2.73-1.2,4.15-.58,2.22.98,4.5,1.58,6.92,1.53,3.99-.08,5.27-2.42,3.13-5.76-1.61-2.52-3.9-4.27-6.52-5.71-2.34-1.29-4.88-2.53-5.42-5.63-.11-.86-.1-1.71-.02-2.57,1.25-4.76.53-9.77,1.83-14.53.34-1.26.33-2.9,1.92-3.05,1.54-.15,2.51,1.22,3.21,2.43.98,1.68.87,3.62.54,5.43-.68,3.77-.26,7.62-1,11.37-.14.7-.09,1.43.49,2.06-.24-9.96,4.3-19.46,2.95-30.28-1.13,1.7-.9,2.88-.97,3.99-.06.98.02,1.97-.23,2.92-.32,1.23-.43,2.95-2.06,2.9-1.64-.05-1.67-1.71-1.83-3.01,1.49-9.49,1.52-19.12,2.81-28.62.28-2.02-.21-3.87-.9-5.71-.11-.35-.18-.7-.22-1.06-.13-4.73-.25-9.43-2.66-13.75-.72-1.29-.98-2.88.24-4.22Z"/>
  <path class="cls-19" d="M103.08,542.26c1.93-2.08,2.53-5.01,4.59-7.05,1.6-1.58.24-8.88-1.7-9.96-.44-.24-.81-.32-1.14.06-.57.65-.45,1.42-.26,2.17.53,2.07,1.23,4.16-1,5.91-.84-1.17-.36-2.27-.49-3.3-.14-1.14.42-2.75-.99-3.17-1.32-.39-2.53.79-3.2,1.8-.78,1.18-.98,2.93-2.89,1.4-1.67-1.34-1.01-2.53.31-3.75.61-.56,1.04-1.41,1.33-2.21.61-1.7.21-4.34,3.54-2.12,1.62,1.08,4.92-1.91,5.29-4.07.43-2.53.69-5.16,3.4-6.67,1.65-.93,1.71-3.11,1.98-4.63.66-3.65.92-7.37,1.65-11.03.79-3.99-3.01-5.98-4.33-9.08-.2-.46-.78-.77-.43-1.61,2.95.42,3.42,3.6,5.45,4.99.78.42,1.08,1.15,1.32,1.93.23,1.3.71,2.5,1.26,3.69.72,1.56.67,3.08.06,4.73-1.28,3.46-2.38,6.89-.42,10.64,1.07,2.04-.39,3.95-1.79,5.57-.69.8-1.79,1.54-.99,2.79.97,1.52,2.3,2.68,4.19,2.77,1.56.07,1.8-1.26,2.23-2.39.88-2.37,2.9-4.19,2.69-7.15-.12-1.63,1.86-1.88,3.34-1.67,1.66.23,2.8,1.13,3.02,2.92.11.91-.62,1.59-.69,2.49,1.39-1.37.42-3.38,1.42-4.83.73-.24,1.23.11,1.66.64.43,3.22-.22,6.18-2.41,8.64-1.08,1.22-1.96,2.54-2.73,3.95-.84,1.52-.79,2.85.65,3.97.77.85,1.62,1.64,2.23,2.63,1.52,4.23.25,8.51-3.25,10.99h-6.54c-.36-1.73,1.13-2.42,1.99-3.44.69-.83,1.59-1.49,2.19-2.41.39-.59.51-1.23.03-1.81-.57-.69-1.19-.36-1.7.09-1.45,1.28-2.78,1.78-3.93-.34-.6-1.1-1.34-.87-2.1-.15-1.04.97-1.97,2.03-2.69,3.26-.5.86-1.09,1.91-2.09,1.9-2.1-.02-2.64,1.56-3.48,2.9h-4.58Z"/>
  <path class="cls-54" d="M69.67,529.21c.24.86.48,1.72.73,2.58.65,1.11,1.14,2.27,1.43,3.52.16,1.47,1.34,2.38,2.02,3.55.7,1.21,1.06,2.34-.2,3.4h-24.85c-1.14-1.57-.44-3.14.59-4.16,3.92-3.89,2.5-8.41,1.72-12.81-.47-2.68-1.29-5.29.26-7.86.48-.7,1.19,1.69,1.79-.24.87-2.8,3.59-3.95,5.79-5.49.63-.44,1.41-.76,2.14-.26.83.57.91,1.52.63,2.36-1.06,3.14-1.09,6.81-3.95,8.41,2.3-2.1,3.19,1.16,5.13,2.29-.38-1.08-.81-1.86-1.32-2.57-1.1-1.52-1.07-3.01-.03-4.54.94-1.38,1.32-2.97,1.68-4.57,1.81-1.73,3.05-1.54,3.83.79.65,1.95.86,4.01,1,6.07.22,3.23.49,6.46,1.61,9.54Z"/>
  <path class="cls-8" d="M200.54,542.26c-1.47-3.66-.96-7.28.23-10.88.64-1.94-.65-3.55-.97-5.32-.99-5.43-.5-10.96-1.7-16.42-1.04-4.75-2.73-9.24-4.25-13.77-1.84-5.47-3-10.58.17-15.96,1.34-2.27.5-4.34-1.93-5.6-.24-.29-.31-.62-.2-.98.57-1.12,1.4-2.18,2.72-1.97,1.85.3,1.36,2.22,1.93,3.41.67,2.56.8,5.24,2.1,7.68.91,1.7.7,3.54-.59,5.11-2.01,2.9-.78,5.65.38,8.4.26.37.52.76.76,1.14.57,1.37,2.25,2.62.29,4.23-.66.54.3.84.57,1.12,1.53,1.53,3.21,2.89,4.87,4.29,6.56,5.54,5.53,6.4,3.82,14.85-.17.84-.65,1.6-.97,2.41-.19.43-.43.84-.69,1.23-1.27,2.09-.95,4.11.32,6.06,1.48,2.27,2.56,4.74,3.48,7.26.42,1.16,1.06,2.43.12,3.68h-10.47Z"/>
  <path class="cls-14" d="M128.53,531.17c-.65-.66-1.29-1.31-1.94-1.97-.73-1.11-.82-2.34.04-3.29,3.58-3.96,4.46-8.9,5.2-13.9.02-.34.09-.67.21-.99,1.34-3.1,2.49-6.25,2.25-9.72-.02-.32-.05-.75.13-.95,3.91-4.12,4.88-10.78,11.11-12.91,1.73.19,3.62.15,3.93,2.53-3.14.66-6.51,3.89-6.4,6.82.12,3.18-.74,6.03-1.99,8.8-1.87,4.15-3.72,8.29-3.95,12.93-.06,1.22-1.02,1.86-1.54,2.79-2.7,4.81-1.46,4.96,1.43,7.73,4.27,4.1,9.92,6.62,13.24,11.73.28.44.38.99.56,1.49h-19.62c-.87-.87-.95-2-.56-2.99,1.31-3.27-.02-5.77-2.12-8.1Z"/>
  <path class="cls-34" d="M211,542.26c-.8-3.86-2.28-7.45-4.5-10.72-1.56-2.3-1.6-4.59-.06-6.9,2.27,2.32,2.88,2.28,4.6-.11,1.27-1.76,2.58-3.5,4.24-4.91,2.25-1.91,3.96-1.44,4.76,1.4.57,2.03.53,4.11-.25,6.08-.89,2.22-.59,3.84,1.53,5.29,2.11,1.45,2.06,1.82,2.09,5.4.07-3.65-.71-7.33.08-10.96.74-3.4,2.54-3.93,5.13-1.63.77,5.78.62,11.48-1.28,17.05h-16.35Z"/>
  <path class="cls-18" d="M71.09,535.68c-.37-1.27-.98-2.5-.7-3.89,3.32,2.12,4.97,1.31,5.2-2.56.04-.76-.02-1.52.01-2.28.13-3.28.98-3.79,3.7-2.16,1.76,1.05,4.26,1.18,4.73,3.88.07.42.75,1.02,1.28.68,4.07-2.56,5.51,1.11,7.58,3.19.6.6.98,1.42,1.42,2.17.3.51.26,1.06-.1,1.52-.41.54-.92.44-1.4.06-.64-.51-1.39-.64-2.15-.54-1.44.2-3.49-.83-4.21.64-.77,1.56,1.58,1.92,2.36,2.98.67.91,1.3,1.71,1.18,2.89h-3.27c-1.24-.96-2.72-.77-4.08-.62-3.65.4-6.59-.72-8.93-3.55-.76-.92-1.89-1.46-2.63-2.41Z"/>
  <path class="cls-37" d="M257.43,522.63c.79,3.03,3.55,3.92,5.86,5.18,2.66,1.45,4.72,3.42,6.3,5.94,2.26,3.61.5,7.14-3.71,6.88-2.16-.13-4.56.06-6.6-1.33-1.26-.86-2.89-1.63-4.23-.55-1.36,1.1.68,2.27.43,3.52h-4.58c-.2-.4-.41-.87-.21-1.25,2.88-5.43,2.76-11.78,5.35-17.29.28-.59.55-1.21,1.4-1.09Z"/>
  <path class="cls-37" d="M249.59,542.26h-20.93c-.06-2.42,3.29-7.6,5.32-8.13,1.61-.42,2.22.27,2,1.88-.15,1.12-1.03,2.23.07,3.64,1.63-1.77,1.54-3.89,1.55-5.93,0-2.23.52-4.09,2.89-4.89,1.59-.26,2.28.85,2.98,1.93,1.66-.21,2.58-1.65,3.94-2.38,2.36-1.28,3.72-1.07,4.91,1.31,1.02,2.05.96,4.25.32,6.34-.68,2.21-.89,4.71-3.06,6.22Z"/>
  <path class="cls-32" d="M249.59,542.26c2.14-3.06,2.52-6.59,2.59-10.17.03-1.61-.7-3.02-2.07-3.84-1.83-1.1-1.6,1.52-2.4,1.59-2.2.2-3.02,1.24-2.97,3.3,0,.08-.58.32-.78.23-1-.43-.87-1.37-.92-2.23-.38-1.15.22-2.02.85-2.87.73-1.05,2.28-1.67,1.72-3.37-.5-1.42-2.35-1.44-2.9-2.8,1.16-2.13,1.62-4.41,1.44-6.83-.16-2.13.51-3.99,1.61-5.81,1.63-2.71,2.1-2.79,4.57-.68,1.35,1.15,2.15,3.06,4.25,3.25,2.08,2.27,1.87,5.34,2.83,8.01,0,.86,0,1.73.01,2.59-1.25,4.06-3.38,7.84-3.35,12.31.02,2.75-2.73,4.6-3.18,7.32h-1.31Z"/>
  <path class="cls-57" d="M240.44,529.18c-1.71,1.29-2.23,3.03-1.98,5.09.22,1.77-.14,3.5-.92,5.04-.31.61.12,2.56-1.54,1.63-.92-.51-2.59-1.13-1.61-2.97.54-1.02,1.13-2.07.84-3.8-3.49,1.88-4.84,5.15-6.57,8.08h-1.31c-.05-5.89,1.08-11.73.66-17.63-.01-2.2,1.24-2.4,2.94-1.84,2.33.77,3.91,2.53,5.4,4.34,1.76-1.43,1.75-4.17,4.19-4.79,1.54.58,1.24,1.83,1.02,2.99-.22,1.16-.69,2.26-1.01,3.4-.04.15-.07.31-.11.46Z"/>
  <path class="cls-68" d="M52.05,517.39c-1.29,2.13-1.24,4.8-.33,6.55,1.86,3.58.17,7.33,1.37,10.83.33.98-.6,1.57-1.32,2.03-2.03,1.27-2.78,3.21-2.98,5.46h-9.16c1.27-2.62,2.3-5.38,4.49-7.43.81-.76,1.48-1.58,1.42-2.8-.02-.42,0-.96.23-1.26,2.97-3.77,3.87-8.11,3.69-12.78-.09-2.21,2.77-1.52,3.25-3.2.29-.21.57-.19.84.04.42,1.39-.22,2.17-1.5,2.57Z"/>
  <path class="cls-37" d="M273.79,542.26c4.51-3.03,7.81-7.65,12.95-9.86.2-.09.4-.16.6-.24,1.23-.5,1.88-3.08,3.67-1.38,1.76,1.67,2.81,3.9,2.21,6.46-.39,1.67-1.29,3.23-1.11,5.03h-18.31Z"/>
  <path class="cls-87" d="M107.66,542.26c-.03-2.09-.42-4.44,3.11-3.42.79.23,1.25-.73,1.56-1.43.67-1.54,1.93-2.6,3.01-3.81,1.45-1.62,2.64-2.46,3.44.47.62,2.26,1.58.99,2.45.17.91-.87,1.63-2.16,3.1-.54,1.28,1.41.97,2.41-.22,3.6-1.61,1.61-3.12,3.31-4.68,4.97h-11.77Z"/>
  <path class="cls-11" d="M128.53,531.17c3.23,1.79,4.65,4.2,3.02,7.91-.41.93-.25,2.11-.35,3.18h-5.23c2.18-3.39,4.15-6.83,2.56-11.09Z"/>
  <path class="cls-89" d="M71.09,535.68c4.53,2.93,8.79,6.57,14.81,5.66.22-.03.55.6.83.92h-13.08c.68-1.41-.14-2.46-.83-3.56-.61-.98-1.85-1.61-1.73-3.02Z"/>
  <path class="cls-3" d="M41.66,462.53c-.65,2.1-1.73,3.92-3.2,5.58-2.49,2.79-4.13,6.09-5.1,9.69-.59,2.18-.98.46-1.45,0,.01-50.67.03-101.35.04-152.03,0-58.64.1-117.27-.05-175.9-.07-26.97,6.24-52.1,21.06-74.7,21.24-32.4,51.1-52.15,89.34-58.68,31.41-5.36,61.16.2,88.39,16.51,34.17,20.47,55.03,50.7,62.66,89.91,1.61,8.27,2.12,16.64,2.12,25.04,0,105.17,0,210.34,0,315.52,0,.98-.03,1.96-.05,2.94-2.57.99-3.85-.91-5.01-2.49-2.38-3.25-4.66-6.57-6.79-10-4.59-7.39-10.39-13.32-18.96-16.11-2.13-.69-4.27-1.67-6.01-3.22-2.38-2.14-3.86-4.43-2.95-7.99.79-3.07-1.39-5.61-2.86-8.09-1.1-1.86-2.17-3.76-3.37-5.56-2.36-3.54-2.83-7.25-.98-11.12,1.39-2.92-.12-5.34-1.39-7.66-1.13-2.08-1.82-4.13-1.68-6.49.1-1.67-.35-3.21-1.4-4.57-2.9-3.77-3.16-8.04-1.91-12.4,1.06-3.67.9-6.79-2.33-9.35-1.41-1.11-2.31-2.69-2.16-4.55.43-5.44-.76-10.34-4.51-14.46-.28-.31-.38-.78-.52-1.19-1.03-4.52-3.28-8.54-5.56-12.46-4.13-7.11-7.31-14.52-8.45-22.69-.37-2.63-2.62-4.17-3.35-6.62-.74-2.47-1.36-5.03-2.84-7.26-2.55-3.83-6.33-6.14-10.19-8.26-1.82-1-3.56-1.84-4.97-3.49-3.21-3.75-6.93-6.92-11.82-8.33-4.02-1.16-7.34-3.73-11.05-5.51-2.14-1.03-4.29-1.6-6.6-1.29-6.87.92-13.76,1.76-20.62,2.76-3.87.56-7.46,2.36-10.93,4.12-3.2,1.62-6.39,3.32-9.8,4.34-4.72,1.41-7.83,4.48-10.1,8.62-.89,1.62-1.79,3.24-2.74,4.82-1.63,2.62-3.56,4.91-6.62,5.94-6.51,3.82-9.9,11.11-5.4,17.07,2.99,3.95,2.78,4.63-1.36,7.07-5.18,3.06-7.14,7.8-7.24,13.39-.06,3.79-.49,7.34-2.53,10.62-.81,1.31-1.27,2.87-1.32,4.34-.23,7.27-2,14.39-2.1,21.66-.03,2.16-.61,4-1.87,5.76-1.57,2.21-2.9,4.61-4.18,7-1.8,3.39-2.49,6.9-.71,10.63,1.34,2.79,1.08,5.39-1.23,7.79-1.72,1.79-3.14,3.88-4.61,5.88-2.09,2.84-1.58,6.34-.68,9.42.82,2.84.16,4.68-2.13,6.12-3.11,1.97-4.18,4.71-3.82,8.32.44,4.41-.76,6.52-4.92,8-7.21,2.56-11.59,8.27-15.85,14.01-2.16,2.91-4.32,5.99-5.33,9.62Z"/>
  <path class="cls-55" d="M301.31,490.56c-2.56-3.05-4.19-6.56-4.56-10.51-.26-2.85-2.15-5.21-2.14-8.09,0-.48-.38-.84-.85-.8-1.09.09-1.01,1-.99,1.72.13,4.71-.95,9.24-1.92,13.79-.12.56.18,1.38-1.06,1.62.13-3.25-2.89-4.92-3.68-7.94-1.19-4.53.23-8.85.1-13.26-.06-2.04.51-4.52-1.69-5.58-2.21-1.07-4.49-.15-6.31,1.45-1.54,1.35-2.67.67-3.47-.7-1.69-2.9-3.38-5.68-5.99-7.97-1.91-1.67-2.56-4.97-1.79-6.93,1.23-3.12.24-4.93-1.57-6.97-.35-.4-.52-.95-.78-1.43,1.02-1.02,1.92-.27,2.94.09,6.69,2.32,11.32,7.09,14.91,12.89,3.81,6.16,7.44,12.42,13.15,17.1,3.01,4.65,2.03,10.34,4.02,15.28.8,1.98,1.13,4.16,1.67,6.25Z"/>
  <path class="cls-60" d="M295.62,469.03c-5-2.23-7.58-6.74-10.34-11.06-3.41-5.34-6.09-11.24-11.63-14.92-2.79-1.85-5.76-3.3-9.03-4.09-.65-.22-1.31-.45-1.96-.67-1.98-1.58-4.17-2.8-6.45-3.88-.43-.38-.46-.83-.24-1.32,1.58-.8,2.3.8,3.44,1.23,3.52,1.66,6.98,3.43,10.55,4.96,7.68,3.29,11.56,10.17,15.94,16.59,1.77,2.59,3.43,5.27,5.29,7.79,1.02,1.38,2.28,2.66,4.22,2.75.42.85.56,1.72.21,2.63Z"/>
  <path class="cls-26" d="M114.86,491.9c-.22-.65-.44-1.3-.67-1.95,0-4.58-.81-5.66-4.95-6.64-.31-.07-.64-.17-.88-.35-2.43-1.88-3.75-8.7-2.22-11.52.51-.95,1.3-1.79,1.63-2.78.56-1.71.44-3.92-1.23-4.47-1.79-.58-1.29,1.76-1.77,2.8-.64,1.37-1.09,2.82-1.67,4.22-.42,1-.55,2.85-2.13,2-1.21-.64-2.41-2.15-1.52-3.84.62-1.18,1.2-2.28,1.02-3.64-.86-1.06-.22-2.1.13-3.07,1.34-3.77,2.07-7.55.56-11.74-.33,3.73-1.44,7.1-1.94,10.61-.25,1.72,0,3.81-2.01,4.86-2.81,4.3-2.88,9.22-1.35,13.61,1.13,3.22.5,5.04-1.44,7.2-1.54,1.71-3.93,2.8-3.9,5.8-2.91-3.12-9.22-1.1-10.97,3.11-.73,1.76-.74,3.59-.59,5.45.07.91,1.41,2.37-.46,2.56-1.5.15-3.29-.85-3.34-2.52-.12-3.82-.46-7.8,2.42-11,.31-1.69,1.74-3.04,1.47-4.94-.13-.95-.29-2.12.95-2.48,1.14-.33,1.75.61,2.4,1.46.2-1.25.62-2.42.89-3.61.83-3.65,2.5-7.18.94-11.13-.82-2.09-.15-4.13,2.83-5.29-2.85-.66-2.86-2.42-2.4-4.18.94-3.59.02-7.42,1.58-10.94.51-1.15-.16-2.34-.8-3.39-.62-1.03-1.23-2.04-1.42-3.27-.65-4.14,1.24-6.29,5.4-6.1-3.85-2.33-4.93-5.45-3.31-10.16.63-1.84,1.63-3.57,2.85-5.12.54-.69,1.2-1.47,2.17-.93.88.49.8,1.45.69,2.34-.1.86-.84,1.54-.59,2.92,1.62-1.96,1.28-3.88.8-5.68-.66-2.47-.89-4.91-.34-7.42.11-1.4.03-2.81.1-4.22.05-1.1.14-2.32,1.15-2.9,4.27-2.43,2.49-6.49,2.45-9.87-.02-1.7-.07-2.88,1.35-3.84.9-.6,2.05-1,2.61-1.9,2.44-3.9,6.08-4.2,10.08-3.61.95,1.36-.27,1.97-1.03,2.58-1.09.88-2.26,1.67-3.36,2.54-2.49,1.99-2.42,2.73.43,4.36.66.37,1.37.65,2.05.99,1.73.86,2.85,2.11,2.78,3.88-.04-.37-.01-1.01.34-1.6,2.55-3.31,6.1-5.89,7.31-10.17.74-.81,1.28-1.75,1.83-2.7.52-.9,1.22-1.59,2.37-1.34,1.25.28,1.97,1.25,1.78,2.39-.48,2.93-.5,5.81.07,8.73.14.73-.15,1.57-.97,1.89-.84.33-1.42-.22-2-.75-.8-.74-.96-2.57-2.57-1.96-1.47.56-1.65,2.19-2.14,3.5-.19.52-.26,1.09-.11,1.61.7,2.34-.14,4.27-1.5,6.09-1.56,2.08-1.84,4.1.05,6.19,1.31,1.45,1.61,3.29,1.64,5.18.04,1.88.74,3.35,2.97,4.27-.15-2.19-.9-3.94-1.43-5.72-.53-1.78-.83-3.49.9-4.73,1.77-1.27,3.19-.05,4.3,1.1,1.5,1.55,2.9,1.67,4.59.46.53-.38,1.2-.5,1.84-.66,4.16-1,4.21-1,3.97-5.21-.12-2.18.13-4.35-.09-6.53-.08-.82-.22-1.86,1.17-1.83.5.27,1.03.68,1.01,1.2-.11,5.41,2.31,10.6,1.3,16.11-.49,2.68-1.33,5.02-3.64,6.65-.59.41-1.43.89-1.05,1.8.32.77,1.11.41,1.73.38,3.11-.14,3.82.88,2.49,3.84-1.55,3.45-1.36,7.47-3.74,10.66-.79,1.06.25,2.28.77,3.33.62,1.27,1.36,2.47,2.03,3.72.91,1.69.51,3.11-1.44,3.47-3.29.6-3.53,3.05-3.7,5.59-.06.86.42,1.83.05,2.58-2.15,4.38-1.14,8.65.24,12.94.21,1.83-1.63,3.35-.82,5.28.24.57.5,1.14.56,1.76,0,.91-.35,1.54-1.33,1.66-.31-.01-.62-.09-.9-.22-1.44-1.15-2.41-.49-3.08.88-.84,1.7-2.11,3-3.56,4.19-1.3,1.07-2.62,1.55-4.29.66.52.84,1.29,1.49,1.81,2.32.68,1.08,1.73,2.11.81,3.54-.84,1.3-2.16,1.28-3.5,1.17-.55-.04-1.09-.08-1.5-.5Z"/>
  <path class="cls-95" d="M92.61,412.77c-.78,2.59-.16,5.05.37,7.62.43,2.04,1.42,4.59-1.22,6.17-.63.38-1.39.89-2.07.14-.53-.59-.13-1.2.24-1.76.77-1.16,1.75-2.27.83-4.54-1.85,2.92-4.46,4.89-3.84,8.48.16.94-.24,1.69-.39,2.53-.36,2.1.13,3.59,2.58,3.76.77.05,1.68.19,1.71,1.1.02.69-.3,1.56-.77,2.06-.84.9-1.17-.28-1.75-.62-2.31-1.34-2.97.8-3.37,2.1-.61,1.99-.26,4.08,1.21,5.81,1.49,1.76,1.33,3.49.52,5.7-1.29,3.54-.43,7.51-1.46,11.2-.26.94.66,1.22,1.55.91.9-.31,1.57,0,1.68.92.09.76-.53,1.21-1.22,1.28-3.04.3-3.03,2.63-2.13,4.3,2.06,3.84-.29,7.18-.67,10.71-.17,1.61-1.82,2.97-.75,4.88.32.58-.38.94-.93,1.03-.64.11-1.08-.17-.99-.89.16-1.22-.53-2.17-1.55-1.89-1.27.34-.08,1.43-.14,2.19-.14,1.89-.58,3.66-2.47,4.63-.66.22-1.32.43-1.98.65-3.43-2.65-5.3-6.16-5.29-10.47,0-1.93-1.99-2.81-1.92-4.64.68-4,1.54-7.94,3.83-11.39,2.01-2.26,3.7-4.76,4.92-7.53,1.51-3.43,1.14-4.48-1.99-6.42-.46-.29-.83-.67-1.13-1.11-.49-.9-.71-.31-.98.18-1.25,2.3-1.93,4.77-2.56,7.3-.44,1.77-1.04,3.74-3.69,2.68-2.5-5.43-1.88-9.73,2.56-13.54,3.8-3.26,4.99-7.08,3.94-11.81.5-2.35.14-4.73.17-7.09.05-3.81,1.36-7.01,4.88-8.92.93-.5,1.44-1.23,1.83-2.16,1.21-2.85,3.37-4.69,6.26-5.72.92.18,1.02,1.3,2.16,1.71.43-1.46-.42-3.14.64-4.41,1.86-1.2,2.36.11,2.89,1.51.41,1.1-.22,2.34.5,3.38Z"/>
  <path class="cls-59" d="M69.04,476.18c1.9,1.88,2.16,4.2,2.24,6.77.11,3.32,3.3,5.28,4.31,8.28-.43.43-.87.86-1.3,1.3-1.02,1.96-2.72,3.41-3.91,5.25-2.06,2.75-1.97,5.97-1.97,9.16-1.03.07-1.19-.72-1.43-1.43-1.19-5.19-.67-10.54-1.52-15.81-.66-4.11.48-8.39,1.82-12.43.25-.74.84-1.27,1.76-1.09Z"/>
  <path class="cls-70" d="M97.19,466.39c1.21-5.96,2.41-11.93,3.62-17.89,1.72,3.21,2.79,6.55,1.87,10.16-.61,2.39-1.47,4.71-2.22,7.07-2.62,2.36-2.6,6.49-.06,9.45,1.9,2.21,3.69,4.51,5.5,6.8.41.52,1.47,1.06.52,1.82-.72.57-1.37-.18-1.96-.66-5.27-4.34-8.22-9.69-7.27-16.73Z"/>
  <path class="cls-52" d="M67.72,505.64c.04.54.16,1.02.68,1.31.3.8.46,1.69.93,2.38,2.28,3.34,2.64,6.53,1.02,10.51-1.12,2.76-.52,6.22-.69,9.37-2.42-2.44-2.34-5.67-2.46-8.69-.08-2.17-.76-4.21-.8-6.36-.02-1.06-.79-1.87-1.67-2.09-.77-.19-.82.77-.91,1.4-1.48.75-1.68-.26-1.68-1.31,0-1.31.4-2.54.98-3.71.39-.7.81-1.38,1.62-1.66,1.23.39,1.09-.99,1.73-1.36.46-.18.88-.15,1.24.22Z"/>
  <path class="cls-26" d="M73.64,507.88c0,.53.1,1.52-.83,1.94-1.34.6-1.54-.73-2.08-1.43-2.02-2.61-2.09-4.84-.18-6.47.57-.49,1.56-1.16,1.63.08.11,2,1.58,3.55,1.47,5.88Z"/>
  <path class="cls-95" d="M70.38,497.78c-.33-2.97,2.39-3.67,3.91-5.25-.43,2.4-.35,5.18-3.91,5.25Z"/>
  <path class="cls-44" d="M149.47,489.97c-1.04-1.18-2.43-1.68-3.9-2.03-.2-.29-.24-.6-.12-.93,2.97-3.65,3.06-7.79,2.04-12.12-.52-.85-.99-1.71-1.02-2.73-.4-2.72-.12-5.37.5-8.06.82-3.56.39-7.14-.6-10.66-.73-2.61-1.89-5.46-.39-7.95,2.14-3.54,4.97-6.6,8.61-8.78.28-.17.61-.34.92-.3,6.64.89,13.97-.69,19.15,5.38.5.59,1.15,1.03,1.89,1.25,4.15,1.22,5.69,4.83,7.45,8.2.89,1.71.33,3.02-1.22,4.21-2.92,2.24-3.17,4-.9,6.87,1.81,2.29,2.85,4.81,3.57,7.6.88,3.43,2.06,4.26,4.7,3.94.6-.31,1.19-.62,1.88-.29.02.24.03.48.05.72-1.3,1.3-2.6,2.6-3.9,3.9-4.07,2.34-8.53,1.5-12.12-2.79-1.78-2.12-3.7-3.27-6.4-3.19-1.92.06-3.02-.99-3.63-2.7-.36-1.02-.42-2.28-1.41-2.88-2.69-1.64-3.67-3.94-3.83-7.07-.13-2.69-2.9-3.63-4.82-4.9-1.08-.71-1.6.75-1.93,1.62-.98,2.56.55,6.08,3.36,7.79,1.39.85,2.94,1.43,4.19,2.52,2.28,1.98,2.15,2.9.08,4.95-2.81,2.79-4.45,6.52-7.34,9.33-1.11,1.08-.04,2.93.14,4.41.43,3.5-1.32,5.14-4.94,4.62l-.07.05Z"/>
  <path class="cls-15" d="M186.16,480.79c3.56.47,2.29,3.17,2.5,5.27.47,4.73-2.48,8.74-2.72,13.31-.03.63-.48,1.61-.22,1.83,2.36,1.99,2.33,5.4,4.44,7.44,4.7,4.58,4.32,10.08,3.09,15.77-.27,1.27-1.37,1.85-2.39,1.95-3.79.39-6.94,2.46-10.34,3.82-1.34.54-2.04.97-2.72-.62-1-2.33-2.15-1.59-3.26-.06-.95,1.32-2,1.99-3.52.74-.31-.25-.8-.29-1.22-.38-1.43-.33-5.52,2.46-2.98-2.6.33-.65-.91-.98-1.71-.93-1.19.08-2.39.3-3.57.22-1.19-.08-2.29,1.32-3.61-.1-2.05-2.19-3.72-4.51-4.26-7.5-.18-1.02.77-1.49,1.34-2.11,3.12-3.34,3.29-6.48.05-9.81-2.87-2.94-4.43-6.88-7.87-9.43-1.89-1.41-.94-3.82,1.43-4.31,1.58-.33,3.21-.48,4.81-.72,4.14.78,7.71,3.11,11.69,4.33.57,1.08-.34,1.32-.98,1.6-1.1.48-2.3.63-3.44.99-3.29,1.05-3.69,2.51-1.44,5.17.56.66,1.19,1.26,1.81,1.87,4.36,4.28,7.38,3.86,10.54-1.43,1.16-1.94,2.49-3.66,2.04-6.28-.29-1.69,1.62-2.66,2.78-3.78,2.38-2.29,4.01-4.84,2.94-8.34,1.39-2.97,3.58-5.02,6.79-5.91Z"/>
  <path class="cls-104" d="M165.22,497.15c-4.35-.45-8.13-2.35-11.78-4.6-1.3-.88-2.59-1.75-3.89-2.63,3.98-.84,4.93-1.72,3.81-5.22-1.23-3.85.87-5.8,3.29-7.77,1.14-.92,2.15-1.57,1.84-3.39-.27-1.6,1.53-2.03,2.57-2.56,2.52-1.28,1.87-2.49.12-3.68-1.43-.97-3-1.73-4.51-2.58-3.83-2.15-5.04-7.44-2.41-10.6.32-.39.43-1,1.14-1.02,1.07-.04,6.69,5.05,6.51,6.11-.54,3.04.15,5.34,3.27,6.54.46.18,1.12.71,1.11,1.07-.1,4.11,2.47,4.75,5.78,4.79,1.93.03,3.29,1.06,4.35,2.89,2.1,3.62,6.59,4.88,11.79,3.7-.68.86-1.35,1.72-2.03,2.58-2.21,1.94-4.42,3.89-6.63,5.83-.18,1.43-1.27,2.04-2.36,2.66-2.76,1.62-5.1,3.81-7.65,5.7-1.34.91-2.37,2.45-4.31,2.18Z"/>
  <path class="cls-62" d="M41.66,462.53c.84-5.87,4.63-10.13,8.18-14.42,3.68-4.46,8-8.27,13.62-10.24,3.16-1.11,4.03-3.75,3.49-6.52-.83-4.23.61-7.18,4.01-9.37,2.06-1.33,2.62-2.56,1.94-5.31-1.03-4.14-1.98-8.7,2.49-12.18,1.78-1.39,2.9-3.72,4.33-5.62,1.06-1.4.77-3.4-.16-4.97-2.35-3.96-1.34-7.75.47-11.48.66-1.36,1.55-2.62,2.47-3.82,3.83-5.02,3.53-10.99,4.37-16.82,1.05-7.28.06-15.08,4.47-21.69.77-1.15.67-2.5.62-3.8-.29-7.9,1.61-14.58,9.65-18.07,1.86-.81,1.28-2.16.25-3.42-2.85-3.47-4.63-7.42-2.53-11.71,1.64-3.36,3.38-7.06,7.7-8.04.24,2.11-1.47,3.06-2.7,4.1-4.97,4.22-4.19,9.67-.9,13.77,3.08,3.85,2.94,4.62-.42,7.43-2.03,1.39-3.23,3.44-4.43,5.5-2.67,2.71-3.75,6.01-3.74,9.76.01,3.12-.78,6.01-2.71,8.52-1.46,1.9-1.95,4.09-1.84,6.43.15,3.4-.25,6.72-1.39,9.93-1.32,3.71.14,7.53-.54,11.3-.51,2.84-.99,5.51-3.2,7.6-1.5,1.41-1.93,3.33-2.02,5.33-.11,2.25-.04,4.49.48,6.7.08.64.16,1.28.33,1.9.93,3.49.29,6.37-3.12,8.2-1.29.8-1.93,2.06-2.24,3.47-.36,1.69-1.19,3.02-2.61,3.98-1.4.95-2.3,2.47-1.79,3.89,1.99,5.6.92,10.04-4.99,13.25,4.27-.09,5.5,1.57,4.89,5.72-.13.85-.64,1.62-.86,2.46-1.08,1.34-3.03,1.08-4.17,2.29-.39.42-.72.88-1.15,1.26-.91.78-2.23.28-3.15,1.04-9.88,2.83-14.83,10.93-20.04,18.75-1.07,1.6-2.04,3.26-3.06,4.9Z"/>
  <path class="cls-77" d="M64.76,438.88c.71-1.15,1.84-1.35,3.05-1.33,2.48,2.63,2.48,3.3-.06,7.77-2.61,5.25-1.37,10.85-1.48,16.32,0,.11.06.22.04.32-.91,5.32-1.68,10.65-2.06,16.04-.07.96-1,1.66-1.61,2.42-1.3,1.61-1.94,3.42-1.57,5.48.37,2.04-.15,3.88-.97,5.69-1.45,2.56-1.48,5.25-.72,8.02.15.77.45,1.51.46,2.31-2.01,3.4-3.26,7.12-4.55,10.83-.53.79-1.02,1.63-1.95,2.03-.21,0-.41,0-.62,0,1.39-5.42,3.49-10.71,3.58-16.37.09-6.01,4.41-11.21,3.07-17.5-.25-1.19.15-2.87,2.15-3.03,1.58-.13,1.01-1.47.99-2.29-.11-4.44.25-8.86-.51-13.31-.85-4.98.78-9.77,2.36-14.44.77-2.27,1.55-4.5,1.46-6.94,1.31-1.53.31-1.87-1.04-2.03Z"/>
  <path class="cls-51" d="M256.06,433.11c.05.44.1.87.15,1.31,1.64,2.73,1.97,5.83,2.53,8.86.26,1.44.62,2.74,1.98,3.52-.1,2.32.68,4.26,1.85,6.32,1.36,2.38,1.26,5.34,1.39,8.1.06,1.29,0,2.58,0,3.88-2.27-.68-1.39-3.67-3.36-4.57-.54-.37-1.11-.68-1.67-1.02-4.17-2.49-4.34-2.8-1.96-7.07,2.09-3.75-.1-6.37-2.02-9.14-.4-3.32-1.4-6.57-1.2-9.97.17-.35.44-.58.81-.7.58-.11,1.1-.01,1.5.47Z"/>
  <path class="cls-53" d="M257.42,520.04c-2.3-2.11-1.67-5.44-3.26-7.85-4.27-2-5.88-5.91-4.18-10.35.58-1.52,1.34-2.96,1.25-4.65-.46-2.04-.78-4.1-.42-6.19.4-1.39,1.24-2.51,2.76-2.06,2.01.6,3.9,1.74,3.95,4.16.05,2.43.91,4.39,2.56,6.09.34.35.72.41,1.17.33.3-.05.55.04.78.23.2,1.06.44,2.1,1.28,3.09,1.8-2.09,1.23-4.53,1.32-6.82.07-1.73-.11-4.12,1.88-4.24,1.28-.08,1.14,2.55,1.28,3.89.42,4.11-.41,8.14-1.19,12.2-.99,5.16-2.12,10.37-1.73,15.71.06.8.89,1.85-.46,2.11-1.14.22-2.21-.39-2.32-1.71-.1-1.18.04-2.38.14-3.57.35-4.42.73-8.84,1.1-13.26.1-1.15-.18-2.17-1.1-2.93-.64-.52-1.06-1.66-2.04-1.33-1.01.33-.58,1.49-.8,2.29-1.36,4.87-.33,10.04-1.96,14.86Z"/>
  <path class="cls-51" d="M262.02,499.75c-.22,0-.44,0-.66-.01-2.59-2.25-3.21-5.19-2.13-8.22.76-2.13.57-4.24.9-6.31.66-4.07.23-8.21,1.09-12.23.07-.33.18-.65.32-.96,1.39-1.87,1.12-4.39,2.44-6.29,2.77,3.64.29,7.57.61,11.34.41,4.7-1.48,9.2-.81,14.03.38,2.75-1.11,5.76-1.76,8.65Z"/>
  <path class="cls-78" d="M263.98,465.73c.14,2.42-.11,4.72-1.95,6.55-5.53-2.28-7.15-5.82-5.25-11.35.42-1.21,1.13-1.8,2.43-1.4.69.21,1.32.81,2.12.35,1.93,1.2,1.65,3.53,2.64,5.21,0,.21,0,.43.01.64Z"/>
  <path class="cls-47" d="M128.59,479.47c.83-.02,1.27-.45,1.29-1.28,2.88,1.65,3.83,5.94,1.68,8.83-2.19,2.95-4.43,5.83-6.15,9.11-.58,1.11-1.37,2.19-.53,3.27,2.79,3.61,2.86,8.3,4.97,12.16.55,1.62.23,3.26-.24,4.78-.29.93-1.11,2.32-2.27,1.8-1.29-.58-.23-1.74.24-2.47.67-1.06,1.41-1.95.33-3.18-.93-1.06-2.11-1.07-3.3-.91-1.14.15-1.95.94-1.29,2.03,1.13,1.85-.15,2.83-1.1,3.95-.71.83-1.3,1.6-1.51,2.78-.52,2.95-1.82,3.42-4.62,2.33-1.77-.69-2.56-2.28-3.84-3.4-1.03-.91.12-1.51.62-2.11,1.03-1.23,2.57-2.08,2.81-3.89.09-.63.55-1.51.29-1.84-3.24-4.2-1.07-8.18.47-12.13.61-1.57-.03-2.84-.69-4-.63-1.11-.96-2.15-.87-3.38,1.48-.74,3.98.92,4.57-1.24.5-1.82-1.52-3.06-2.69-4.42-.56-.66-2.06-1.18-1.25-2.24.91-1.19,1.57.32,2.36.7,3.11,1.48,3.85-1.76,5.6-2.95.55-.37.73-1.29,1.08-1.97,1.19-2.3,2.5-3.03,4.07-.32-1.02,1.52-2.64,2.55-3.51,4.19-.48.91-.85,1.91.08,2.64,1.11.87,1.99.04,2.78-.74,1.88-1.85.43-4.07.65-6.1Z"/>
  <path class="cls-76" d="M129.85,511.55c-1.77-1.12-2.52-2.6-2.67-4.82-.16-2.32-1.35-4.5-2.88-6.35-1.44-1.75-.91-3.06.27-4.88,2.18-3.38,4.71-6.51,6.86-9.85,1.47-2.28.32-5.24-1.54-7.47-.21-.45-.42-.9-.63-1.35-.99-2.5,1.61-3.98,1.81-6.23.09-1,1.36-.43,2.03.25,1.73,1.74,3.4,3.51,4.36,5.89.52-1.71-.41-3.12-.77-4.61-.34-1.38-.61-2.76-.5-4.18.13-1.65,1.38-2.63,2.65-1.83,2.57,1.61,5.71,2.7,6.94,5.92-2.5,1.28-4.86,2.55-4.35,6.12.17,1.22-1.03,2.13-2.32,2.23-1.33.1-2.18.73-2.8,1.82-.72.95-1.41,1.93-1.95,3-.88,1.78-1.29,3.69-1.51,5.64-.1.89.07,1.81.91,2.31,1.04.62,1.54-.29,2.14-.9.66-.68,1.3-1.8,2.39-1.01,1.14.82.63,2.04-.03,2.91-1.81,2.38-3.17,5.04-6.01,6.67-3.77,2.15-3.65,6.59-.09,9.09.63.44.86.94.38,1.62h0c-.36.33-.53,1.02-1.25.65-.47-.21-.94-.42-1.41-.62Z"/>
  <path class="cls-7" d="M131.27,512.18c.42-.22.83-.43,1.25-.65-.42,2.34-1.05,4.66-1.2,7.01-.16,2.55-1.34,4.5-2.89,6.32-1.08,1.27-2,2.56-1.84,4.33-2.47-2.26-2.8-4.37.53-7.58,2.89-2.78,3.42-6.01,4.15-9.43Z"/>
  <path class="cls-56" d="M59.27,501.7c-.19-.67-.38-1.34-.58-2.02,1.35-.71,1.83.46,2.55,1.24-.34-1.55-.55-3.04-.73-4.54-.19-1.57.16-3.02,1.19-4.25.57-.68,1.23-1.29,2.2-1.12,1.07.18,1.21,1.12,1.4,1.96.92,4,.3,7.95-.41,11.9-.21,1.16-.6,2.29-1.05,3.38.31,1.74-2.45,3.46-.03,5.21,0,.11.04.24,0,.32-1.98,3.84-3.06,7.62.45,11.26.17.17-.11.77-.18,1.18-.39-.09-.83-.11-1.17-.29-1.05-.57-7.06-1.56-7.96-1.24-.03-1.18.92-1.77,1.63-2.25,3.26-2.2,3.17-6,4.53-9.11.21-.47.18-1.17-.39-1.42-.29-.13-.86.07-1.15.31-2.01,1.71-4.89,2.48-5.79,5.44-.17.57-.55,1.6-1.57.98-.23-.14-.12-.81-.17-1.24.36-.9,1.4-1.47,1.28-2.61.08-.91.5-1.58,1.34-1.97,2.67-3.23,5.81-6.27,4.59-11.11Z"/>
  <path class="cls-75" d="M197.24,487.3c1.61-1.53,1.51-3.64.48-5.01-1.76-2.34-1.31-4.94-1.77-7.43-.74-1.34.32-3.27-1.39-4.3-3-5.2-5.03-10.81-5.98-16.7-.79-4.92-.96-9.94-1.4-14.91-.18-2-.99-3.08-2.93-3.75-4.17-1.46-6.07-6.5-3.84-10.45,3.42-6.07,3.35-12.23,1.11-18.57-1.19-3.36-2.06-3.88-5.63-3.24-4.28.77-8.55,1.74-12.87.28-5.18-2-10.07-5.28-16.09-3.42-1.02.31-2.15,0-3.23-.14-3.27-.43-4.38.55-4.35,3.87.02,2.28.28,4.54,1.3,6.64.18.3.33.61.45.93.65,4.26,2.99,8.14,2.89,12.59-.03,1.31.14,2.61-1,3.59-.99-.02-1.33-.76-1.4-1.51-.41-4.35-2.29-8.33-2.95-12.65-.43-2.8-2.12-5.41-2.76-8.27.08-2.8-.61-5.64.3-8.41.7-2.14,2.19-3.25,4.22-2.12,3.24,1.8,6.68,1.74,10.14,1.76,2.56.01,4.89.63,7.22,1.71,4.57,2.12,9.14,2.82,14.17.87,4.22-1.64,8.78-2.3,12.52-5.22,1.68-1.31,2.99-.53,3.52,1.6.19.75.21,1.52,0,2.26-1.32,4.75-1.19,9.45.36,14.12,1.31,3.94.29,7.73-.73,11.52-.48,2.97.68,5.69,2.38,7.76,2.38,2.91,3.22,5.99,2.99,9.56.12,2.25-1.22,4.22-1.21,6.44,1.47,4.19,2.92,8.35,2.66,12.94-.12,2.12,1.49,3.78,3.34,4.46,3.75,1.37,4.25,4.36,4.26,7.6.01,2.08-.06,4.1.96,6.01.36.67.56,1.54.31,2.22-1.03,2.84-.8,4.75,2.54,6.02,1.66.63,1.72,2.94.67,4.62-1.24,1.97-1.11,3.51.7,5.13,2.24,2.03.98,4.67.81,7.1-.06.86-.07,1.74-.5,2.54-.59.77-1.14.39-1.56-.14-2.24-2.89-5.47-4.86-7.45-7.99-.19-.23-.38-.47-.57-.7-.45-2.17.73-1.42,1.71-.94.7.35,1.42.8,1.94-.19.75-1.42.17-2.75-.46-4.03-.3-.6-.74-.94-1.57-.75-2.95.68-2.96.65-2.6-2.39.04-.33.08-.64.29-.9Z"/>
  <path class="cls-92" d="M252.15,497.13c.02,1.18.24,2.36-.5,3.48-2.85,4.33-1.66,8.2,2.5,11.58-.06.58-.17,1.21-.91.63-.76-.6-1.35-1.43-2.12-2.02-1.24-.95-2.85-3.53-3.49-2.66-1.06,1.47-2.71,3.1-2.64,5.32.04,1.09,0,2.17.02,3.26.03,2.21-.15,4.34-1.96,5.94.14.17.21.34.19.53-.02.19-.05.29-.08.29-.7.65-1.37,1.07-1.74-.29-.15-.56-.34-.97-1.01-.55-1.4,1.88-2.69,3.83-3.56,6.25-1.97-1.87-3.26-4.19-5.9-5.28-1.74-.72-2.29-.24-2.95,1.03-3.15-1.02-3.74,1.1-3.85,3.37-.16,3.14-.04,6.29-.08,9.44-.01.85-.11,1.73-.33,2.55-.08.28-.66.61-.99.59-.5-.03-.6-.58-.47-1,1.13-3.46.6-5.97-3.2-7.58-1.67-.71-1.08-2.9-.38-4.4,1.06-2.3,1.14-4.63.38-6.95-.51-1.57-1.33-2.54-2.93-.66-1.98,2.34-4.78,4.06-5.25,7.47-.04.26-.43.72-.49.7-1.23-.49-2.25-1.76-3.81-.94-.06-.86-.11-1.72-.17-2.57.21-.23.41-.47.62-.7,4.3-3.77,5.9-8.22,3.54-13.74-.33-.77-.35-1.71.12-2.53,2.78-.95,5.08,1.12,7.71,1.29.94.06,1.02,1.52.91,2.54-.11.97-.28,1.96.18,2.89.3.6.68,1.15,1.37,1.31.9.2,1.07-.56,1.32-1.13.97-2.26,2.97-4.11,2.69-6.88-.1-.99-.12-2.07,1.1-2.42,1.34-.38,2.27.52,3.19,1.28.89.73,1.85,1.92,1.01,2.77-1.99,2-1.94,4.11-.65,6.13,1.54,2.42,2.81,5.23,5.91,6.21,1.27,1.43,1.98,1.52,2.92-.53,1.09-2.37-.61-4.39-.22-6.58,1.12-2.11,2.25-4.22,3.31-6.36.69-1.4,1.55-2.77,3.12-3.13,2.03-.46,2.46-1.73,2.54-3.53.15-3.52-.14-6.93-2.01-10.04-.79-1.3-1.6-2.62-1.45-4.24.12-1.31.28-2.81,1.62-3.34,1.53-.59,2.32.71,3.02,1.84,1.49,2.89,3.07,5.75,2.62,9.2-.13.97.57,1.58,1.22,2.17Z"/>
  <path class="cls-46" d="M210.97,507.62c.64,2.49.69,5.09,1.7,7.55.82,2,.36,4.03-1.61,5.48-1.39,1.02-2.67,2.19-4,3.29.44-1.97.94-4.02,1.59-5.84,1.8-5.08-.83-7.96-4.22-10.75-1.58-1.3-3.3-2.45-4.66-3.94-.31-.34-3.55-1.43-.21-2.9,1.25-.55-1.14-2-1.08-3.31,2.98,2.7,6.62,4.71,8.6,8.42,2.24-1.15,3.8-1,3.88,2.01Z"/>
  <path class="cls-94" d="M195.3,470.31c1.21,1.38.47,3.03.64,4.55q-1.25-3.38-3.91-1.26c-.43.22-.87.44-1.3.66-2.78-.27-3.18-2.71-3.88-4.61-1.16-3.15-1.61-6.52-2.35-9.81-.32-1.42,0-2.58,1.32-3.35,2.59.72,2.77,3.25,3.68,5.14.74,1.53,1.17,3.24,1.8,4.85.75,1.93,1.92,3.34,4,3.82Z"/>
  <path class="cls-39" d="M197.24,487.3v3.83c1.61-.52,1.98-3.89,4.06-1.36,1.47,1.78,1.82,5.8.58,7.26-.92,1.08-1.41.11-2.13-.25-.53-.26-.95-2.24-1.84-.28-1.86-2.94-2.7-5.96-.68-9.19Z"/>
  <path class="cls-7" d="M135.75,482.06c.33-1.51,1.08-2.58,2.81-2.47,2.11.13,2.48-.9,2.14-2.77-.5-2.76,2.06-5.07,4.83-4.49,1.19,1.02,1.57,2.47,2.04,3.86.27,1.62.35,3.31-.57,4.69-1.33,2-1.59,4.14-1.42,6.42,0,.21,0,.43-.01.64-2.83,2.11-4.98,4.52-6.85,7.76-1.99,3.44-3.9,6.43-4.02,10.53-.06,1.83-1.04,3.69-2.18,5.3-.06-.21-.1-.6-.17-.6-3.15-.2-3.65-2.32-3.81-4.91-.19-3.01,1.36-5.14,3.64-6.4,3.24-1.8,4.28-4.98,6.67-7.64-1.99-.66-1.96.67-2.54,1.12-.76.6-.82,2.4-2.28,1.71-1.27-.6-2.32-1.71-2.14-3.35.25-2.35.49-4.72,1.93-6.74.66.46.75,1.36,1.31,1.82.95.77,1.16,3.18,3.04,1.94,1.45-.95,3.36-2.25,2.7-4.37-.49-1.57-1.94-2.6-3.89-2.02-.42.13-.83.22-1.24-.03Z"/>
  <path class="cls-57" d="M243.04,523.28c0-.21,0-.42.01-.63,2.01-.88,2.38.97,3.26,1.96-.81,1.23-1.97,2.28-1.95,3.92-.44.87-.88,1.74-1.32,2.6-.88-.64-1.15-2.09-2.61-1.96,0,0-.01-.02-.01-.02.14-2.29,1.57-4,2.62-5.88Z"/>
  <path class="cls-35" d="M253.11,518.68c.09.83.26,1.28.16,1.66-.41,1.58-.94,3.7-2.6,3.69-1.59-.01-3.12-1.68-2.97-3.59.15-1.89-1.51-3.08-1.42-4.88.06-1.14.16-2.24,1.22-2.8,1.05-.56,1.95.19,2.51.91,1.28,1.65,4.26,2.38,3.09,5.01Z"/>
  <path class="cls-37" d="M244.37,528.54c-1.48-2.37-.11-3.32,1.95-3.92,1.58,2.42-.95,2.79-1.95,3.92Z"/>
  <path class="cls-32" d="M243.04,523.28c.05,2.37-1.46,4.05-2.62,5.88-1.34-1.13-.05-2.2.13-3.26.19-1.13,1.1-2.22-.14-3.27.21-.47.34-1.28.66-1.36.86-.22.65.62.65,1.06,0,1.01.29,1.45,1.32.94Z"/>
  <path class="cls-82" d="M256.06,433.11c-.46-.09-.92-.17-1.39-.26-1.32-3.34-.83-7.01-2.07-10.42-.71-1.95-1.47-3.6-3.25-4.61-2.88-1.64-3.93-4.23-3.91-7.35.02-3.05-.31-5.95-1.46-8.88-.9-2.31-1.3-4.87.18-7.51,1.14-2.01-.11-4.42-.54-6.59-.29-1.46-.87-2.91-1.75-4.18-.56-.84-1.2-1.63-1.66-2.54-.63-3.45-1.34-6.88-2.6-10.18-.02-.68.08-1.35.29-2,.17-.46.43-.86.76-1.22,1.84-1.11,2-2.35.45-3.92-.66-.67-1.28-1.37-1.97-2.01-.35-.36-.61-.77-.81-1.22-.95-2.29-.85-4.65-.43-7.03.47-2.68-.2-4.8-2.46-6.55-1.88-1.45-3.73-3.17-2.25-6,.71-.41,1.38-.35,2.02.17,1.54,3.05,4.68,5.23,4.89,9.02.05.86.44,1.73.34,2.55-.49,4.26.46,7.78,4.07,10.58,2.2,1.71,1.47,4.45.78,6.69-1.57,5.11-1.52,9.81,2.29,14,.4.44.79,1.23.67,1.75-.98,4.43,1.49,7.94,3.16,11.58.83,1.81.95,3.25.06,4.89-1.98,3.62-1.55,7.03.63,10.43,1.92,3,3.66,6.11,5.46,9.18.78,1.33,1.68,2.81,1.15,4.3-1.29,3.62.12,6.23,2.68,8.55-1.11-.41-2.23-.81-3.34-1.22Z"/>
  <path class="cls-79" d="M233.21,340.82c-.62,0-1.24,0-1.87,0-1.18-.88-.69-2.33-1.19-3.44-.12-.29-.21-.59-.3-.89-.61-2.26-1.94-4.15-3.52-5.75-3.03-3.05-4.66-6.62-4.93-10.87-1.87-4.01-3.98-7.87-3.61-12.61.18-2.34-1.81-4.07-3.12-5.92-.16-.28-.29-.58-.38-.89-1.55-7.18-6.2-11.96-12.39-15.29-2.42-1.3-4.69-2.43-6.13-4.95-.9-1.58-2.47-2.69-4.02-3.71-1.92-1.85-4.33-2.8-6.78-3.64-3.07-1.06-5.99-2.39-8.77-4.07-.86-.47-1.71-.96-2.56-1.47-2.69-1.3-5.61-1.04-8.33-.64-5.99.88-12.02,1.57-17.98,2.78-4.43.91-8.36,2.97-12.46,4.61-.25.2-.52.39-.79.55-2.61,1.97-5.7,2.85-8.75,3.8-.27.14-.54.26-.81.38-3.55,1.69-5.99,4.48-7.8,7.89-.79.85-1.38,1.87-2.19,2.72-.48.38-.97.7-1.62.41,2.89-8.07,8.32-13.38,16.67-15.71,4.37-1.22,8.07-4.07,12.42-5.48,2.06-.67,4.06-1.43,6.23-1.72,6.21-.83,12.43-1.58,18.6-2.58,4.87-.79,8.69,1.63,12.46,3.88,2.26,1.35,4.59,2.39,7.01,3.19,5.05,1.68,8.81,5.01,12.06,9,.97,1.19,2.11,1.7,3.39,2.31,4.58,2.2,8.74,4.98,11.63,9.32,1.04,1.57,1.14,3.54,2.02,5.11,4.4,7.86,5.09,17.01,8.92,25.04,1.77,3.7,3.95,7.19,5.9,10.8,1.34,2.47,2.61,4.99,2.98,7.84Z"/>
  <path class="cls-24" d="M112.92,289.82c.43-.22.85-.43,1.28-.65,1.19,2.82.48,6.76-1.53,8.65-.85.8-1.88,1.36-2.94.8-2.49-1.3-3.83.1-5.13,1.86,4.39,2.89,5.11,6.5,2.26,11.01-1.63,2.58.1,4.96.58,7.38.2,1.02,1.06,1.9,1.23,2.98.25,1.56-.27,2.92-1.78,3.44-1.61.55-2.41-.72-2.81-2-.39-1.25-.73-2.48-1.69-3.44,3.19-2.51,3.24-2.85.89-5.92-4.99-6.52-4.78-10.08.9-15.76.99-1,1.9-2.08,2.84-3.13,2.58-1.06,4.14-3.25,5.9-5.24Z"/>
  <path class="cls-2" d="M102.39,319.87c1.49-.01,2.92-.16,2.16,2.24-.31.96.43,2.12,1.45,2.7.55.31,1.04-.07,1.37-.54.64-.93,1.24-2.07.29-2.96-2.35-2.2-1.05-5.6-2.82-7.98-.75-1,.29-1.44.95-2.02,2.13-1.9,2.55-5.55,1.11-8-.99-1.68-2.39-1.94-4.52-1.06,1.08-2.62,2.98-3.77,4.41-5.29.84-.9,1.56-.23,2.21.4,1.79,1.74,2.93.63,3.83-.94,1.28-2.24,1.56-4.71,1.38-7.24.56-.95.79-2.14,1.96-2.64,1.33-1.08,2.5-2.37,4.25-2.86.88-.24,1.55-.85,1.58-1.84.06-1.88,1.32-2.86,2.69-3.78h0c3.29-.75,6.63-1.4,9.14-3.95h0c1.35-.84,2.87-.9,4.4-.95,1.92-.05,3.69-.4,4.72-2.29.39-.71,1.08-1.06,1.84-1.22,4.78-1.03,9.63-1.6,14.48-1.92,1.94-.13,3.92.02,5.8-.51,3-.84,5.59-.22,7.81,1.92,1.32,1.27,2.61,2.31,4.58,1.24.57-.31,1.47-.35,1.86.14,2.65,3.36,7.49,1.59,10.35,4.51.52.53,1.61.57,2.37,1,1.09.04,1.94.68,2.4,1.5,2.79,4.93,8.12,6.62,12.28,9.8,4.34,3.32,7.33,7.43,8.17,12.93-2.55-1.5-5.4-.21-8.1-.83-1.61-.37-2.98,2.36-2.1,4.19.68,1.42.9,2.59.08,3.95-.61,1.01-.19,1.86.66,2.56,1.81,1.48,1.64,3.08.38,4.85-1.73,2.42-2.08,4.97-.45,7.62.7,1.14.94,2.39.92,3.74-.03,1.93,1.27,2.66,2.93,2.85,1.76.2,2.21-1.15,2.45-2.46.81-4.39,1.86-8.7,3.88-12.73.57-1.14.04-2.35-.24-3.51-.75-3.18-.67-6.39-.34-9.6,2.64,2.18,4.43,4.83,3.83,8.39-.71,4.18,2.75,6.92,3.38,10.6.48,2.94-.44,6.42,2.05,8.61,2.76,2.41,4.37,5.53,6.42,8.39h0c.34,3.86.55,7.72,1.55,11.49.31,1.17.39,2.47,1.64,2.99,2.24.93,2.53,2.69,2.37,4.78-.12,1.51-.16,3.05.95,4.31.22.22.44.45.66.67.65.87.82,2.03,1.57,2.82,1.3,1.36.71,2.53-.24,3.71-.21.23-.41.46-.62.69-1.79-1.39-2.9-.98-3.51,1.21-.41,1.48-.42,3.58-2.92,2.95-1.9-.47-4.11-3.79-3.8-5.49.74-4.07,1.06-4.4,5.85-5.77-1.62-1.17-2.8-2.45-3.75-4.06-.88-1.49-3.06-1.69-4.67-1.68-1.76.01-1.15,1.99-1.54,3.14-1.67,4.9-.63,9.43,1.87,13.76.11.19.21.39.27.59.7,2.33,1.54,5.18-.27,6.81-1.97,1.77-3.4-1.38-5.21-2-1.18-1.34-.58-3.05-.98-4.55-.48-1.78-1.12-3.46-3.55-2.22-1.72-.85-1.94-2.65-2.23-4.14-.91-4.7-3.06-9.38-.76-14.27.52-1.09.92-2.36,2.39-2.28,1.36.07,2.11.97,2.2,2.35-2,1.87-2.71,6.31-1.71,8.74.72,1.74,2.43-.33,2.97,1.34.92-2.91-1.93-4.95-1.1-7.58,1.74-.13,2.73-1.04,3.69-2.57,1.75-2.77,2.18-6.38,5.26-8.33.93-.59.26-1.35-.23-1.93-1.53-1.78-5.03-1.79-6.7.05-1.1,1.2-2.02,2.55-2.96,3.89-.57.81-1.3,1.56-2.44,1.26-.99-.27-1.12-1.24-1.38-2.06-.16-.52-.41-1.12-.21-1.6,1.37-3.39,1.73-6.85,1.28-10.48-.15-1.17,1.21-1.69,1.92-2.48,1.8-1.98,2.67-4.13.68-7.37-1.01,4.26-1.85,7.97-4.81,10.64-.88.79-1.72,1.65-2.59,2.46-2.74,2.54-4.13,5.61-2.97,9.36.96,3.09.76,6.26.73,9.39-.03,2.85-1.72,4.36-4.27,4.4-.33-.89.13-1.71.26-2.56.61-4.02,2-8.05-.2-12.04-.25-.45-.22-1.08-.13-1.61,1.03-5.83-.8-11.3-2.04-16.86-.97-4.31-.45-8.79-1.14-13.17-.65-4.08-1.54-8.11-2.32-12.16-.36-1.85-1.12-3.41-2.58-4.74-3.2-2.93-4.72-7.29-8.28-9.97-.68-.51-1.22-1.26-2-1.65-4-1.99-6.24-5.55-8.29-9.31-.74.34-.93,1.13-1.43,1.64-.82.98-1.92,1.52-3.14,1.45-3.76-.22-7.49,1.5-11.27.15-.63-.23-1.38-.24-1.68.51-1,2.52-3.24,2.58-5.39,2.83-4.58.52-8.62,2.76-12.95,4.09-2,.31-3.6,1.43-5.16,2.63-3.83,2.93-6.61,6.87-9.89,10.33-1.91,2.01-1.63,5.02-1.5,7.48.49,9.14-1.36,18.12-1.45,27.19-.03,3.21-.58,6.46.07,9.67.2.98.36,1.93-.24,2.83-1.89.44-2.17-1.23-2.47-2.25-1.04-3.54-2.02-7.14-.47-10.83.61-1.44.63-2.98.26-4.49-.19-.75-.57-1.51-1.55-1.31-.78.16-.94.93-.88,1.56.22,2.26.04,4.56.53,6.8.09.43.09-.11.08.31-.11,7.38,1.68,14.89-1.33,22.09-.65,1.54-1.06,3.06-.47,4.73.49,1.37.32,2.8.02,4.19-.58,2.65.06,5.15.75,7.7.7,2.58.2,3.1-2.4,2.71-.92-.14-1.75-.11-2.48.42-2.41,1.74-3.71.4-4.92-1.62-.81-1.36-.83-3.13-2.06-4.27-1.21.55-1.28,1.6-1.48,2.52-.18.85-.67,1.58-.81,2.36,1.34-1.45,2.72-.77,3.95.11,2.01,1.46,3.78,7.07,3.05,9.29-1.62.25-3.13,1.63-4.9.25-.66-.51-1.52-.15-1.97.57-1.52,2.48-3.67,4.21-6.23,5.52-.53.27-1.32,1.01-.75,1.53,3.16,2.84-1.49,6.4.92,9.28.11.13-.45,1.22-.8,1.27-4.63.77-3.02,4.36-3.28,7.1-.02.22,0,.43,0,.65-1.04-.77-.37-2.04-.87-2.97-.51-.95-.63-2.51-2.4-1.62-1.16-2.24.54-4.83-.86-7.04,1.36-2.45,1.52-2.43,3.4.34,1.91-1.88,2.39-3.9,1.04-6.33-1.03-1.85-1.29-3.85-.76-5.96.25-1.01.48-2.12-.42-3.06-.89,6.25-3.72,8.06-8.9,5.7-.93-2.34-.71-4.79-.63-7.22,1.92-4.55,3.64-6.33,7.69-7.51-3.27-2.75-2.01-5.71-.83-8.79,1.39-3.59-.49-7.59,1.23-11.23.55-1.17.8-2.47,1.73-3.45.3-.31.86-.77.75-1.01-1.77-3.88,2.06-3.95,3.7-5.46,2.41-2.24,4.46-4.72,5.56-7.9-1,.79-.77,2.17-1.48,3.07-1.07,1.34-2.31,2.48-4.15,1.57-1.78-.88-2.65-2.45-1.8-4.32,1.06-2.33.82-5.35,3.92-6.7,1.25-.55.88-2.29.12-3.51-.86-1.38-1.24-2.79-.16-4.24.33-2.47,2.03-3.92,3.89-5.25Z"/>
  <path class="cls-48" d="M109.62,386.6c.21-3.27-2.03-5.67-3.2-8.42-.31-.73-2.61-2.69-3.4.41-.14.53-.37,1.15-1.03.99-.78-.19-1.06-1.03-.68-1.55,1.29-1.76,1.04-3.96,1.87-5.82.36-.81.85-1.65,1.81-1.68,1.16-.03,1.18,1,1.4,1.85.29,1.15.62,2.32,1.13,3.39.92,1.92,1.84,3.85,4.31,1.31,1.4-1.44,2.91-.98,3.87.7,1.33-.63.63-1.49.41-2.05-1.27-3.23-.44-6.71-.95-9.81-.8-4.89,1.19-8.72,2.2-12.98.29-1.22,0-2.59-.09-3.89-.05-.64-.5-1.31-.39-1.89,1.12-6.01-.26-11.91-.69-17.85-.11-1.46.08-3.14,1.99-3.01,1.55.11,2.61,1.1,2.64,3.09.03,2.33-.95,4.39-1.22,6.54-.46,3.74.15,7.53,2.46,10.78,2.45,4.37,2.68,9.29,3.5,14.07.55,3.21.84,6.46,1.6,9.64.78,4.34,3.21,7.92,5.44,11.58,1.87,2.14,2.96,4.41,1.86,7.36-.42,1.12.29,2.32.51,3.48.39,2.1,1.03,4.24-.46,6.2,0,3.6,0,7.21,0,10.81,0,2.08.11,4.24-3.12,3.16-.35-.12-.9.06-1.24.28-3.43,2.18-6.54,2.37-9.22-1.25-.57-.77-1.35-.33-1.96.27-.78.77-1.16,1.81-.59,2.67,1.22,1.86.66,4.31,2.21,6.04.39.43.78,1.14.14,1.75-.63.6-1.49.66-2.12.26-1.77-1.14-3.35-2.44-3.08-4.93.24-2.15-.19-4.13-1.93-5.62-1.86-1.61-1.65-3.45-.46-5.26,1.53-2.33,3.4-4.28,2.05-7.64-.47-1.17.92-3.45,1.99-4.79,1.09-1.36,2.77-2.26,3.74.53.3.86.58,2.56,2.03,1.92.89-.39.55-1.8.12-2.68-1.04-2.14-.6-4.19.1-6.28.37-1.12.37-2.29-.92-2.75-1.32-.48-1.7.73-1.97,1.61-.35,1.13-.74,2.05-2.11,2.08-.72-.1-1.32-.84-2.14-.4-2.29,1.39-5.46,1.85-5.67,5.41.04,1.63,1.32,3.1.61,4.82,0,.43.04.87,0,1.3-.11,1.01.37,2.79-.9,2.72-1.79-.11-.38-1.66-.42-2.57-.08-1.87-1.44-2.54-2.84-3.17-5.93-2.66-5.98-3.2-1.32-7.25,1.36-1.19,3.43-1.54,4.16-3.46Z"/>
  <path class="cls-27" d="M134.48,399.03c.05-2.7.18-5.41-1-7.96-.17-.38-.39-.95-.23-1.24,1.64-2.99.25-5.4-1.39-7.78,1.63-.43,2.62.74,3.72,1.54,3.35,2.43,6.96,4.36,10.74,6.03,4.68,2.06,9.67,1.72,14.42,1.09,3.98-.53,7.96-.61,11.93-.96,8.45-.75,15.14-4.84,21.09-10.51.84-.8,1.38-2.02,2.84-1.89,1.05,2.6-1.04,3.91-2.28,5.56-1.96,2.22-2.8,4.96-3.08,7.77-.61,6.26-.92,12.54-1.5,18.81-.2,2.11.65,4.07,1,6.1.36,2.05.45,4.11-.05,6.16-.38,1.13-.95,2.21-2.02,2.73-1.09.54-2.42.94-1.87-1.23.11-3.72,2.14-7.24.73-11.17-1.83-5.09-2.17-10.31-.26-15.55.38-1.05-.13-2.35-.92-2.95-.84-.64-1.44.61-2.09,1.09-3.02,2.2-6.62,2.95-9.99,4.31-6.75,2.73-12.81,2.19-18.94-1.25-2.39-1.34-5.15-.76-7.67-.75-2.61,0-4.88-.23-7.06-1.69-1.85-1.23-3.03-1.01-3.64,1.56-.65,2.72-.36,5.39-.51,8.09,1.91,5.95,3,12.13,4.95,18.06.64,1.95.37,3.86.32,5.79-.03,1.1-.57,2.11-1.47,2.83-4.41,3.5-5.94,8.86-3.92,14.1.96,2.49,1.69,4.85-1.48,6.37-1.27.6-.93,1.78-.97,2.86-.2,5.42-.51,10.82-2.96,15.83-.24.49-.24,1.08-1.01.87.1-1.14-.5-2.08-.85-3.1-.97-2.79-1.78-5.54-.04-8.44.68-1.13.85-2.49.46-4.04-.82-3.21,1.18-6.03,4.42-6.65,1.53-.3,1.81-.98,1.09-2.24-.38-.65-.85-1.26-1.24-1.91-1.72-2.86-3.44-5.38-.48-8.9,2.06-2.44,1.21-6.4,2.99-9.41.83-1.41-.52-1.74-1.81-1.1-1.31.65-2.81,1.28-3.64-.49-.8-1.7.48-2.53,1.85-3.2,3.58-1.76,3.68-5.41,3.63-8.43-.09-4.91-1.15-9.8-1.8-14.7Z"/>
  <path class="cls-48" d="M111.39,437.05c1.81-3.07.62-6.8,2.47-9.76,1.25-2.01,3.14-3.18,5.31-.75.64.72,1.35,1.59,2.5,1.03,1.32-.64.41-1.76.36-2.62-.15-2.33.49-4.35,2.86-4.83,2.29-.46,3.61,1.51,4.25,3.31.94,2.64,1.44,5.44,2.02,8.19.37,1.72-.71,2.59-2.17,3.14-2.66,1.01-5.42,5.86-4.3,8.46,1.14,2.66-.27,5.08.03,7.64.18,1.54-1.6,2.58-3.24,2.63-1.93.05-1.87-1.98-1.84-2.89.09-3.42-1.45-5.54-4.37-6.93-1.29-.61-1.25-1.78-.9-2.81.41-1.18,1.25-2.13,2.72-1.75,2.22.57,4.28.44,4.89-2.12.69-2.88-1.94-4.08-3.58-5.65-.68-.64-1.31.16-1.81.8-1.38,1.77-2.82,3.48-4.24,5.22-.31-.1-.63-.21-.94-.31Z"/>
  <path class="cls-107" d="M129.9,471.63c.98-3.05,3-6.23,2.64-9.13-.38-3.11,1.4-6.01.16-9.01-.51-1.24.08-1.96,1.5-2.22,2.58-.47,2.81-2.27,1.7-4.15-2.62-4.41-2.11-8.56.67-12.62.81-1.19.5-2.47.22-3.82,3.03,1.13,3.51.53,4.3-2.52,1.15-4.43-2.08-7.84-2.25-11.89-.16-3.93-2.56-7.38-2.39-11.37,3.08,6.51,4.47,13.51,5.87,20.51.13.64.08,1.3.66,1.74.8,2.64-.51,4.91-1.5,7.11-1.04,2.34-1.62,4.68-1.53,7.21.07,2.07-.04,4.11-1.08,6-.75,1.36-.67,2.83.27,4,2.25,2.82,2.2,5.68.71,8.8-.61,1.27-.81,2.75.63,3.81,1.26.9,2.33,2,3.42,3.08.7.76,1.46,1.47,2.13,2.25.49.89,1.12,1.73,1.05,2.83.38.68.75,1.36,1.13,2.03.37,1.17.87,2.43-1.28,1.92-.6-1.24-1.45-2.4-1.38-3.88-1.53-2.66-4.62-3.44-6.66-5.53-.83-.86-2.05-.5-1.97,1.23.11,2.53.9,4.87,1.71,7.22.43,1.25,1.01,2.82-.74,3.22-1.35.31-2.14-1.11-2.01-2.37.29-3.03-3.69-2.82-3.96-5.54-.11,2.51-2.65,3.82-2.63,6.27-1.77-1.98.72-3.44.64-5.21Z"/>
  <path class="cls-29" d="M112.5,403.32c-.79,2.1-1.18,3.33-1.72,4.48-.58,1.25-1.01,2.81-.26,3.76,2.54,3.22,1.65,6.52.73,9.93-1.49.28-1.13-1.71-2.57-1.91-.28,2.19,1.69,3.1,2.88,4.34-1.38.92-2.07.24-2.59-.4-2.29-2.84-4.91-5.5-5.26-9.46-.19-2.13-1.65-3.86-2.5-5.68-1.22-2.58-.68-4.72-.27-7.09.23-1.37.75-2.12,2.41-1.7,1.44.37,2.37.55,1.96,2.5-.27,1.27-.12,3.17.66,4.01,1.4,1.49,2.01-1.28,3.43-1.28.75,0,1.5-.69,3.1-1.5Z"/>
  <path class="cls-95" d="M101.78,437.63c.57-5.71-2.7-9.81-5.84-13.98-2.68-3.57-1.39-8.7,2.6-10.51.72-.33,1.52-.67,2.1,0,.57.66-.23,1.12-.56,1.64-2.02,3.26-.64,6.2.82,9.17,1.6,3.25,4.66,5.78,4.77,9.76-1.5-.28-2.87-.55-2.52,1.86.12.8.09,2.05-1.37,2.06Z"/>
  <path class="cls-2" d="M116.16,387.91c1.65-1.07,1.36.8,1.97,1.3.13,1.95-.12,3.37-2.09,4.76-1.18.83-2.57,2.53-3.18,4.27-.39,1.11-.98,1.27-1.93.79-.72-1.67-1.46-3.34-1.31-5.23.87-3.41,4.71-3.54,6.54-5.89Z"/>
  <path class="cls-43" d="M101.78,437.63c1.47-1.83-.04-4.17,1.12-6.34.97.85,1.87,1.64,2.77,2.43,0,1.85-.08,3.71.04,5.55.12,1.76-.7,2.96-2.03,3.82-.71.46-1.54,1.53-2.53.38-.72-.83-1.43-1.73-.52-2.87.69-.87,1.23-1.8,1.15-2.96Z"/>
  <path class="cls-106" d="M118.84,467.85c4.82-3.76,1.19-7.28,0-10.81-.23-.68-1.09-1.38-.3-1.99.8-.61,1.3.39,1.84.84,3.99,3.32,3.35,9.98-1.54,11.96Z"/>
  <path class="cls-48" d="M130.88,445.57c.53.04.83.39.68.84-.24.73-.75,1.33-1.58,1.4-.58.05-.68-.47-.62-.89.12-.85.66-1.3,1.52-1.35Z"/>
  <path class="cls-64" d="M63.85,508.25c.24-3,.1-6.1.85-8.97.63-2.4-.42-4.46-.31-6.69.07-1.41-.89-1.29-1.67-.51-1.32,1.32-1.71,2.91-1.3,4.77.39,1.78.64,3.59.95,5.39.15.85-.07,1.66-.95,1.76-.89.1-.84-.81-.85-1.43-.03-1.38-.15-2.65-1.89-2.88-.9-2.68-1.17-5.32.52-7.83,3.61-3.04,3.93-7,4.45-11.49.59-5.16.36-10.66,2.66-15.55.78-1.66-.09-3.46.85-5.01,1.87-.19,2.4-1.41,2.59-3.09.42-3.56,1.97-6.65,4.02-9.63.76.82.42,1.6.51,2.31-.46,3.44-.09,7.08-2.51,10.04-.93,1.14-.39,2.2.38,3.21.53.7,1.67,1.25.82,2.43-2.27,3.36-2.8,7.34-3.93,11.12-2.02,2.55-2.16,5.71-2.37,8.68-.49,6.94.84,13.83,1.06,20.77-.41,0-.82,0-1.24,0-1.36-.51-.53,1.27-1.36,1.31-.42.44-.85.87-1.27,1.31Z"/>
  <path class="cls-56" d="M67.16,459.79c.93,1.79.53,3.37-.02,5.31-1.54,5.45-3.06,11.01-2.63,16.76.34,4.55-.81,8.09-5.29,9.98.74-2.24,1.48-4.42.78-6.91-.42-1.47.07-3.38,1.18-4.24,3.14-2.44,2.51-5.76,2.67-8.95.04-.87-.15-1.81.12-2.59,2.1-6.12,1.75-12.47,1.84-18.78.03-1.96.31-3.86,1.21-5.62,2.34-.94,3.04-2.61,2.54-5.05-.24-1.15-1.38-1.96-1.1-3.25.72-2.36,3.04-1.45,4.54-2.21.26-.24.5-.24.73.04,1.42,2.44.84,9.09-1.25,10.34-6.1,3.63-7.22,8.83-5.3,15.17Z"/>
  <path class="cls-96" d="M73.72,434.28c-.24-.01-.49-.02-.73-.03.22-1.38.47-2.75.64-4.14.16-1.38-.19-2.61-1.52-3.31-1.29-.68-1.97.38-2.78,1.05-.34.28-.68.53-1.32.13.1-1.97,1.58-3.12,2.94-4.24,3.57-2.94,4.2-4.58,2.78-8.95-.96-2.95-.57-5.27,2.32-6.87,1-.55,1.37-1.52,1.61-2.66.35-1.66.65-3.47,2.56-4.24.34.33.56.85.33,1.18-2.29,3.34.8,4.89,2.28,6.97.76,1.06,1.51.35,2.27,0,.98-.46,1.91-.81,2.06.82-.06.31-.2.57-.43.79-2.55,1.94-5.45,3.55-6.24,7.07-.1.44-.65.93-1.1,1.13-5.11,2.15-5.45,6.56-4.93,11.07.19,1.65-.08,2.91-.73,4.25Z"/>
  <path class="cls-38" d="M72.97,465.07c-.06-.56-.34-.9-.81-1.28-2.04-1.64-3.35-3.56-.48-5.52,1.85-1.27.37-2.99,1-4.4.64-1.45,1.08-2.98,1.6-4.48.54.36,1.07.99,1.63,1.02,4.1.21,3.25,3.01,2.65,5.32-.94,3.6-3.12,6.59-5.59,9.34Z"/>
  <path class="cls-26" d="M86.72,410.76c.01-.19.03-.39.06-.58.14-2.2-.6-4.43.23-6.62.38-1,.48-2.13,1.69-2.57,2.78,2.17.89,4.75.64,7.19.02.76-.01,1.52.06,2.28.12,1.18,1.39,2.89-.54,3.25-1.7.31-2.13-1.42-2.14-2.95Z"/>
  <path class="cls-59" d="M65.12,506.94c.18-1.39-.28-2.88.48-4.37,1.31.96.65,2.12.89,3.06,0,.43,0,.86-.04,1.29-.05.49.23,1.29-.38,1.38-.89.13-.81-.77-.95-1.37Z"/>
  <path class="cls-20" d="M147.07,472.26c-.48-.89-.96-1.78-1.45-2.66-1.35-2.35-1.6-4.94-1.58-7.56.02-2.94.19-5.92-.68-8.75-1.61-5.22,1.01-10.07,1.15-15.13.04-1.38,1.35-2.11,2.7-2.53,3.6-1.12,5.31-3.4,4.84-7.01-.37-2.9-.91-5.84-2.94-8.19-1.82-2.1-1.82-4.31-.45-6.63,1.33-2.25,2.51-4.54,2.93-7.21.27-1.73,1.48-2.98,3.35-3.07,2.65-.13,5.27.08,7.08,2.44.66.86,1.09,1.89,1.74,2.76.8,1.07,1.7,2.17,3.1,2.19,3.09.05,5.8,1.67,8.93,1.77,3.27.09,5.05,3.67,3.61,7.21-1.6,3.93-5.23,6.3-8,9.32-.78.84-2.05.48-3.11.09-.82-.3-1.61-.72-2.49-.76-1.3-.05-2.45.31-2.78,1.72-.3,1.28.56,2.04,1.55,2.59,1.35.75,2.93.86,4.39,1.2,4.67,1.1,8.47,3.89,12.35,6.38,2.94,1.88,4.94,4.86,5.11,8.65.08,1.84-.19,3.71.33,5.53.08.74-.03,1.43-.58,1.98-2.36,2.21-.22,4.5.11,6.62.62,3.96,1.13,8.13,4.47,11.06-1.44,2.1-2.91,1.52-4.2-.09-.73-.92-1.49-2-1.7-3.1-.66-3.51-2.14-6.44-4.44-9.21-2.13-2.55-1.17-5.57,1.92-7.12,1.6-.8,1.86-1.75,1.02-3.08-2.03-3.22-3.18-7.33-7.86-7.95-.3-.04-.71-.22-.85-.46-3.13-5.39-8.76-4.47-13.67-5.71-7.61-1.92-10.48,3.85-14.24,8.1-1.19,1.34-.57,3.53-.05,5.35,1.59,5.5,2.5,11.04.34,16.6-.63,1.63,1.18,3.12.06,4.69Z"/>
  <path class="cls-76" d="M146.92,476.21c1.28-.07,1.28-.99,1.28-1.92,1.93,5.11.88,10.34-2.61,13.01-1.5-1.85-1.59-3.72.01-5.54,1.44-1.63,1.29-3.61,1.32-5.56Z"/>
  <path class="cls-10" d="M177,488.69c.85-.69,1.69-1.38,2.54-2.07,1.09.14,1.62.88,1.33,1.82-.75,2.43-1.12,5.01-3.31,6.83-1.62,1.35-4.29,2.25-2.7,5.49.6,1.22-4.67,8.42-6.22,9.02-3.33,1.28-5.88,0-8.03-2.54-1.57-1.85-4.41-3.2-3.69-6.07.76-2.99,4.09-2.26,6.26-3.23.66-.3,1.55-.02,2.05-.78,1.28-.9,2.56-1.8,3.84-2.7,3.33-.98,5.41-3.69,7.94-5.77Z"/>
  <path class="cls-15" d="M177,488.69c-2.01,2.8-3.85,5.84-7.94,5.77,2.56-2.04,4.88-4.42,7.94-5.77Z"/>
  <path class="cls-74" d="M98.5,325.12c0,1.52-.03,2.93,1.18,4.23,1.68,1.8.64,4.25-.89,4.69-3.73,1.09-1.93,4.74-3.71,6.69-.71.77.82,2.52,2.09,2.78,1.28.26,2.4-.74,3.08-1.89.25-.43.17-1.06.23-1.59.15-1.33,1.1-2.08,2.09-2.75.18-.12.76-.03.82.12.59,1.35-.48,2.19-1.06,3.19-1.36,2.34-2.43,4.87-4.65,6.62-1.09.86-1.89,1.96-3.48,2.23-1.45.24-1.5.62-.26,1.58,1,.77.47,1.32-.02,1.8-3.2,3.22-3.89,6.99-3.46,11.46.21,2.22.11,4.96-1.77,7.03-1.35,1.49-.52,2.67.84,3.82.73.62,1.88,1.47,1.4,2.69-.47,1.2-1.53.81-2.53.54-1.18-.32-1.75.73-2.35,1.44-1.34,1.56-2.57,3.2-3.85,4.81.06-2.59.87-4.76,2.87-6.6,3.06-2.81,2.53-6.79,2.51-10.33-.02-2.83-.4-5.6.65-8.31,1.2-3.11,1.17-6.37,1.11-9.63-.04-2.35.49-4.43,2.11-6.29,2.09-2.41,2.47-5.4,2.48-8.52,0-3.92.89-7.55,4.56-9.82Z"/>
  <path class="cls-6" d="M88.7,400.99c-1.49,2.89-.71,6.25-1.92,9.19-.81-2.05-1.38-.08-1.92.18-1.28.63-2.55,1.82-2.83-.85-.05-.5-.37-1.3-.72-1.39-5.09-1.31-1.78-4.15-1.22-6.48.05-.21.08-.43.11-.64,4.11-2.13,3.49-5.62,2.64-9.18.97.01,1.95-.02,2.92.05,3.53.24,5.22-1.47,4.85-4.92-.1-.89-1.3-2.32.58-2.48,1.27-.11,2.28,1,2.02,2.4-.69,3.83-.13,7.23,1.64,10.83.75,1.54-1.36,4.22-2.96,5.57-1.04.88-1.17-.94-1.24-1.83-.19-2.21-.92-1.96-1.95-.45Z"/>
  <path class="cls-33" d="M68.45,436.45c2.79,3.55,2.67,6.7-.27,8.92-.96.72-1.01.02-1.17-.62,1.92-2.21,2.36-4.6.81-7.2-.03-.5.05-.95.63-1.1Z"/>
  <path class="cls-3" d="M71.18,429.33c.52.22,1.01.52.92,1.15-.11.81-.66,1.5-1.44,1.47-.7-.03-.97-.77-.82-1.49.15-.71.59-1.12,1.34-1.13Z"/>
  <path class="cls-68" d="M59.27,501.7c1.83,4.99.34,8.59-4.59,11.11.88-3.97,2.12-7.8,4.59-11.11Z"/>
  <path class="cls-63" d="M190.06,421.92c.12-3.26-.23-6.42-1.06-9.62-1.01-3.94.25-7.97.59-11.91.4-4.67-.33-9.56,1.75-14.05.72-1.55,1.01-3.34,2.65-4.32,0,5.3-.67,10.53-1.69,15.7-.74,3.79-.81,7.58-.62,11.38.17,3.34,1.28,4.33,4.63,4.61.65.05,1.29.06,1.92.3,3.05,1.16,3.49.89,3.91-2.36.03-.22.01-.44.06-.65.38-1.64-.72-4.11,2.02-4.48,2.37-.32,5.57,2.28,6.05,4.5.12.53.29,1.11.13,1.62-1.07,3.34-.9,6.48.72,9.69.66,1.31.44,3.09-1.35,3.88-1.02.45-2.58.12-2.7,1.82-.11,1.56.31,3.02,1.27,4.29.47.62,1.16.97,1.8,1.39,3.97,2.58,4.23,3.22,3.3,7.69-.26,1.27-.39,2.54.21,4.01,1.95-.92,1.98-2.43,1.71-3.91-.85-4.59-.59-9.34-2.24-13.82-1.34-3.64,1.87-5.71,3.33-8.36.14-.26.57-.32.59-.62-1.51.4-2.97,2.17-4.61.82-1.53-1.26-.97-3.21-.67-4.92.44-2.51,1.65-4.71,2.82-6.92,1.97-.82,2.43.76,3,1.98.97,2.07,1.9,4.15,3.08,6.11,1.27,2.11.85,3.92-.86,5.56-1.04,1-2.36,1.85-2.17,3.59,2.15-2.76,4.32-5.51,4.14-9.34-.04-.95-.4-1.95.21-2.86,3.61.21,6.31,4.14,5.01,7.29-.38.92-.41.92-3.02.34.91,2.45,2.96,3.15,4.9,3.91.86.34,1.48-.17,1.85-.92.7-1.41,1.17-2.88.08-4.3-.86-1.12-1.78-2.19-2.68-3.27-2.51-3.02-2.8-6.48-2.32-10.14.13-.97.63-2.02.2-2.89-1.8-3.59-1.12-7.13-.13-10.74.49-1.79.38-3.63.25-5.5-.17-2.47,1.12-3.23,3.19-1.95,1.42.89,2.89,1.42,4.52,1.72,2.29.42,3.84,1.87,5.04,3.81.35.57,1.03.98,1.58.22.41-.56-.05-1.08-.57-1.27-1.62-.6-3.08-1.25-2.7-3.41.38-2.23,2.22-2.01,3.78-2.29.54-.1.95-.52,1.47-.7,1.44,2.07,2.43,4.33,2.51,6.86.05,1.67.08,3.27,1.83,4.28-2.92,1.44-3.93,4.09-1.99,7.63,1.54,2.82,1.51,5.54,1.53,8.42.02,3.18.68,5.64,3.93,7.43,4.14,2.28,3.62,7.12,4.56,11.04.34,1.42-.05,3.02-.11,4.53-.14.11-.3.19-.47.24-.61.52-.67,1.39-1.22,1.95-.66.73-1.26,1.5-1.91,2.23-1.65,1.84-2.1,3.68-.56,5.88.74,1.05,1.42,2.41-.11,3.44-1.46.98-2.88.79-4.12-.51-.9-.94-1.56-2.1-2.9-3.11.52,3.55,1.14,6.9-.87,10.03-.71,1.1,0,2.36.7,3.35,1.24,1.75,2.15,3.54,1.42,5.77-.1.3-.05.65,0,.97.7,4.97.71,4.9-4.23,3.76-1.36-.31-2.32-1.12-3.45-1.73-.58-.31-1.38-.61-1.78,0-.56.86.25,1.61.89,1.75,1.78.4,3.5,1.19,5.38,1.11,2.94-.11,2.57,2.5,3.27,4.12.66,1.54.28,2.97-1.33,3.92-2.97,1.76-5.14,4.09-5.26,7.79-.02.63-.37,1.04-.98,1.1-1.83.18-3.66.85-5.5.32-2.02-.57-3.55-1.71-3.67-4.04-.15-2.88,1.86-3.61,4.36-4.11-2.06-.2-3.54-1.15-3.51-3.04.11-6.13-3.48-11.14-4.83-16.81-.29-.59-.47-1.27-.93-1.72-4.08-3.99-4.19-8.72-2.9-13.88.87-3.49-.02-6.73-2.15-9.97-.96,1.64-.2,2.54.47,3.32,1.76,2.05,1.85,4.29,1.08,6.73-.59,1.86-1.01,3.75-1.15,5.74-.24,3.36.38,6.26,3.29,8.34,2.51,1.8,1.66,4.19,1.08,6.53-.94,2.56-.03,5.01,1.53,6.71,2.92,3.18,2.8,7.07,2.9,10.72.08,2.95,1.16,4.66,3.35,6.17,4.45,3.06,4.24,8.2-.48,10.88-1.9,1.08-3.21,2.05-1.09,4.11.47.46.79,1.11.46,1.78-.42.85-1.25.71-2.01.69-6.75-.22-9.76-5.61-6.41-11.46,1.16-2.01,1.67-4.02-.05-6.04-2.14-2.51-1.33-6.1-3.19-8.79-.62-.9-.71-1.83-2.16-1.86-1.56-.03-2.65-1.09-2.94-2.62-.29-1.51.96-2.03,2.08-2.52,1.82-.81,1.49-2.18.44-3.11-2.6-2.3-3.92-5.05-4.18-8.49-.1-1.31-1.23-2.3-2.21-3.16-3.25-2.84-4.63-6.24-3.33-10.51.11-.37.24-.83-.54-1.42-.87,3.4-1.23,6.76.93,9.37,1.99,2.41,2.39,4.97,2.65,7.79.33,3.57-1.39,6.77-1.74,10.22-.11,1.06-1.11,1.84-1.99,2.5-.73.54-1.52.93-2.41.38-.86-.54-1.18-1.55-.76-2.29,2.85-5.09.25-9.83-.79-14.69-.65.34-.61,1.07-.93,1.59-.35.56-.65,1.19-1.44,1.11-.78-.08-.87-.82-1.21-1.36-2.84-4.55-3.07-9.51-2.51-14.64.1-.88-.03-2.06.85-2.3,2.77-.75,1.4-2.07.8-3.56-1.46-3.61-3.79-6.88-4.15-10.93-.15-1.75-2.03-2.84-2.18-4.68Z"/>
  <path class="cls-86" d="M252.15,497.13c-.91-.02-2.02-.13-1.83-1.28.6-3.73-1.47-6.65-2.69-9.84.71-1.86-.25-3.03-1.54-4.24-2.48-2.33-2.66-3.4-.74-6.21,2.47-3.6,2.31-7.35,1.63-11.45-.49-2.91-.62-5.61-2.87-7.96-1.16-1.2-.11-3.15.7-4.58.76-1.34,1.76-1.83,3.17-.62.67.57.79-.38,1.05-.74,2.91-4.18,3.5-4.34,7.73-2.07-1.21-1.16-2.44-2.38-1.59-4.39.12-.1.23-.2.35-.3,3.68,3.15,4.3,6.29,1.7,10.16-1.52,2.26-1.51,3.68,1.33,4.6,1,.32,1.86,1.1,2.78,1.67-.11.71-.37,1.42-1.2.86-2.9-1.97-2.28.28-2.76,1.97-1.36,4.73,1.7,7.08,4.66,9.57,0,0,0,0,0,0-.9,1.44-1.02,3.05-.97,4.68.03.84-.13,1.56-1,1.81-.85.24-1.07-.53-1.37-1.08-.43-.78-.83-1.74-1.91-.98-.94.66-.51,1.47.03,2.26.55.8,2.07,1.44.95,2.64-.87.93-2.23.71-3.4.44-1.51-.36-2.43-1.35-2.84-3.11-.88,1.61-1.28,3.14-.65,4.68.92,2.28.92,4.59.7,6.96-.06,2.2-.03,4.4.6,6.54Z"/>
  <path class="cls-86" d="M252.85,434.34c.27-.61.69-1.07,1.36-1.25.45,3.46,1.6,6.82,1.31,10.37,0,0-.07.06-.07.06-3.91-.23-4.98-1.62-3.98-5.26.37-1.34.6-2.73,1.39-3.92Z"/>
  <path class="cls-78" d="M251.55,490.59c-.56-4.62-3.9-9.28.22-13.9,1.08,4.85,1.39,5.09,6.01,4.39-1.13-1.39-3.68-1.98-2.7-4.28.4-.93,1.47-1.72,2.58-1.77,2.28-.1,1.23,2.33,2.25,3.34,1.9-1.69-.56-4.79,2.11-6.08-1.17,3.7,1.02,7.74-1.18,11.39-.35.58.08,1.68.28,2.51.29,1.19.64,2.58-.07,3.49-2.71,3.51-.88,6.75.31,10.06-.11.51-.06,1.23-.38,1.49-.6.48-.88-.22-1.14-.66-1.45-2.41-3.67-4.32-3.21-7.77.31-2.31-3.29-3.68-5.09-2.21Z"/>
  <path class="cls-81" d="M128.59,479.47c2.09,3.31,1.47,6.5-1.53,7.95-.94.46-1.89.82-2.63-.17-.63-.84-1.49-1.86-.77-2.94,1.29-1.94,2.28-4.26,4.93-4.84,0,0,0,0,0,0Z"/>
  <path class="cls-65" d="M135.75,482.06c2.44-2.79,4.2-.51,5.76.98,1.82,1.75.11,3.21-1.03,4.41-1.02,1.06-2.45,3.3-3.29,2.68-1.52-1.13-3.43-2.63-3.36-5.09,0-.11,0-.22,0-.33.49-.99.85-2.08,1.93-2.65Z"/>
  <path class="cls-69" d="M252.85,434.34c-.03,1.06.34,2.38-.14,3.15-2.26,3.57-.1,4.91,2.74,6.03-.87,2.64,2.48,3.58,2.56,6.1-.49-.16-.77-.21-1.02-.35-5.85-3.18-5.27-2.11-7.73,2.19-.35.61-.24,1.72-1.24,1.7-1.33-.03-.56-1.05-.65-1.69-.1-.77-.7-.77-1.22-.52-1.48.7-1.68,4.55-.54,5.75,1.55,1.64,2.99,3.46,1.83,6-.12.26-.21.66-.1.89,2.4,4.82,1.09,9.11-1.86,13.17-1.66,2.28-.19,3.53,1.54,4.72,1.86,1.28,3,2.68.6,4.54-.63-.75-1.2-2.47-2.28-1.35-1.04,1.07-1.63,3-.57,4.52,1.89,2.71,2.82,5.66,3.37,8.9.39,2.27-.93,4.43-.04,6.68.22.56-.57.86-1.14.76-2.92-.53-3.9,1.5-5.03,3.57-1.07,1.95-1.46,4.35-3.48,5.73-.55.16-.88-.15-1.18-.54-.73-1.03-.7-2.51-2.52-3.6.59,3.74-1.58,7.11.65,10.44.08.32.02.6-.18.86-1.2,1.21-1.74-.13-2.32-.7-2.62-2.57-4.51-5.59-5.6-9.14-.44-1.43.23-1.68,1.27-2.02,1.06-.35,1.91-1.25.95-2.15-.94-.89-1.74-2.37-3.43-2.13-.51.07-.73.62-.57,1.01,1.27,2.95-.74,4.88-2.11,7.02-.12.18-.22.38-.37.53-.8.81.66,3.58-2,2.63-1.93-.68-3.39-2.33-2.73-4.6.76-2.63.5-3.7-2.61-2.97-1.75.41-2.85-1.95-4.73-1.83-.67-1.87-2.12-2.25-3.88-2.01.01-2.05-.09-4.08.51-6.12.41-1.37.1-2.84-1.43-3.61-2.61-1.31-2.08-3.2-.88-5.11,1.97-3.15,1.11-4.92-2.71-5.14-2.08-.12-2.2-1.08-1.22-2.47,1.55-2.22,1.69-4.34.07-6.58-.58-.8-.79-1.67-.47-2.75.63-2.15.08-4.29-.45-6.39-.25-.99-.7-1.68-1.82-2-3.59-1-5.68-3.37-5.26-6.87.53-4.36-1.64-7.92-2.68-11.81,1.01-2.06,2.77-3.97,1.3-6.53.06-3.4-.29-6.32-3.06-9.14-1.6-1.63-3.14-4.78-2.19-7.86.17,1.28.8,1.39,1.65.58.6-.57,1.08-1.26,1.61-1.89,1.92,1.8,2.99,3.78,3.48,6.59.64,3.66,2.68,7.05,4.63,10.31.38.63,1.18,1.1.87,1.97-.35.98-1.22.78-1.94.6-1.14-.28-2.03.31-1.63,1.23,1.08,2.45-.24,4.71-.22,7.05.02,2.04.03,4.04,1.97,5.18,1.73,1.02.07,2.91,1.41,4.35.87-1.88.95-4.03,3.28-5.12-.29,4.53,1.45,8.36,2.44,12.37.39,1.58-.9,2.31-1.55,3.39-.6.98-1.62,2.19-.33,3.19,1.44,1.1,1.96-.72,2.85-1.31.26-.17.57-.46.62-.74.93-4.88,2.25-9.72,1.47-14.76-.04-.29-.3-.6-.55-.78-3.81-2.78-3.25-6.92-3.48-10.85-.08-1.35.93-1.88,1.72-2.56.24-.21.89-.25,1.17-.07,1.21.75.42,1.81.15,2.62-1.42,4.13-.34,7.43,3.01,10.13,1.96,1.58,3.23,3.54,2.88,6.21-.21,1.6.58,2.76,1.79,3.6,1.21.83,1.99,1.97,2.76,3.16,1.03,1.59.6,2.64-1.19,3.18-1.04.31-2.93,0-2.3,1.82.53,1.57,1.88,2.73,3.85,1.45.31-.21.76-.21.74-.2,1.64,4.21,1.4,8.83,4.55,12.34,1.76,1.96.52,4.14-.33,5.67-3.53,6.38-2.21,9.33,5.14,10.54.5.08.99.25,1.42.36.5-.83.07-1.18-.36-1.52-2.75-2.19-2.76-3.75.62-4.82,3.33-1.05,3.12-3.83,4.08-6.03.62-1.41-.59-2.39-1.78-3.09-3.03-1.77-5.44-3.31-4.96-7.96.3-2.96.41-6.92-2.74-9.81-1.65-1.52-3.04-4.33-1.57-7.14.62.35.37,1.76,1.62,1.32,1.33,1.18,1.04,3.29,2.7,4.53,0-2.74-2.05-4.51-2.64-6.82.09-1.47-.13-3.02,1.03-4.23,1.32,5.5,5.22,10.21,4.78,16.29-.09,1.2.35,3.79,2.96,1.89.71-.52,1.34-.22,1.34.62,0,1.65-.87,2.83-2.58,2.59-1.15-.16-1.89-.19-2.28,1-.43,1.31-.53,2.59.59,3.62,1.27,1.17,2.8,1.87,4.48,1.27,1.17-.42,2.3-.33,3.79-.33-1.35-1.83-2.04-3.42.75-4.29.82-.26,1-1.34,1.26-2.18.33-1.05.67-2.12,2.08-2.15,1.17-.02,2.5-.32,2.32-1.66-.23-1.77-1.03-3.46-1.58-5.19-1.93,1.08-3.75-.98-5.19-.56-3.1.9-2.66-2.07-4-2.97-.1-.07.09-.97.32-1.08,1.23-.55,3.23-.81,3.66.04,1.26,2.44,4.01,1.03,5.48,2.61.43.47,1.28.4,1.77-.16.4-.45.31-1.07-.09-1.49-1.31-1.39-1.19-2.75-.45-4.45.57-1.3-.69-2.35-1.4-3.44-1.21-1.88-2.38-3.47-.33-6,1.57-1.94.9-4.97.08-7.51-.25-.78-1.23-1.74-.35-2.34,1.08-.73,1.66.64,2.28,1.27.98,1,1.81,2.15,2.68,3.25.93,1.18,1.98.52,2.95.14,1.18-.46.46-1.25.17-1.87-2.31-5.07-2.06-6,2.63-9.82Z"/>
  <path class="cls-67" d="M186.15,456.58c0-.65-.01-1.3-.02-1.96-.28-.37-.45-.86-.26-1.22,2.2-4.16.59-7.93-.99-11.81-.86-2.11-1.91-3.43-4.34-3.78-4.23-.61-7.12-6.82-5.08-10.63,1.02-1.92,2.3-3.7,3.42-5.56,2.92-4.86,1.1-10.86-4.89-12.2-5.4-1.21-10.23-4.2-15.68-5.43-3.06-.69-6.07-.47-9.04.13-2.45.49-4.55,5.4-3.62,8.5.66,2.17,1.37,4.36,2.41,6.4,3.08,6.04,2.5,10.51-2.13,15.66-.91,1.02-1.55,2.17-1.59,3.49-.22,6.33-1.49,12.57-.31,19.05.59,3.23,1.08,7.04-.4,10.47-1.09-.87-2.18-1.74-3.27-2.61-1.55-2.31.21-4.42.51-6.58.26-1.87.41-3.52-.46-5.33-2.12-4.43-.19-8.99-.03-13.48.12-3.3,1.5-6.33,2.52-9.42,2.09-6.31.19-12.15-1.94-17.98-.18-.5-.22-1.07-.6-1.49-1.83-3.19-.44-6.35.29-9.43.36-1.49,2-1.79,3.52-1.7,2.36.14,4.71.23,7.04-.51,1.22-.39,2.58-.19,3.79.47,2.58,1.41,5.39,2.12,8.25,2.68,3.94,1.49,7.88.56,11.77-.16,5.59-1.03,5.91-.96,7.65,4.43,2.12,6.54,2.24,12.89-1.71,18.95-2.02,3.1.32,8.12,3.96,8.82,2.29.44,3.1,1.6,3.26,4,.43,6.34.19,12.87,2.05,18.94,1.35,4.4,2.39,9.07,5.07,13.01-2.76,1.32-3.68-.81-4.45-2.62-1.58-3.7-2.63-7.62-4.71-11.11Z"/>
  <path class="cls-83" d="M140.36,410.8c4.37,6.74,5.25,13.98,2.67,21.5-1.71,4.98-1.82,10.15-2.63,15.24-.18,1.14-.22,2.53.25,3.51,1.99,4.11,1.62,8.07-.16,12.09-.25.55-.1,1.28-.14,1.93-2.47-1.35-2.49-3.4-1.3-5.51,1.5-2.66,1.65-4.94-.62-7.34-1.05-1.11-1.97-2.91-.81-4.43,1.62-2.12,1.53-4.45,1.38-6.8-.32-5.11,3.12-9.09,3.95-13.84,1.07-5.11-1.41-9.66-2.31-14.46-.12-.63-.2-1.27-.3-1.91Z"/>
  <path class="cls-83" d="M163.25,402.31c-2.42.17-4.67-.21-6.86-1.41-2.11-1.16-4.4-1.86-6.74-.33-1.26.83-2.49.04-3.74-.16-3.55-.57-4.62.33-4.91,3.85-.18,2.18-1.58,4.24-.64,6.54-1.66-2.01-2.91-9.05-1.65-10.74,1.1-1.48,2.87-1.94,4.67-1.43,1.74.49,3.37.37,5.12.01,2.8-.58,5.66-.7,8.18,1.04,2.01,1.38,4.65,1.08,6.57,2.62Z"/>
  <path class="cls-27" d="M192.05,440.24c1.9,2.28,1.55,4.04-1.3,6.53-.09-2.28,1.58-4.21,1.3-6.53Z"/>
  <path class="cls-98" d="M235.23,521.98c-.02-.22-.03-.43-.05-.65-1.52-2.23-.62-4.58-.1-6.78.36-1.52,1.55-2.05,2.73-.42.21.23.43.45.64.68,2.67,3.7.66,6.87-1.15,10.13-1.62-.34-1.02-2.25-2.08-2.96Z"/>
  <path class="cls-21" d="M242.43,382.65c.04,1.54-.63,2.34-2.19,1.81-1.32-.45-2.13-.21-2.37,1.23-.24,1.48.3,2.28,1.92,2.25,1.09-.03,1.91.61,2.3,1.56.41,1.03-.55,1.56-1.15,2.13-1.55,1.48-2.49.23-2.93-.99-.92-2.52-2.69-3.44-5.19-3.6-1.41-.09-2.74-.56-3.77-1.67-.46-.49-.94-1.43-1.85-.72-.56.43-.57,1.18-.4,1.82.86,3.39.2,6.58-1.17,9.7-.21.47-.39,1.21-.17,1.58,2.53,4.33.53,9.06,1.29,13.53.45,2.68,2.39,4.55,4.12,6.43,1.83,1.99,1.94,5.74-.07,7.49-.31.27-.75.51-1.14.53-1.5.11-6.35-3.56-6.73-5.06-.19-.76-.29-1.65.46-2.08,1.05-.6,1.13.61,1.61,1.09.28.28.62.51,1.18.95.25-3.71-.11-6.71-4.01-7.89-1.65-1.1-2.3-2.83-2.87-4.6-.43-1.35-.5-2.86-1.24-4.05-2.2-3.54-1.79-6.78.75-9.91.61-3.26,1.37-6.43-.45-9.67-1.39-2.47-.26-5.15,2.47-7.08,1.51-.22,2.39.77,3.34,1.68,1.31,1.24,1.87.68,1.88-.89.02-2.27-.11-4.37-1.32-6.56-2.05-3.69-3.41-7.73-1.58-12.06.24-.58.23-1.27.28-1.92.31-3.98.52-3.67,4.25-2.85,2.56.56,4.01,1.15,4.4,3.78.12.76.99,1.07,1.81,1.16.92.1,1.93.41,1.67,1.51-.26,1.12-1.32,2.03-2.46,1.66-5.1-1.65-2.89,3.31-4.07,4.92-.92,1.25,2.19,2.65,3.41,4.06.56.65,1.3-.13,1.45-1.06.15-.96.37-1.91.65-2.84.32-1.06.72-2.1,2.18-1.91,1.3.17,1.92.89,1.8,2.21-.04.65-.08,1.31-.12,1.96-1.49,2.52-2.14,5.54-4.45,7.57-.6.53-1.1,1.09-.7,1.94.33.71,1,.67,1.66.69,2.03.08,4.07,0,6.1.26.47.63.95,1.27,1.42,1.9Z"/>
  <path class="cls-63" d="M241.01,380.75c-2.25,1.78-4.97-.17-7.4.93-.62.28-1.52-1.02-1.64-2.09-.12-1.04.04-2.04,1.18-2.38,1.8-.53,2.5-1.58,1.85-3.37-.43-1.17.04-1.72,1.16-1.61,1.53.16,1.52-1.28,2.25-1.95,1.6,3.31,2.14,6.88,2.61,10.46Z"/>
  <path class="cls-61" d="M237.14,360.44c-2.02-1.13-1.17-3.07-1.25-4.69-.08-1.64-.17-2.98-2.28-3.24-1.62-.2-2.12-1.44-2.38-3.02-.68-4.19-.64-8.39-.6-12.6,1.15,1.14.44,2.63.71,3.93-.33,2.32.73,4.2,2.6,5.16,3.18,1.62,3.43,4.24,2.89,7.1-.47,2.52-.36,4.93.3,7.36Z"/>
  <path class="cls-42" d="M239.13,367.64c.22-1.23.89-2.47-.52-3.51-.99-.74-.79-1.94-.81-3.01,1.74.69,2.41,2.44,3.32,3.8,1.37,2.04-1.18,1.89-1.99,2.73Z"/>
  <path class="cls-21" d="M214.95,300.89c1.3,4.11.39,8.52,1.81,12.66.48,1.41-1.53,2.37-1.96,3.94-.94,3.45-1.89,6.88-2.5,10.4-.31,1.77-1.2,2.9-3.11,2.35-1.91-.55-4.45-.82-3.91-3.75.24-1.31.18-2.33-.57-3.34-2.34-3.15-1.63-6.16.59-8.92,1.32-1.64,1.17-2.68-.67-3.52-.63-.29-1.54-.88-1.29-1.24,1.84-2.74-.3-5.59.36-8.26.69-2.81,2.48-3.5,5.17-2.33.74.32,1.51.63,2.14.04,2.19-2.03,3.06-.47,3.89,1.33.04.21.06.42.06.64Z"/>
  <path class="cls-24" d="M192.04,276.03c-1.93.06-3.99.49-5.04-1.88-.11-.25-.55-.56-.78-.52-2.88.49-5.69.99-7.18-2.58-.18-.43-1.47-.31-1.97.46-1.3,1.99-2.33.79-3.29-.3-2.55-2.91-5.38-3.94-9.44-3.09-4.77,1-9.75.95-14.64,1.42-2.52.24-5.42-.55-6.57,3.11-.38,1.19-2.36,1.36-3.77,1.43-1.84.09-3.69.03-5.54.03,2.96-2.45,6.5-3.79,10.11-4.68,8.61-2.14,17.35-3.62,26.25-3.83,1.54-.04,3.07,0,4.18,1.32-.37,2.01,1.02,1.34,1.99,1.3,4.44,1.9,8.88,3.81,13.32,5.71,1.03.44,1.85,1.1,2.37,2.11Z"/>
  <path class="cls-61" d="M230.63,336.88c-.32-.01-.86.08-.94-.06-2.86-5.49-9.94-9.12-7.53-16.94-.07,5.29,3.66,8.58,6.44,12.39,1,1.36,2.21,2.7,2.03,4.61Z"/>
  <path class="cls-24" d="M124.68,278.05c-.83,1.39-2.6,2.38-1.77,4.48.3.76-.36,1.15-.96,1.42-1.92.87-3.86,1.72-5.79,2.58,1.63-4.04,4.33-7.01,8.52-8.48Z"/>
  <path class="cls-24" d="M133.82,274.1c-2.09,3.53-5.6,3.77-9.14,3.95,3-1.42,6.31-2.13,9.14-3.95Z"/>
  <path class="cls-2" d="M176.35,268.21c-.44.77-.94,1.57-1.94.9-.66-.44-1.47-.92-1.46-1.87,0-.12.92-.22,1.41-.34.66.43,1.33.87,1.99,1.3Z"/>
  <path class="cls-21" d="M214.93,407.53c.42,2.7-2.13,4.41-2.29,7-.1,1.61-.66,3.18.12,4.75,1.35-.95,3.52-.29,4.37-2.27.24-.55.74-.85,1.28-.27.51.55.58,1.53.05,1.74-2.41.94-1.93,3.95-4.03,5.22-1.46.88-1.02,2.78-.39,4.19,2.16,4.89,1.25,10.27,2.53,15.32.34,1.32-.96,2.59-2.12,3.42-1,.72-1.98.52-2.07-.88-.1-1.62-.56-3.61.17-4.82,2.16-3.61-.27-5.32-2.68-6.27-3.27-1.29-3.43-3.99-3.92-6.55-.17-.9.03-2.55,1.61-2.76.95-.12,2.23,1.17,2.8-.42.51-1.45.44-3.34-.61-4.28-2.05-1.84-1.37-3.68-.69-5.63.56-1.59.82-3.09.14-4.75-.5-1.22-.81-2.33-2.48-1.64-.19.08-.44.14-.64.09-2.8-.69-2.75-.69-2.97,2.53-.08,1.17-.34,2.37-.74,3.48-.68,1.93-1.77,2.88-3.42.79-.68-.86-1.38-1.01-2.51-.92-3.93.32-5.45-1.28-5.74-5.28-.43-5.92.67-11.68,1.67-17.44.57-3.28-.25-6.79,1.63-9.85,1.15-1.38,2.42-2.7,2.57-4.63-.13-.3-.31-.64-.19-.92,1.8-4.16,2.39-8.61,3.27-13,1.1-1.29.81-3.92,3.51-3.69,2.29-.28,3.39-2.27,3.34-3.88-.1-3.1.4-6.27-.65-9.35-1.44-4.27.18-8.13,3.79-11.02,3.07-2.46,5.39-5.62,5.9-9.72.16-1.32.35-2.56,1.42-3.49,3.24,3.26,3.44,6.17-1,9.92-1.25,1.06-1.13,2.01-.77,3.1.79,2.45.43,4.75-.8,6.89-.53.93-.9,1.74-.34,2.71.4.69-.16,2.05,1.07,2.08.89.02,1.24-1.02,1.76-1.71,1.77-2.33,2.63-5.78,6.82-5.23,1.89.25,3.2.82,4.37,2.32,1.26,1.61,1.63,2.37-.84,3.06-2.33.65-2.32,3.5-3.45,5.24-.76,1.17-1.98,2.63-2.11,4.68-.11,1.72-2.23.08-3.46-.18-.89-.42-1.34-.99-.68-1.95-.07-1.22-.71-2.27-1.85-2.33-1.52-.09-1.1,1.52-1.57,2.39-2.43,4.54.11,8.82.85,13.11.24,1.37-.14,3.65,1.91,4.5,2.7,2.74,1.85,6.13,1.11,9.1-.63,2.52-.32,4.61.56,6.81.73,1.84,1.29,3.66.46,5.61-.25.71-.67,1.34-1.13,1.93-2.51,3.26-4.23,6.7-2.74,10.98.24.68.25,1.48-.2,2.17Z"/>
  <path class="cls-90" d="M203.16,359.79c-1.96.53-1.59,2.71-2.7,3.84-.5-.49-.76-1.13-.62-1.77,1.4-6.22-.15-12.67,1.6-18.9,1.03-3.65-1.11-7.19-1.15-10.85-.23-9.68-1.78-19.21-3.5-28.7-.46-2.52-1.64-5.12-3.98-6.91-1.81-1.39-3.18-3.27-4.33-5.26-1.46-2.53-3.6-4.47-6.07-5.75-3.82-1.99-6.98-4.33-8.02-8.76.79-1,1.57-2,2.33-2.97,1.33,3.11,2.39,6.36,5.15,8.26,2.96,2.03,6.23,4.01,8.22,6.75,4.26,5.87,9.44,11.35,9.91,19.4.24,4.09,1.48,8.34,1.46,12.32-.04,6.06,2.03,11.51,2.91,17.27.2,1.29.16,2.58-.27,3.87-.67,1.95-.56,4.09.54,5.67,1.42,2.04,1.2,4.06.31,5.81-1.1,2.16.3,4.88-1.78,6.67Z"/>
  <path class="cls-31" d="M174.39,276.73c.9.02,2.02.05,1.88,1.24-.37,2.98,1.8,4.12,3.77,5.1,4.4,2.2,7.91,5.24,10.41,9.49,1.69,2.87,4.85,4.44,6.22,7.78,1.85,4.5,2.04,9.27,2.97,13.88,1.15,5.69,1.09,11.63,1.55,17.46-.34.21-.64.17-.91-.12-.91-1.78-1.1-3.73-1.28-5.68-.24-2.61-.53-5.22-1.52-7.65-1.79-4.44-1.64-9.17-2.27-13.78-.36-2.6-1.41-4.75-3.26-6.59-3.01-2.99-4.88-6.91-8.22-9.67-3.3-2.73-6.97-4.88-10.67-6.86-2.91-1.55-6.39-.47-9.61-.07-2.7.83-5.37,1.7-7.75,3.28-4.65.62-9.29,1.34-13.92,2.11-.58-.08-1.09-.29-1.46-.77,4.59-2.09,9.17-4.19,14.31-4.59,1.67-.13,3.6.1,3.12-2.82-.26-1.58,1.37-1.11,2.09-.73,4.36,2.31,8.75-.39,13.11.19.65.09,1.11-.59,1.44-1.18Z"/>
  <path class="cls-13" d="M140.32,285.86c.46.02.93.04,1.39.06.07,1.01-.81,1.09-1.41,1.52-6.28,4.45-10.94,10.25-14.2,17.2-.38.81-.65,1.68-.44,2.52,1.21,4.88-.4,9.69-.27,14.54-1.88,4.4-.55,9.1-1.31,13.6-.78,3.17-.61,6.35-.19,9.54.12.34.2.7.26,1.05,1.35,6.98,2.39,14,3.11,21.07.11,1.08.31,2.13-.06,3.19-.15.36-.39.62-.73.81-1.43-4.31-1.76-8.84-2.27-13.28-.43-3.75-2.24-7.18-2.16-10.99-1.09-10.63-.06-21.16,1.14-31.72.48-4.19-.46-8.51.17-12.77.14-.95-.2-2.05.61-2.78,4.49-4.06,7.64-9.48,13.02-12.64,1.1-.65,2.12-1,3.35-.93Z"/>
  <path class="cls-71" d="M218.18,392.49c.61-1.58.51-3-.26-4.61-1.26-2.62-1.79-5.26-.69-8.36.95-2.68.57-5.76-.35-8.6-.13-.72-.27-1.44-.41-2.22,3.82,1.39,4.36,2.49,4.35,8.75-1.68,2.78-3.14,5.2-.76,8.75,1.48,2.21.26,5.53-.53,8.29-.71-.49-.62-1.51-1.34-1.99Z"/>
  <path class="cls-21" d="M197.43,290.99c.72-.29,1.3-.47,1.82.22,1.42,1.87,3.26,1.45,4.96.62,1.38-.68,2.57-.6,3.52.45.79.86,1.46,2.12.86,3.23-.65,1.2-2.04,1.49-3.4,1.48-3.6-.01-6.31-2.42-9.48-3.58-.59-.22-1.12-1.13-.77-1.95.58-1.36,1.79,0,2.5-.47Z"/>
  <path class="cls-71" d="M217.53,353.25c.23.65.45,1.3.68,1.95.73,2.56,2.25,4.87,2.24,7.66,0,.6.58,1.36-.08,1.76-.7.42-1.15-.24-1.42-.87-1.16-2.71-1.79.34-2.91.21-1.29-2.92-1.09-6.1-1.12-9.27-.02-2.24.99-2.33,2.62-1.44Z"/>
  <path class="cls-61" d="M229.29,350.01c-.1.78-.28,1.76-1.21,1.57-1.11-.23-.98-1.53-1.25-2.39-.2-.64.15-1.49.91-1.36,1.06.18,1.51,1.11,1.55,2.18Z"/>
  <path class="cls-21" d="M221.98,334.72c-.12.58-.53.84-1.14.72-.56-.1-1.03-.44-1.03-1.03,0-.71.61-.75,1.16-.72.6.03.99.32,1.01,1.03Z"/>
  <path class="cls-93" d="M200.55,331.65c.21,0,.42.01.63.02.07.97-.1,2.04.25,2.9,1.96,4.82.61,9.65.17,14.47-.11,1.18-.6,2.43-.36,3.53.84,3.8,0,7.41-.8,11.05-.82,4.73-1.13,9.59-3.89,13.77-4.53,5.81-10.47,9.58-17.34,11.99-3.81,1.34-7.73,1.82-11.75,1.31-.9-.11-1.69.02-2.55.24-10.94,2.72-20.77.35-29.63-6.47-1.11-.86-2.3-1.62-3.45-2.43-2.49-3.35-4.6-6.89-5.38-11.07,0,0,.29-.08.29-.08,2.73,2.03,3.82,5.29,5.91,7.82,2.96,4.36,7.77,6.12,12.12,8.46,2.49,1.34,5.34,1.84,8.13,2.32,4.21.73,7.89-1.31,11.59-2.69,3.12-1.17,5.85-1.67,9.09-.42,3.89,1.5,9.32-2.18,11.05-7.05.33-.93.51-1.89.64-2.86.46-3.42,1.69-5.08,5.35-5.28,3.96-.23,4.78-3.99,5.96-6.94,1.05-2.62-.15-4.51-2.36-6.11-3.81-2.76-3.77-3.88.36-6.17,4.08-2.27,4.9-6.17,5.4-10.17.29-2.34.54-4.74-.16-7.12-.3-1.02-.26-2.18.7-3.02Z"/>
  <path class="cls-26" d="M116.16,387.91c-.04.62.1,1.6-.53,1.69-2.75.4-4.08,2.71-6.01,4.2q.92-3.06,6.54-5.89Z"/>
  <path class="cls-94" d="M143.64,467.69c-.22-5.8-.59-11.59-.61-17.39-.02-4.54.42-9.09.6-13.63.05-1.36.78-2.14,1.79-2.9,3.47-2.62,4.98-9.18,2.7-12.84-1.58-2.53-2.41-5.34-3.53-8.01-2.16-5.12,3.28-10.91,9.18-10.19,5.51.68,10.86,1.81,15.89,4.33,1.81.91,3.8,1.57,5.89,1.79,2.45.26,6.25,4.61,5.85,7.05-.41,2.5-.46,5.15-2.36,7.3-1.28,1.44-2.13,3.26-3.16,4.92-.6.97-1.05,1.94.06,2.9.32.28.78.68.77,1.02-.15,4.29,2.27,5.37,6,5.05.43-.04.98.44,1.36.8,2.06,1.98,1.66,5.03,3.27,7.33,1.71,2.44.98,5.15-.79,7.54-.35.47-.29,1.24-.41,1.87-.97-.87-.68-2.03-.62-3.07.34-5.55-2.17-8.96-7-11.78-3.24-1.89-6.63-3.26-9.91-4.95-.95-.49-1.88-.48-2.85-.47-2.07.02-3.15-1.32-3.9-2.95-.5-1.08-.15-2.35.68-2.98,1.39-1.06,3.09-1.76,4.79-.54,2.61,1.88,4.19.97,5.73-1.57.98-1.62,2.64-2.84,4.05-4.17,1.78-1.67,2.14-3.75,1.73-5.99-.19-1.05-.62-2.47-1.78-2.5-3.03-.09-5.91-1.49-8.72-1.53-3.32-.05-4.91-1.56-5.98-3.96-1-2.25-2.47-3.33-4.79-3.76-3.79-.7-5.1.07-5.38,3.92-.18,2.49-1.89,4.12-2.92,6.1-1.12,2.16-.98,3.72.57,5.58,3.73,4.47,3.7,9.62,2.11,14.88-.39,1.3-1.81,1.41-3.04,1.42-2.49.02-4.51.45-3.52,3.74.03.1.03.23-.01.32-3.31,7.54.01,15.19-.38,22.79-.11,2.13.4,4.3.63,6.45-.92-.37-1.55-1.03-1.99-1.9Z"/>
  <path class="cls-4" d="M74.87,412.34c-.39-1.43.88-2.44,2.34-3.29.82-.48,1.67-1.1,2.64-.18.78.73,1.11,1.56.87,2.62-.21.94-.5,1.89-.51,2.84-.02,1.8-.42,3.35-2.46,3.58-2.21.26-2.09-1.79-2.62-3.08-.23-.58-.15-1.28-.27-2.49Z"/>
  <path class="cls-84" d="M218.18,392.49c2.43-.67.87,1.34,1.34,1.99-.01.96-.74,1.5-1.23,2.2-1.01,1.45-1.4,2.77-.4,4.68,1.87,3.59,2.3,7.78,4.25,11.38,1.71,5.16-1.19,9.05-3.62,13.05-.3.49-.8,1.18-1.55.85-.84-.37-.73-1.23-.73-1.99-.01-1.65,1.23-2.53,2.31-3.34,2.3-1.74,3.03-3.32.89-5.88-1.25-1.5-1.85-3.59-2.53-5.5-.4-1.11-1.01-1.87-1.98-2.41-2.76-5.85-.57-10.62,3.26-15.04Z"/>
  <path class="cls-66" d="M223.41,463.76c-1.65.8-1.21-.58-1.38-1.32,1.25-3.28-.02-5.45-2.58-7.69-3.45-3.02-2.15-7.24-1.36-10.94.73-3.41,2.25-6.62-1.31-9.38-.82-.64-.67-1.84-.35-2.76.19-.55.71-1.18,1.23-1.39.8-.32.98.56,1.33,1.08,2.78,4.06,2.89,8.59,1.7,13.03-1.02,3.77-.39,6.76,2.31,9.44.95.94,1.56,2.08,1.74,3.42-.05,1.55.24,3.15-.64,4.59.02.73.03,1.46-.69,1.93Z"/>
  <path class="cls-78" d="M253.66,459.56c2.2.84,1.6,2.72,2.27,3.97.15.28.04.95-.2,1.14-.5.4-.92-.1-1.37-.38-2.05-1.28-.87-2.94-.7-4.72Z"/>
  <path class="cls-78" d="M257.65,470.47c.61,1.28.53,2.16-.49,2.76-.17.1-.75-.1-.79-.25-.27-1.04.1-1.85,1.28-2.52Z"/>
  <path class="cls-63" d="M218.08,480.75c-.74,1.22-.41,2.45.52,3.7.42.55.15,1.28-.4,1.74-.64.54-1.2.18-1.73-.24-1.75-1.37-3.48-2.5-5.71-.71-.51.41-1.95.08-1.84-.68.33-2.28-1.2-3.85-1.74-5.77-.29-1.04.12-1.89.92-2.6.72-.64,1.32-.39,2.03.07,1.86,1.21,4.3.12,6.18,1.57.98.75,2.06,1.24,1.76,2.92Z"/>
  <path class="cls-92" d="M237.81,514.13c-1.45-.84-2.15-.34-2.25,1.25-.12,1.98-.25,3.96-.38,5.94-1.65-.92-2.29-2.17-1.59-4.07.66-1.78.19-3.67.3-5.51.05-.85-.22-2.01.76-2.3,1.11-.33,1.73.83,2.16,1.61.51.93.68,2.04,1,3.08Z"/>
  <path class="cls-63" d="M223.41,463.76c.06-.7-.04-1.46.69-1.93,2.14,2.21,3.57,4.69,3.11,8.08-2.98-1.21-3.2-3.79-3.8-6.15Z"/>
  <path class="cls-80" d="M200.55,331.65c-.45,3.01.68,5.89.39,9.01-.53,5.74-1.69,10.57-7.62,12.97-1.82.74-1.46,1.8-.06,2.86,1.9,1.44,4.65,2.11,4.68,5.31.04,3.91-2.34,6.66-4.31,9.61-.72,1.08-1.97.92-3,.77-3.27-.48-4.38,1.44-4.42,4.13-.07,4.56-2.86,7.45-6.09,9.87-2.17,1.62-4.79,2.45-7.63.86-1.36-.76-2.87-1.33-4.64-.58-3.27,1.38-6.66,2.48-9.98,3.73-1.49.56-3.03.44-4.51.27-7.31-.87-13.45-4.49-19.31-8.61-1.01-.71-2.14-1.57-2.19-3.08,1.13-.38,1.84.41,2.6.98,4.57,3.4,9.67,5.84,14.91,7.98,2.97,1.21,5.84.35,8.52-.87,3.29-1.5,6.88-1.96,10.18-3.39,1.81-.79,3.86-.42,5.81-.08,1.42.25,2.83.31,4.11-.52,1.01-.65,2.34-1.43,1.97-2.7-.4-1.4-1.87-.48-2.85-.52-.97-.04-1.99.21-2.93-.02-5.39-1.3-10.8-2.23-16.38-2.15-2.11.03-3.26-1.54-3.14-3.78.13-2.47,1.58-4.05,4.07-4.23,3.56-.26,7.07-.83,10.57-1.46-6.24-.11-12.47-.29-18.57,1.34-1.15.31-2.35.5-3.55.42-2.52-.17-2.95-.94-2.03-3.6,1.63-1.81,3.98-1.82,6.1-2.43.81-.3,1.61-.6,2.45-.8,4.35-1.41,8.85-1.95,13.35-2.51,3.38-.42,6.47.34,9.44,1.83,3.11.9,6.37,1.33,9.05,3.48,1.46,1.17,3.06,1.11,4.13-.77,1.08-1.89.66-3.83-1.51-4.5-3.31-1.02-5.13-3.56-7.14-5.97-.91-1.09-1.76-2.39-.93-3.87.92-1.63,2.42-1.09,3.79-.72,1.49.41,3.01.48,4.54.46,6.39-.1,9.58-1.78,10.45-10.22.58-5.66-1.49-11.18-2.17-16.8-.32-2.66-3.26-2.16-4.7-3.51.07-1.33.3-2.67.13-4.01,1.61-4.52,2.44-9.15-.14-13.49-3.1-5.22-6.04-10.63-10.91-14.55-2.63-2.48-5.95-3.64-9.25-4.86-1.94-.28-3.69-1.31-5.68-1.37-1.04-.1-2.14,0-2.91-.95,4.66-1.05,8.96-1.57,13.4,1.68,3.91,2.87,8.27,5.14,11.33,9.03,2.07,2.63,4,5.36,6.35,7.79,1.92,1.99,2.21,4.94,2.1,7.36-.26,5.93,2.48,11.14,3.18,16.79.35,2.79.64,5.58.96,8.37Z"/>
  <path class="cls-102" d="M166.52,280.65c2.1-.18,3.73,1.77,5.89,1.3,1.59,2.57,4.82,2.32,6.94,4.02.62.5,1.51.73,2.21,1.21,6.47,5.95,11.47,12.92,13.2,21.63.43,2.18-1.34,4.8-2.1,7.22-.7.49-1.49.46-2.14.09-3.99-2.27-8.23-2.09-12.53-1.35-.74.13-1.5.08-2.23-.16-.36-.14-.64-.37-.86-.68,2.87-3.17,6.76-2.39,10.36-2.64.84-.06,1.68.32,2.49.6,1.13.51,1.99.6,2.46-.94.81-2.68.18-5.38-2.28-7.25-1.93-1.47-2.83-3.2-2.58-5.59.23-2.26-.84-3.97-2.4-5.46-4.77-4.56-10.56-7.08-16.9-8.54-1.19-.27-2.4-.24-3.55.14-5.72,1.92-11.69,2.42-17.61,3.19-2.13.28-3.91,1.24-5.67,2.35-1.41.59-2.2,1.82-2.87,3.04-2.1,3.82-5.14,6.97-7.47,10.62-.85,1.34-1.34,2.68-1.36,4.26-.03,2.83.22,5.68-.11,8.49-.23,1.95-.17,4.23-2.7,5-.54-4.82,1.07-9.55.18-14.49-.43-2.4.69-5.43,2.94-7.5,3.69-3.41,5.75-8.24,9.97-11.27,1.27-.91,2.76-1.09,3.91-2.03,4.73-.98,9.44-2.01,14.31-2.01,3.35-1.57,6.69-3.16,10.5-3.25Z"/>
  <path class="cls-102" d="M166.52,280.65c-3.84-.02-6.63,3.34-10.5,3.25,1.76-2.51,4.66-2.49,7.2-3.28,1.1,0,2.2.02,3.3.03Z"/>
  <path class="cls-73" d="M124.71,321.22c2.41-2.84,2.19-6.32,1.84-9.58-.66-6.17,2.27-10.54,6.22-14.71,1.51-1.6,2.43-3.77,3.6-5.69.63-1.05,1.3-2.01,2.68-2.09.46,1.21-.51,1.96-.91,2.89-.79,1.11-1.2,2.44-2.02,3.53-1.64,2.48-2.83,5.16-5.02,7.4-1.89,1.93-2.69,4.99-1.19,7.84,1.07,2.04.14,4.9,2.65,6.31.51,1.24-1.24,1.69-.95,3.28,3.84-2.3,7.85-3.09,12.08-1.67.94.32,1.88.66,2.57,1.44.4.51.9.95,1.2,1.53,1.11,2.11.63,3.09-1.78,3.03-2.95-.08-5.82.38-8.7.84-3.68.59-4.04,1.07-4.29,4.69-.65.71-1.43.56-2.06.1-2.59-1.91-3.52-.21-4.01,1.92-1.06,4.57-2.05,9.11,1,13.46,4.18,5.95,8.5,5.85,14.62,3.12,4.05-1.81,6.93-3.25,10.5-.07.29.09.56.23.8.42.65,1.5-.56,2.82-.41,4.28-.12.29-.32.5-.62.61-2.56-1.69-4.41-1.09-6.01,1.52-.94,1.53-2.51,2.66-3.45,4.26-.49.82-1.21,1.66-.65,2.68.6,1.08,1.68.72,2.62.61,2.29-.25,4.49-.12,6.47,1.24l-5.9,1.96c-1.76,1.45-3.27,3.12-4.77,4.84-4.71,5.4-9.02,4.87-12.44-1.43-.85-1.56-1.26-3.2-1.38-4.96-.31-4.5.56-5.69,5.01-6.81,1-.25,2.2-.16,2.83-1.24-.22-.51-.66-.61-1.07-.7-5.91-1.16-9.03-5.05-10.44-10.63h0c-.49-3.29-.48-6.57,0-9.85.02-2.6.14-5.21.03-7.81-.1-2.32.19-4.5,1.35-6.54Z"/>
  <path class="cls-1" d="M123.34,345.41c1.16.45,1.58,1.52,1.85,2.54,1.26,4.61,4.81,6.33,9,7.25,1.04.23,2.5.16,2.52,1.47,0,1.21-1.45,1.4-2.46,1.74-.41.14-.86.12-1.28.22-5.37,1.33-6.72,4.16-4.49,9.43.08.2.18.39.28.59,3.31,6.7,6.49,7.77,12.2.96,1.3-1.55,2.7-2.74,4.64-3.26-.93,1.65-.81,2.78,1.45,2.58,1.83-.16,3.78-.13,5.45-.78,5.78-2.23,11.92-.27,17.75-1.74.63-.16,1.43-.04,1.65.7.25.83-.57,1.03-1.12,1.32-1.15.61-2.3,1.35-3.68,1.15-3.04-.42-5.88,1.14-8.97.77-2.09-.25-2.47,1.71-2.72,3.38-.25,1.71.59,3.09,2.21,2.92,6.29-.69,12.19,1.63,18.32,2.08.96.07,1.95-.11,2.9-.29.94-.18,1.99-.78,2.54.47.41.93.24,1.92-.48,2.74-1.55,1.77-3.36,3.68-5.81,2.88-5.67-1.87-10.7.61-15.26,2.75-6.26,2.94-11.63,1.74-16.91-1.28-3.81-2.17-8.04-3.82-11.07-7.24-1.98-2.44-3.74-5.03-5.1-7.87-.92-7.55-1.55-15.14-3.18-22.59-.21-.93-.16-1.92-.24-2.89Z"/>
  <path class="cls-1" d="M123.33,335.56c0,3.28,0,6.56,0,9.84-1.09-3.28-1.03-6.56,0-9.84Z"/>
  <path class="cls-102" d="M152.8,353.23c-1.42-1.58.69-2.53.68-3.86.48-.56,1.06-.6,1.69-.3.7.73.48,2.62,2.62,1.73-.75-.82-2.14-.68-2.52-1.76.43-1.13,1.52-1.44,2.4-1.3,3.36.55,6.08-1.15,8.97-2.28,2.33-.07,4.55.13,6.72-1.55,1.87-1.44,3.9.3,5.65,1.37,3.72,2.3,7.53,3.24,11.76,1.33,4.73-2.13,7.42-8.21,5.67-13.12-1.08-3.05-3.36-4.24-5.76-2.23-3.53,2.97-7.41,2.82-11.4,2.48-2.62-.23-4.91.27-7.24,1.37-4.8,2.27-7.67.43-6.92-4.73.48-3.32,1.17-6.4.07-9.81-.77-2.39.87-4.39,3.31-5.28,1.02-.37,2.05-.73,3.05-1.16,1.14-.26,2.27-1.01,3.46-.14.26.02.51.05.77.07-.19,1.78-1.83,1.93-2.99,2.58-1.38.77-2.93,1.3-3.88,3.07,2.03.52,3.6-.31,5.2-.77,3.41-.98,6.64-2.53,10.27-2.81,2.38-.18,4.47.52,6.59,1.32.71.27,1.3.8,1.1,1.74.48.8,1.28.74,2.03.71,2.19-.09,3.31,1.36,3.6,3.11.88,5.31,2.16,10.69,2.05,16.01-.23,11.3-5.69,13.31-15.61,11.93-1.17-.16-2.5-1.66-3.5-.08-1,1.57.59,2.73,1.42,3.62,2.01,2.11,3.58,4.66,7.01,5.31,2.67.5,2.73,2.88,1.69,5.25-1,2.28-2.63,3.65-4.75,2.07-2.95-2.2-6.23-3.22-9.68-4.03.45-1.18,1.54-1.81,2.34-2.69,1.45-1.58.96-3.23.21-4.86-.79-1.72-2.22-1.79-3.87-1.41-3.61.83-7.28,1.3-10.99,1.34-1.2.01-2.45.06-3.53-.48-1.89-.95-3.77-1.57-5.92-1.02-.63.16-1.27-.22-1.75-.72Z"/>
  <path class="cls-108" d="M151.51,364.39c-2.65.1-5.2-.92-7.99-.19-2.04.53-3-1.36-1.98-3.43,1.65-3.35,4.42-5.87,6.88-8.55,2.07-2.26,2.75,1.45,4.37,1.67,3.14-.97,5.95.21,8.7,1.46,1.58.72,1.97,2.22,1.7,3.84-.24,1.47-1.17,2.05-2.67,2.31-2.43.42-4.74,1.38-7.08,2.22-.64.23-1.29.45-1.93.68Z"/>
  <path class="cls-5" d="M153.45,363.71c1.86-1.69,4.28-2.09,6.58-2.53,1.6-.31,2.37-1.02,2.5-2.46.13-1.42-.47-2.83-1.87-3.08-2.65-.47-5.05-2.07-7.86-1.76,0-.22,0-.44,0-.66,2.94-.14,5.63-.09,8.66.98,3.99,1.42,8.54.05,12.76-.88,2.05-.45,4.11-1.5,5.3,1.14,1.11,2.46,2.32,5.03-.74,7.16-.79.55-1.35,1.43-2.45,1.44-3.63-1.34-7.1-1.82-11.22-1.38-3.98.43-7.7,1.93-11.66,2.03Z"/>
  <path class="cls-17" d="M192.06,319.18c-3.92-3.07-8.22-2.5-12.54-1.23-3.11.92-6.18,2-9.27,2.99-.96.31-2.03.49-2.63-.54-.69-1.19.49-1.73,1.13-2.37,1.97-1.96,4.89-2.28,7.02-3.98,1.82-.23,3.65-.39,5.45-.71,4.22-.76,7.79,1.14,11.45,2.69-.3,1.03,1.96,2.56-.61,3.15Z"/>
  <path class="cls-99" d="M165.37,376.2c-.81-.23-1.42-.48-2.05-.58-1.48-.22-3.72-.13-3.53-1.95.17-1.62,2.38-.51,3.65-.84,1.56-.4,3.11-.89,4.69-1.21.94-.19,2.08-.29,2.6.79.57,1.19-.53,1.91-1.27,2.3-1.3.7-2.79,1.04-4.08,1.49Z"/>
  <path class="cls-102" d="M181.57,287.19c-2.82-.26-4.84-2.57-7.65-2.98-.88-.13-1.48-1.17-1.5-2.25,2.94,1.94,6.71,2.43,9.16,5.23Z"/>
  <path class="cls-36" d="M137.74,291.76c-.09-1.13.94-1.71,1.31-2.62,2.75-3.26,6.81-2.4,10.31-3.16,4.32-.93,8.8-.97,12.99-2.66,2.94-1.19,6.03-.08,8.49,1.02,4.74,2.12,9.83,3.98,13.36,8.16,1.32,1.57,2.51,3.22,2.01,5.55-.44,2.08.11,3.74,2.21,4.86,3.88,2.08,3.36,6.34,2.3,9.51-.64,1.93-1.63,1.25-2.61.27.08-1.83-.72-3.1-2.39-3.88-1.29-.6-2.46-1.4-3.54-2.32-1.43-1.23-2.6-1.79-4.52-.41-2.01,1.44-4.65,0-5.27-2.46-.26-1.05-.31-2.15-.48-3.22-.28-1.78-1.12-2.9-2.94-3.47-2.67-.84-5.08-2.48-8.02-2.57-1.14-.04-2.01-.83-2.65-1.73-.81-1.14-1.87-1.78-3.22-2-3.61-1.34-7.06.51-10.6.62-2.22.07-4.47.42-6.72.49Z"/>
  <path class="cls-105" d="M155.41,289.8c.32.06.76,0,.94.19,3.95,4.19,9.71,4.37,14.53,6.63,2.46,1.15,1.8,3.71,2.11,5.7.25,1.61.29,2.88,2.24,3.38,1.74.45,2.66-.01,3.23-1.65.36-1.02,1.02-.91,1.74-.24,2.23,2.08,4.78,3.67,7.43,5.17,1.27.72,2.84,2.18.48,3.74-4.52-1.12-8.86-.44-13.1,1.28-1.08.23-2.16.45-3.24.68-.89.36-1.79.71-2.72.96-2.68.7-4.39,2.5-3.96,5.03.65,3.83.61,7.35-.92,11.07-1.01,2.45,1.07,4.7,2.42,6.77.77,1.18,1.93,2.05,2.86,3.1.71.8,1.58,1.6,1.27,2.83-.38,1.49-1.68.98-2.68,1.14-.52.08-1.09.09-1.5.5-2.59,1.67-5.15,3.26-8.52,2.44-.72-.17-1.95-.12-2.62.8h0c-.63.03-1.27.05-1.9.07,0,0-.04-.06-.04-.06.76-2.75,3.26-2.8,5.37-3.37,1.14-.3,2.39-.07,3.55-.43,1.19-.36,2.02-1.02,1.45-2.38-.76-1.83-.78-3.84-1.56-5.66-1.44-3.35-1.56-6.74-.37-10.19.43-1.25.46-2.55.31-3.87-.59-5.3,1.28-8.21,6.25-9.89,1.24-.42,2.47-.83,3.75-1.11.61-.13,1.41-.2,1.45-1.04.04-.75-.65-1.07-1.19-1.42-.55-.36-1.17-.58-1.77-.82-3.86-1.55-4.03-1.82-3.83-6.02.18-3.75-.66-5.09-4.96-6.53-2.87-.96-5.02-2.5-6.31-5.23-.24-.5-.45-.99-.18-1.55Z"/>
  <path class="cls-58" d="M155.41,289.8c1.83,3.2,4.29,5.33,8.02,6.44,4.13,1.24,5.1,3.17,4.29,7.49-.54,2.88.39,4.09,3.07,4.43.42.05.89.18,1.21.44,1.19.97,3.56,1.16,3.31,3.07-.24,1.79-2.33,1.38-3.76,1.78-3.47.98-7.39,1.54-8.41,6.03-.07.31-.43.65-.35.89,1.8,5.94-3.18,12.12.77,18.06.99,1.49,1.07,3.62,1.66,5.4.75,2.26-2.07,2.87-3.98,2.81-3-.1-5.52.83-7.79,2.67-1.07,0-2.43,1.27-3.11-.44-1.33-3.31-3.37-1.97-5.11-.72-4.58,3.28-10.98,4.13-14.8,1.76-4.46-2.78-6.37-8.12-5.26-14.26.29-1.59.34-3.22.93-4.76,1.24-3.21,2.05-3.42,4.7-1.33.48.38,1.14.54,1.72.8,1.78-.35,3.15.59,4.45,1.52,2.31,1.65,4.78,1.83,7.39,1.09,1.56-.44,3.12-.87,4.75-.88,2.32-.01,2.78-1.18,1.98-3.15-.1-.3-.16-.61-.2-.92-.09-1.19.43-2.1,1.35-2.77,1.94-1.42,3.57-3.17,2.7-5.69-.94-2.72-3.58-2.73-5.98-2.84-5.16-1.5-10.34-1.62-15.56-.33-.69,0-1.28-.24-1.76-.71-3.14-3.08-3.03-11.33.45-13.93,2.36-1.77,2.23-4.61,3.69-6.7.75-1.04.47-2.69,1.97-3.28,1.89-2.01,4.49-1.04,6.68-1.28,3.62-.4,7.23-2.3,10.98-.67Z"/>
  <path class="cls-101" d="M151.45,328.42c2.09,3.87,1.79,4.5-2.4,4.52-1.67,0-3.21.43-4.72,1-4.87,1.83-8.03-1.92-11.82-3.58-1.43-2.8-.59-4.56,2.45-5.28,4.07-.97,8.18-1.56,12.38-1.13.38-1.77-1.42-2.21-1.73-3.44.66-.66,1.46-.7,2.3-.54,1.34.36,2.57,1.17,4.05,1,.63-.07,1.39.07,1.66-.7.3-.84-.19-1.44-.83-1.93-.96-.73-2.26-.77-3.19-1.57-.2-.27-.22-.55-.06-.84,2.82-.19,5.46.57,6.32,3.38.81,2.66-.29,5.12-3.02,6.42-1.19.57-1.35,1.56-1.4,2.68-5.3-1.57-10.6-1.35-15.9.28,5.3,1.94,10.6,2.15,15.89-.28Z"/>
  <path class="cls-23" d="M149.55,315.94c0,.2.01.4.04.6-.1.12-.2.23-.29.35-2.51.68-5.05-.72-7.77.26.68.69,1.96.69,2.24,1.75-.06.14-.13.28-.19.42-3.81-.72-7.49-.75-10.94,1.46-.68.43-1.71,1.55-2.5.34-.59-.9.06-1.86.85-2.56.48-.43.96-.86,1.43-1.29-.23-.74.27-1,.8-1.26,3.89-2.63,8.14-1.14,12.25-1.02,1.37.04,2.73.61,4.09.94Z"/>
  <path class="cls-36" d="M133.21,316.01c-.27.42-.53.84-.8,1.26-.76-.02-1.93.03-1.99-.7-.23-2.99-2.22-5.64-2-8.55.22-2.81.89-5.72,3.84-7.42,2.03-1.17,1.23-4.39,3.51-5.57-.34,3.09-1.34,5.65-3.93,7.81-2.96,2.47-1.9,10.34,1.36,13.16Z"/>
  <path class="cls-23" d="M148.18,320.58c-.86-.02-1.71-.05-2.57-.07-.68-.4-1.36-.79-2.04-1.19,0,0,.12-.17.12-.17,1.82-1.1,3.43-1.16,4.63.9-.04.18-.09.35-.13.53Z"/>
  <path class="cls-40" d="M151.11,387.17c-2.43-.65-4.93-1.86-5.91-4.39-.97-2.49,1.29-3.19,3.18-3.32,3.87-.26,7.8-.02,11.51-1.38,2.44-.89,4.63-.5,6.87.61.91.45,1.96.82,2.09,1.83.17,1.28-1.11,1.66-1.96,2.31-1.78,1.34-3.96.98-5.91,1.57-3.2.97-6.45,1.82-9.87,2.77Z"/>
  <path class="cls-36" d="M166.53,346.06c.14-.16.25-.39.43-.48,3.58-1.72,3.66-1.79.47-4.8-1.97-1.86-3.07-4.16-4.09-6.55-.52-1.23-.65-2.41.11-3.69,1.3-2.17,1.66-4.42,1.21-7.08-1.01-6.07.58-7.81,7.11-8.8-.66.81-1.6,1.02-2.55,1.3-3.22.95-4.56,3.73-2.78,6.57,1.19,1.9.97,3.38.14,5.15-.36.77-.66,1.65-.65,2.48,0,1.67-.63,3.57,1.1,4.85,1.85,1.37,3.45.09,4.77-.82,3.52-2.42,7.34-1.13,11.03-1.17,2.57-.03,4.84-.14,6.73-2.35,1.33-1.56,3.64-1.68,5.39-1.01,2.26.86,2.72,3.41,2.83,5.45.12,2.2-.47,4.5-1.06,6.68-1.63,6.05-10.34,8.56-16.06,5.44-1.33-.73-2.6-1.58-3.95-2.28-1.46-.77-2.63-1.44-4.07.6-1.49,2.1-4.05.35-6.12.51Z"/>
  <path class="cls-85" d="M172.38,327.08c1.76-1.43,3.98-.79,5.92-1.02,3.34-.39,6.67-.96,10.03-1.08.93-.03,2.66-.46,2.98,1.22.37,1.9-1.34,2.21-2.55,2.84-4.38,2.11-8.98,2.1-13.6,1.22-1.55-.29-3.75-.48-2.78-3.18Z"/>
  <path class="cls-41" d="M176.99,323.82c-.87-.2-2.18.45-2.44-.95-.21-1.12.8-1.69,1.62-2.23,4.26-2.82,8.86-3.26,13.71-1.98.55.14,1.04.4,1.17.99.14.68-.49.88-.89,1.21-1.58,1.32-3.63,1.46-5.47,1.93-2.5.63-5.13.71-7.71,1.03Z"/>
  <path class="cls-91" d="M164.45,353.98c-.96-.2-2.05.24-2.14-.81-.07-.79.26-1.76.72-2.43.88-1.27,7.45-2.73,8.97-2.09,1.16.48,2.83.9,2.6,2.36-.23,1.44-1.86,1.81-3.21,1.54-2.63-.54-4.77,1.18-6.95,1.43Z"/>
  <path class="cls-97" d="M172.38,327.08c.14,2.92,2.5,2.54,4.25,2.6,4.05.14,8.12.14,12.14-.64-4.86,4.68-10.24,3.46-15.69,1.38-1.9-.72-1.61-1.99-.69-3.34Z"/>
  <path class="cls-88" d="M155.39,349.29c.44.02.87,0,1.3.05,1.1.13,2.17.39,2.78,1.42.3.52-.22.85-.59.96-1.38.37-2.98.69-4.13-.04-1.3-.82.48-1.54.63-2.38,0,0,0,0,0,0Z"/>
  <path class="cls-28" d="M146.41,314c-3.68.72-7.82-1.68-12.05-.17-.75.27-1.27-.5-1.13-1.19.44-2.16.18-4.5,2-6.3,2.65-2.62,5.26-5.28,2.67-9.54-.61-1-.34-2.53.73-3.61,1.33-1.34,2.12.21,3.14.49,4.28,1.17,5.54,4.47,5.78,8.41.08,1.19-.05,2.39.03,3.58.19,2.82,1.23,5.03,4.29,5.75.88.2,1.84.68,1.73,1.64-.12,1.12-1.28.93-2.11.94-1.52.03-3.04,0-5.07,0Z"/>
  <path class="cls-22" d="M151.45,328.42c-.13.77-.35,1.52-1.23,1.73-5,1.19-10.02,1.54-14.99-.09-.87-.28-2.06-.67-1.75-1.94.24-.99,1.27-1.04,2.15-1.06,3.44-.09,6.81-.94,10.31-.74,2.17.13,4.03.43,5.51,2.1,0,0,0,0,0,0Z"/>
  <path class="cls-23" d="M149.59,316.54c2.1.11,4.1.51,5.02,2.7.31.75.47,2.01-.45,2.29-2.07.63-4.21.72-5.98-.95,0,0,.09-.12.09-.12.82-.99,2.22-.43,3.16-1.03-.15-1.39-2.16-1.28-1.92-2.78l.09-.11Z"/>
  <path class="cls-25" d="M149.5,316.65c.25.19.48.47.77.55,1.4.44,3.04,1.3,2.72,2.65-.33,1.38-2.23.49-3.43.66-.42.06-.86-.03-1.29-.05-1.13-1.82-3.02-1-4.58-1.31-1.38-.55-2.76-1.1-4.75-1.88,3.71-2.31,7.17-1.11,10.56-.62Z"/>
  <path class="cls-105" d="M187.22,333.57c2,.18,4.13.95,6.5.27,1.34-.39,2.08,1.24,2.37,2.6.57,2.76-1.43,6.64-4.09,7.72-1.6.65-3.05,1.59-4.81,1.97-4.44.96-8.01-.32-10.23-4.19-.85-1.47-1.45-2.72-3.37-1.43-.55.37-1.32.42-1.64-.38-.28-.7.1-1.55.72-1.59,4.73-.32,7.94-4.6,12.7-4.78.54-.02,1.08-.11,1.85-.19Z"/>
</svg>